<?xml version="1.0" encoding="utf-8"?>
<!-- Generator: Adobe Illustrator 27.5.0, SVG Export Plug-In . SVG Version: 6.00 Build 0)  -->
<svg version="1.1" xmlns="http://www.w3.org/2000/svg" xmlns:xlink="http://www.w3.org/1999/xlink" x="0px" y="0px"
	 viewBox="0 0 500 500" style="enable-background:new 0 0 500 500;" xml:space="preserve">
<g id="BACKGROUND">
	<path style="fill:#FFFFFF;" d="M500,0v500H0V0H500z"/>
</g>
<g id="OBJECTS">
	
		<ellipse transform="matrix(0.7071 -0.7071 0.7071 0.7071 -80.6674 240.5203)" style="fill:#AAF2F2;" cx="250" cy="217.634" rx="157.075" ry="157.075"/>
	<ellipse style="fill:#DFEBEB;" cx="265.828" cy="428.258" rx="116.167" ry="11.183"/>
	<path style="fill:#FFFFFF;" d="M136.315,227.188l2.328-0.892c0.492-0.188,0.492-1.123,0-1.312l-2.328-0.892
		c-4.45-1.706-7.929-6.374-9.201-12.346l-0.665-3.123c-0.141-0.66-0.837-0.66-0.978,0l-0.665,3.123
		c-1.272,5.972-4.75,10.64-9.201,12.346l-2.328,0.892c-0.492,0.188-0.492,1.123,0,1.312l2.327,0.892
		c4.451,1.706,7.929,6.374,9.201,12.346l0.665,3.123c0.141,0.66,0.837,0.66,0.978,0l0.665-3.123
		C128.386,233.562,131.865,228.894,136.315,227.188z"/>
	<path style="fill:#FFFFFF;" d="M140.079,160.529l1.404-0.538c0.296-0.114,0.296-0.678,0-0.791l-1.404-0.538
		c-2.685-1.029-4.783-3.845-5.55-7.447l-0.401-1.884c-0.085-0.398-0.505-0.398-0.59,0l-0.401,1.884
		c-0.767,3.602-2.865,6.418-5.55,7.447l-1.404,0.538c-0.297,0.114-0.297,0.678,0,0.791l1.404,0.538
		c2.685,1.029,4.783,3.845,5.55,7.447l0.401,1.884c0.085,0.398,0.505,0.398,0.59,0l0.401-1.884
		C135.296,164.374,137.395,161.558,140.079,160.529z"/>
	<path style="fill:#FFFFFF;" d="M310.15,124.414l2.031-0.778c0.429-0.164,0.429-0.98,0-1.144l-2.031-0.779
		c-3.882-1.488-6.917-5.561-8.027-10.77l-0.58-2.725c-0.123-0.576-0.73-0.576-0.853,0l-0.58,2.725
		c-1.109,5.21-4.144,9.282-8.027,10.77l-2.031,0.779c-0.429,0.164-0.429,0.98,0,1.144l2.03,0.778
		c3.883,1.489,6.917,5.561,8.027,10.77l0.58,2.725c0.122,0.575,0.73,0.575,0.853,0l0.58-2.725
		C303.233,129.975,306.268,125.903,310.15,124.414z"/>
	<path style="fill:#FFFFFF;" d="M281.531,90.274l1.164-0.446c0.246-0.094,0.246-0.562,0-0.656l-1.164-0.446
		c-2.225-0.853-3.965-3.187-4.6-6.173l-0.332-1.562c-0.07-0.33-0.419-0.33-0.489,0l-0.333,1.562c-0.636,2.986-2.375,5.32-4.6,6.173
		l-1.164,0.446c-0.246,0.094-0.246,0.562,0,0.656l1.164,0.446c2.225,0.853,3.965,3.187,4.6,6.173l0.333,1.562
		c0.07,0.33,0.419,0.33,0.489,0l0.333-1.562C277.566,93.462,279.306,91.128,281.531,90.274z"/>
	<path style="fill:#FFFFFF;" d="M306.294,176.074l1.164-0.446c0.246-0.094,0.246-0.562,0-0.656l-1.164-0.446
		c-2.225-0.853-3.965-3.187-4.6-6.173l-0.332-1.562c-0.07-0.33-0.419-0.33-0.489,0l-0.332,1.562
		c-0.636,2.986-2.375,5.32-4.601,6.173l-1.164,0.446c-0.246,0.094-0.246,0.562,0,0.656l1.164,0.446
		c2.225,0.853,3.965,3.187,4.6,6.173l0.333,1.562c0.07,0.33,0.419,0.33,0.489,0l0.332-1.562
		C302.33,179.26,304.069,176.927,306.294,176.074z"/>
	<g>
		<path style="fill:#DE3030;" d="M238.452,154.442c1.828,0.217,2.728,2.516,1.848,4.036c-0.69,1.358-2.78,1.637-3.805,0.523
			C234.82,157.351,235.955,154.141,238.452,154.442z"/>
		<path style="fill:#DE3030;" d="M220.23,156.769c1.796,0.498,2.636,2.953,1.454,4.416c-0.703,1.146-2.293,1.459-3.374,0.641
			C215.894,160.3,217.272,156.011,220.23,156.769z"/>
		<path style="fill:#DE3030;" d="M209.616,297.757c0.002,0.012,0.005,0.023,0.007,0.035c0.005,0.023,0.008,0.047,0.013,0.069
			C209.629,297.827,209.622,297.792,209.616,297.757z"/>
		<path style="fill:#DE3030;" d="M240.096,276.375c0.001,0.006,0.002,0.011,0.003,0.017c0.002,0.007,0.003,0.014,0.004,0.02
			C240.101,276.4,240.098,276.388,240.096,276.375z"/>
		<path style="fill:#FFFFFF;" d="M218.31,161.827c-2.417-1.527-1.038-5.815,1.92-5.057c1.797,0.497,2.637,2.952,1.455,4.416
			C220.982,162.331,219.391,162.644,218.31,161.827z"/>
		<path style="fill:#FFFFFF;" d="M236.494,159.001c-1.673-1.651-0.539-4.859,1.958-4.56c1.828,0.217,2.728,2.516,1.848,4.036
			C239.609,159.837,237.52,160.115,236.494,159.001z"/>
		<path style="fill:#4C404F;" d="M221.685,161.185c1.182-1.463,0.342-3.918-1.454-4.416c-2.958-0.758-4.337,3.531-1.92,5.057
			C219.392,162.644,220.981,162.331,221.685,161.185z M229.669,168.765c0.034,1.14,0.036,2.282-0.137,3.412
			c-0.012,0.078-0.025,0.156-0.037,0.235c-0.012,0.154-0.026,0.308-0.043,0.461c-0.097,0.862-0.306,1.712-0.611,2.524
			c-0.337,0.897-0.832,1.793-1.535,2.457c-0.429,0.407-0.918,0.77-1.48,0.968c-0.451,0.16-0.906,0.243-1.367,0.243
			c-0.297,0-0.594-0.034-0.896-0.104c-1.141-0.263-2.067-1.023-2.835-1.873c-0.698-0.812-1.277-1.706-1.781-2.65
			c-0.424-0.792-0.82-1.598-1.127-2.442c-0.781-2.14-1.295-4.372-1.491-6.643c-0.193-2.225-0.322-4.488-0.039-6.711
			c0.165-1.291,0.492-2.563,1.105-3.715c0.52-0.976,1.371-1.862,2.424-2.253c0.676-0.251,1.403-0.362,2.121-0.246
			c0.664,0.107,1.327,0.344,1.89,0.718c0.505,0.334,0.971,0.705,1.379,1.154c0.425,0.467,0.797,0.965,1.133,1.499
			c0.374,0.597,0.658,1.256,0.91,1.912c0.29,0.755,0.559,1.52,0.805,2.29C228.957,162.838,229.579,165.784,229.669,168.765z"/>
		<path style="fill:#4C404F;" d="M240.299,158.478c0.881-1.521-0.02-3.819-1.848-4.036c-2.497-0.3-3.631,2.909-1.957,4.56
			C237.52,160.116,239.609,159.836,240.299,158.478z M248.359,167.059c0.034,1.14,0.036,2.282-0.137,3.412
			c-0.012,0.078-0.024,0.157-0.037,0.235c-0.012,0.154-0.026,0.308-0.043,0.461c-0.097,0.862-0.306,1.712-0.611,2.524
			c-0.338,0.897-0.832,1.793-1.535,2.457c-0.429,0.406-0.918,0.77-1.48,0.968c-0.451,0.16-0.906,0.243-1.367,0.243
			c-0.297,0-0.594-0.034-0.896-0.104c-1.141-0.263-2.067-1.023-2.835-1.873c-0.699-0.812-1.277-1.706-1.781-2.65
			c-0.424-0.792-0.82-1.598-1.127-2.442c-0.781-2.14-1.295-4.372-1.492-6.643c-0.193-2.225-0.322-4.488-0.038-6.711
			c0.165-1.29,0.492-2.562,1.105-3.715c0.52-0.976,1.371-1.862,2.424-2.253c0.676-0.251,1.403-0.362,2.121-0.246
			c0.665,0.107,1.327,0.344,1.89,0.718c0.505,0.334,0.97,0.705,1.379,1.154c0.425,0.467,0.796,0.965,1.133,1.498
			c0.374,0.597,0.658,1.256,0.91,1.912c0.29,0.755,0.559,1.52,0.805,2.29C247.648,161.132,248.269,164.077,248.359,167.059z"/>
		<path style="fill:#4C404F;" d="M242.201,196.848c0.047-0.029,0.093-0.06,0.14-0.089c-0.131-0.14-0.271-0.274-0.415-0.406
			c-0.258-0.227-0.529-0.439-0.812-0.644c-0.406-0.277-0.831-0.534-1.27-0.773c-0.423-0.221-0.858-0.423-1.308-0.606
			c-0.55-0.213-1.114-0.391-1.69-0.549c-0.951-0.244-1.915-0.437-2.892-0.588c-0.941-0.134-1.886-0.216-2.842-0.253
			c-0.976-0.026-1.952-0.009-2.927,0.064c-0.931,0.084-1.854,0.206-2.767,0.377c-0.774,0.157-1.535,0.354-2.294,0.553
			c-0.701,0.182-1.402,0.356-2.087,0.571c-0.646,0.211-1.28,0.443-1.905,0.691c-0.056,0.022-0.112,0.046-0.169,0.068
			c0.152,0.111,0.306,0.222,0.461,0.331c0.916,0.63,1.869,1.215,2.864,1.751c0.813,0.424,1.648,0.819,2.51,1.165
			c0.83,0.314,1.681,0.584,2.546,0.821c0.728,0.185,1.462,0.335,2.209,0.453c0.694,0.093,1.39,0.163,2.089,0.195
			c0.564,0.009,1.127-0.004,1.689-0.042c0.642-0.058,1.278-0.143,1.91-0.258c0.701-0.146,1.39-0.325,2.067-0.535
			c0.779-0.257,1.537-0.554,2.276-0.884C240.49,197.832,241.357,197.358,242.201,196.848z M255.615,179.944
			c0.314-0.856,0.617-1.716,0.909-2.578c-0.694,0.682-1.437,1.329-2.205,1.948c-1.559,1.257-3.2,2.413-4.984,3.437
			c-4.341,2.49-9.283,4.235-14.356,5.326c-2.813,0.605-5.673,0.994-8.576,1.041c-0.22,0.002-0.44,0.005-0.661,0.005
			c-2.735,0-5.465-0.273-8.127-0.816c-2.77-0.568-5.471-1.403-7.852-2.751c-0.005-0.002-0.008-0.005-0.013-0.007
			c0.989,1.379,2.029,2.732,3.141,4.043c1.111,1.271,2.274,2.499,3.547,3.655c0.383,0.338,0.775,0.667,1.177,0.987
			c0.289-0.234,0.612-0.437,0.938-0.631c0.76-0.45,1.601-0.807,2.454-1.112c0.409-0.147,0.823-0.28,1.244-0.396
			c0.466-0.128,0.947-0.217,1.426-0.299c0.934-0.162,1.89-0.265,2.839-0.339c1.905-0.149,3.834-0.169,5.742-0.037
			c0.997,0.068,1.989,0.169,2.974,0.318c0.961,0.145,1.9,0.36,2.83,0.61c1.678,0.45,3.367,1.017,4.796,1.905
			c0.538,0.334,1.031,0.704,1.481,1.12c0.149-0.112,0.298-0.227,0.445-0.342c1.047-0.844,2.04-1.726,2.964-2.668
			c1.16-1.208,2.227-2.468,3.218-3.781c0.949-1.292,1.849-2.611,2.602-3.976c0.003-0.005,0.006-0.01,0.008-0.015l0.009-0.018
			c0.422-0.783,0.787-1.583,1.127-2.393C255.022,181.438,255.334,180.696,255.615,179.944z M263.951,170.169
			c0.046,0.953-0.757,1.906-2.422,1.906c-0.149,0-0.305-0.008-0.467-0.023c-0.129-0.021-0.256-0.041-0.384-0.061
			c-0.037,0.392-0.097,0.781-0.173,1.17c-0.243,1.25-0.576,2.481-0.948,3.707c-0.438,1.445-0.984,2.861-1.591,4.261
			c-0.689,1.593-1.497,3.143-2.293,4.699c-1.051,2.056-2.174,4.077-3.548,5.994c-1.566,2.181-3.381,4.276-5.545,6.059
			c-1.07,0.883-2.191,1.702-3.407,2.438c-1.062,0.642-2.195,1.202-3.364,1.694c-2.704,1.135-5.708,1.74-8.719,1.836
			c-0.21,0.006-0.42,0.009-0.631,0.009c-2.657,0-5.292-0.523-7.705-1.459c-2.614-1.013-4.967-2.428-7.015-4.136
			c-2.007-1.674-3.761-3.584-5.258-5.603c-1.583-2.134-2.888-4.416-3.896-6.788c-0.412-0.968-0.774-1.953-1.113-2.941
			c-0.222-0.65-0.413-1.314-0.64-1.966c-0.093-0.15-0.182-0.3-0.268-0.453c-0.344,0.123-0.709,0.182-1.071,0.182
			c-0.899,0-1.782-0.367-2.294-1.056c-1.122-1.536,0.152-3.086,1.908-3.697c1.832-0.744,4.004-1.327,6.02-0.82
			c2.929,0.844,0.394,2.48-1.004,3.365c-0.345,0.217-0.687,0.438-1.034,0.656c0.21,0.222,0.43,0.438,0.656,0.65
			c0.59,0.515,1.228,0.987,1.877,1.448c0.679,0.462,1.383,0.892,2.117,1.29c0.903,0.471,1.834,0.89,2.792,1.271
			c0.892,0.339,1.801,0.637,2.731,0.89c0.944,0.24,1.9,0.433,2.87,0.585c1.431,0.2,2.872,0.316,4.321,0.371
			c2.01,0.057,4.019-0.026,6.022-0.175c1.713-0.148,3.408-0.378,5.088-0.698c1.529-0.309,3.03-0.703,4.501-1.168
			c1.566-0.509,3.09-1.104,4.569-1.773c1.375-0.641,2.703-1.346,3.977-2.121c1.011-0.628,1.995-1.296,2.913-2.022
			c0.707-0.574,1.369-1.183,1.993-1.82c0.663-0.695,1.281-1.421,1.848-2.175c0.61-0.83,1.159-1.697,1.577-2.46
			c0.007-0.013,0.014-0.025,0.021-0.037c-0.63-0.176-1.263-0.341-1.919-0.438c-3.375-0.304,2.143-2.147,3.039-2.254
			c0.975-0.204,1.975-0.232,2.977-0.241C262.934,168.186,263.902,169.178,263.951,170.169z"/>
		<path style="fill:#4C404F;" d="M158.65,290.259c-0.166-0.584-0.333-1.167-0.499-1.75c-0.419-1.636-0.825-3.277-1.222-4.919
			c-1.562,2.635-2.906,5.396-3.808,8.333c-1.762,6.21-3.528,13.559-0.208,19.532c0.305,0.43,0.635,0.835,0.99,1.218
			c-0.068-0.792-0.09-1.593-0.062-2.402c-0.049-5.675,0.864-11.191,3.002-16.379C157.141,293.27,157.817,291.709,158.65,290.259z
			 M173.701,327.161c-0.619-0.854-1.206-1.732-1.767-2.63c-5.329-8.601-8.595-18.229-11.453-27.921
			c-1.012,7.558-2.51,16.308,1.989,23.021C165.265,323.619,169.275,325.918,173.701,327.161z M183.571,245.048
			c-0.021-0.453,0.008-0.906-0.01-1.363c-0.277-2.227-1.399-4.188-3.491-5.149c-5.919-2.509-12.495,1.166-17.315,4.52
			c-3.983,2.832-7.303,6.518-10.009,10.571c-1.802,2.831-3.516,5.767-4.595,8.959c-1.725,5.27-2.787,10.744-2.663,16.305
			c-0.032,4.044,0.633,8.051,1.492,11.99c0.086,0.372,0.176,0.745,0.265,1.117c0.308-0.953,0.642-1.864,0.992-2.72
			c0.787-2.485,4.096-8.301,7.414-11.121c-0.641-2.776-1.265-5.557-1.891-8.338c-0.671-2.907-1.154-5.85-1.665-8.789
			c-0.153-1.101-0.489-2.216-0.42-3.33c0.131-1.641,1.839-2.786,3.371-2.363c2.648-3.109,16.65-6.802,18.432-7.561
			C176.821,246.863,180.187,245.946,183.571,245.048z M246.085,357.107c-1.426-3.315-2.821-6.643-4.157-9.994
			c-1.119,0.908-2.259,1.792-3.407,2.658c-0.833,0.638-1.652,1.276-2.586,1.762c-1.583,0.69-3.29,0.999-5.019,1.103
			c-2.726,1.712-5.493,3.374-8.219,5.09c-1.041,0.681-1.977,1.559-2.167,2.848c-0.182,0.675,0.325,1.261,0.63,1.822
			c1.147,1.67,3.129,2.392,5.085,2.49c2.777,0.103,5.408-1.085,8.025-1.868C238.483,361.629,242.253,359.29,246.085,357.107z
			 M255.807,387.066c0.25-1.321,0.577-2.594,0.961-3.778c-0.572-1.524-1.333-2.976-1.502-4.635c-0.076-0.458-0.153-0.917-0.23-1.377
			c-0.818-1.691-1.515-3.448-2.316-5.139c-1.725-3.862-3.454-7.725-5.149-11.602c-0.863,0.877-1.81,1.681-2.726,2.481
			c-3.047,2.513-6.536,4.409-10.21,5.827c0.513,4.242-1.084,7.623-3.767,10.044c3.89-0.041,7.785,0.389,11.567,1.272
			C247.275,381.433,252.169,383.554,255.807,387.066z M258.04,313.318c4.182-14.133,0.918-28.951-1.574-43.091
			c-1.551-8.303-3.37-16.559-4.631-24.915c-0.162-1.092-0.322-2.184-0.456-3.279c-0.027-0.379-0.084-0.771-0.135-1.167
			c-0.234,0.005-0.462,0.005-0.681,0.002c-6.279,1.048-12.756,0.161-19.104,0.825c-9.118,0.436-18.117,1.98-27.06,3.742
			c-9.916,1.917-19.806,4.021-29.506,6.851c-4.878,1.412-9.719,2.954-14.6,4.359c-1.056,0.214-2.17,0.687-3.271,0.82
			c0.1,0.326,0.172,0.662,0.23,0.993c0.292,1.295,0.571,2.594,0.891,3.882c1.9,7.728,3.476,15.53,5.419,23.248
			c2.151,8.065,4.573,16.084,7.556,23.882c2.308,5.673,4.964,11.282,8.853,16.056c7.819,8.948,18.561,14.788,29.94,17.878
			c6.008,1.614,17.408,4.529,23.241,2.831c5.053-3.451,9.799-7.504,13.664-12.274C251.641,327.767,255.719,320.846,258.04,313.318z
			 M262.913,410.356c0.115-1.152-0.104-2.286-0.212-3.424c-5.072-2.198-7.123-7.342-7.407-12.826
			c-0.307-0.189-0.661-0.309-0.973-0.499c-1.573-1.164-2.847-2.707-4.55-3.779c-6.448-4.446-14.59-5.332-22.233-4.945
			c-6.564,0.557-13.025,2.198-19.139,4.632c-1.469,0.624-2.941,1.252-4.337,2.034c-0.326,0.185-0.662,0.353-0.98,0.551
			c-0.221,0.203-0.576,0.197-0.791-0.016c-0.222-0.223-0.218-0.598,0.008-0.815c0.416-0.568,0.853-1.116,1.335-1.628
			c2.67-2.958,5.904-5.408,9.534-7.061c-4.115-1-8.421-3.035-10.324-6.974c-0.427-0.87-0.607-1.826-0.745-2.776
			c-0.349-0.43-0.162-1.128,0.35-1.334c0.562-0.255,1.258,0.224,1.208,0.835c2.817,3.629,8.726,4.689,13.079,5.149
			c6.294,0.318,11.092-1.466,12.873-7.044c-1.622,0.34-3.285,0.451-4.942,0.216c-4.671-0.384-9.15-3.895-9.88-8.65
			c-0.23-2.128,0.606-4.27,1.816-5.986c1.698-2.178,4.307-3.02,6.886-3.743c-3.313-0.383-6.6-0.978-9.849-1.739
			c-0.128,0.063-0.255,0.135-0.375,0.215c-1.17,0.833-2.532,1.346-3.691,2.202c-1.166,0.777-2.101,1.814-3.019,2.858
			c-2.51,2.883-4.019,6.558-4.491,10.337c-0.007,0.279-0.047,0.563-0.007,0.84c0.206,0.352,0.083,0.816-0.268,1.022
			c-0.318,0.186-0.74,0.105-0.968-0.189c-0.347-0.822-0.333-1.787-0.459-2.67c-0.203-2.215-0.401-4.471-0.065-6.683
			c0.446-2.909,1.91-5.611,3.883-7.796c-0.215-0.056-0.425-0.109-0.628-0.145c-3.125-0.82-6.33-1.343-9.569-1.112
			c-5.422,0.569-10.276,3.836-13.814,7.854c-1.326,1.501-2.358,3.218-3.296,4.979c-1.352,2.832-2.588,5.733-3.259,8.811
			c-0.438,2.429-0.828,4.899-0.659,7.376c0.449,4.488,1.491,8.955,2.964,13.205c3.224,9.333,7.83,18.869,16.076,24.739
			c7.449,5.366,16.711,6.131,25.585,6.762c13.458,0.915,27.722,1.073,40.061-5.117C260.888,416.628,262.775,413.9,262.913,410.356z
			 M264.7,342.742c0.163-0.239,0.325-0.484,0.487-0.73c-0.584,0.209-1.173,0.408-1.764,0.598c0.185,0.382,0.368,0.764,0.549,1.147
			C264.262,343.419,264.525,343.083,264.7,342.742z M268.197,366.385c-0.619-1.287-1.134-2.647-1.813-3.862
			c-4.684-9.067-8.158-18.707-12.64-27.857c-0.455,0.635-0.919,1.264-1.39,1.886c-2.127,2.887-4.597,5.468-7.252,7.854
			c6.323,9.122,10.075,19.507,14.916,29.401c0.156,0.445,0.357,0.901,0.562,1.362C262.592,371.967,265.228,368.765,268.197,366.385z
			 M282.009,217.465c0.723,0.336,2.096,0.961,3.466,1.757c-5.279-26.135-10.423-52.295-15.459-78.473
			c-0.503-2.685-1.005-5.371-1.483-8.061c-0.948-3.185-1.873-6.378-2.951-9.523c-0.742-2.114-1.611-4.195-2.533-6.26
			c-13.858-23.886-45.374-33.348-71.18-20.999c-16.693,7.93-27.526,23.588-29.845,41.092c-0.014,5.929,0.553,11.841,1.206,17.744
			c1.835,8.483,3.524,16.992,5.171,25.511c1.584,7.692,3.116,15.397,4.613,23.11c1.956,9.626,3.893,19.255,5.811,28.887
			c0.618,0.095,1.229,0.235,1.827,0.416c3.355-4.131,7.442-7.689,11.821-10.686c4.814-3.296,10.033-5.967,15.484-8.037
			c2.729-1.037,5.52-1.913,8.344-2.656c0.388-0.102,0.775-0.2,1.164-0.297c0.249-0.063,0.495-0.129,0.742-0.182
			c0.251-0.06,0.502-0.12,0.753-0.179c0.721-0.167,1.442-0.331,2.168-0.48c3.803-0.786,7.647-1.336,11.512-1.657
			c0.131-0.02,0.263-0.03,0.397-0.031c2.071-0.163,4.146-0.262,6.224-0.293c6.05-0.093,12.114,0.378,18.08,1.385
			c2.406,0.405,5.13,0.937,7.817,1.628c2.676,0.688,5.314,1.51,7.905,2.471c1.337,0.496,2.657,1.043,3.958,1.626
			c0.471,0.211,0.94,0.425,1.407,0.646C279.628,216.423,280.819,216.944,282.009,217.465z M297.278,298.038
			c0.277-3.152,0.429-6.314,0.382-9.48c-0.068-4.407-0.392-8.788-0.87-13.152c-1.813-8.395-3.483-16.817-5.112-25.248
			c-1.559-7.574-3.069-15.161-4.545-22.756c-0.167-0.819-0.333-1.638-0.499-2.456c-0.52-0.145-1.034-0.363-1.479-0.542
			c-1.747-0.762-3.442-1.635-5.204-2.363c-5.042-2.101-10.173-4.004-15.367-5.698c-1.03-0.343-2.063-0.677-3.1-1.001
			c-0.742-0.148-1.486-0.286-2.231-0.416c-4.11-0.681-8.253-1.089-12.414-1.234c-0.172-0.006-0.343-0.01-0.515-0.014
			c-2.946-0.075-5.892-0.026-8.833,0.152c-1.425,0.085-2.849,0.2-4.27,0.343c-4.312,0.455-8.59,1.166-12.811,2.161
			c-0.054,0.013-0.106,0.026-0.16,0.039c-3.796,0.926-7.521,2.095-11.17,3.491c-3.082,1.205-6.096,2.562-9.007,4.137
			c-2.315,1.279-4.557,2.671-6.703,4.216c-1.721,1.268-3.368,2.63-4.932,4.089c-1.023,0.973-2.001,1.992-2.929,3.054
			c2.266,2.018,3.691,4.854,3.431,8.153c-0.005,0.044-0.008,0.09-0.014,0.134c20.199-5.184,40.966-9.287,61.684-7.402
			c1.254,0.095,2.912,0.102,3.652,1.09c0.765,0.458,1.402,1.35,1.67,2.289c0.809,2.286,1.264,4.678,1.79,7.039
			c1.878,9.283,3.899,18.541,5.583,27.863c1.969,11.191,3.797,22.643,1.958,33.977c-1.302,8.08-4.625,15.6-8.999,22.448
			c0.907,0.757,1.632,1.753,2.3,2.722c0.795,1.26,1.543,2.544,2.254,3.845c2.508-0.781,4.985-1.75,7.412-2.911
			C283.471,327.368,293.826,313.685,297.278,298.038z M312.913,269.135c-0.645-1.845-1.124-3.733-1.424-5.619
			c-0.543-2.849-0.735-5.925-0.447-8.944c-0.584,0.075-1.176,0.093-1.759,0.069c-2.553-0.129-5.155-0.585-7.442-1.771
			c-1.746-0.989-3.238-2.36-4.584-3.851c0.912,5.048,1.8,10.1,2.656,15.158C303.755,266.999,308.128,268.648,312.913,269.135z
			 M337.377,216.993c-0.195-1.052-0.34-2.115-0.559-3.163c-0.51-2.454-1.478-4.785-2.696-6.969c-0.208-0.064-0.418-0.12-0.631-0.16
			c-2.023-0.334-4.3-0.085-5.825,1.404c-3.767,3.429-4.619,6.458-5.596,11.284c-0.968,5.202-0.926,10.696,0.771,15.744
			c1.076,3.186,2.558,6.347,5.201,8.529c1.375,1.096,2.984,1.939,4.646,2.497c0.565,0.102,1.126,0.06,1.686-0.013
			c-1.432-4.773,0.055-8.904,3.331-11.918c-2.392-1.877-3.77-5.505-3.813-8.386c-0.079-2.656,0.904-5.265,2.343-7.467
			C336.582,217.887,336.966,217.427,337.377,216.993z M343.357,342.048c-0.846-0.949-1.793-1.818-2.85-2.586
			c-6.232-3.944-14.053-2.531-20.806-0.867c-8.325,2.468-15.917,7.106-22.372,12.868c-4.946,4.355-8.904,9.688-12.734,15.019
			c-2.524,3.724-4.839,7.581-7.08,11.48c-0.72,1.239-1.515,2.433-2.188,3.7c-0.112,0.29-0.448,0.467-0.752,0.38
			c-0.403-0.112-0.554-0.551-0.385-0.898c-0.008,0.013-0.015,0.027-0.023,0.041c-0.009,0.025-0.017,0.049-0.026,0.075
			c1.182-4.486,2.787-8.887,4.786-13.104c-1.182-0.118-2.628-0.074-5.064,1.598c-8.552,5.751-14.129,16.644-12.481,26.984
			c0.596,2.435,1.624,5.369,4.07,6.383c0.751-4.038,2.092-7.977,4.278-11.469c0.888-1.364,1.695-2.843,2.912-3.945
			c0.646-0.565,2.227-1.055,2.335,0.221c-0.022,0.776-0.413,1.528-0.701,2.231c-2.447,6.072-3.977,12.522-4.042,19.087
			c0.076,6.599,1.87,14.288,7.665,18.172c-4.612-7.572-2.652-19.319-0.487-27.504c2.559-9.403,7.175-18.076,12.317-26.302
			c5.199-8.286,11.765-15.666,19.365-21.822c7.804-6.085,17.381-10.41,27.387-10.594C338.747,341.151,341.122,341.4,343.357,342.048
			z M345.084,280.045c0.214-0.11,0.427-0.225,0.642-0.338c-1.079-0.015-2.164-0.142-3.117-0.215
			c-10.125-1.492-17.106-10.958-19.219-20.455c-0.793-3.528-1.204-7.244-0.384-10.805c0.043-0.29,0.154-0.659,0.316-1.036
			c-1.085-1.023-2.046-2.179-2.868-3.428c-3.659,5.707-4.575,12.884-3.006,19.468c0.001,0.004,0.001,0.007,0.002,0.01
			c1.786,8.937,8.246,18.117,17.88,19.136C338.796,282.811,342.085,281.705,345.084,280.045z M347.182,356.565
			c0.058-1.57,0.079-3.168-0.28-4.703c-0.241-0.69-0.722-1.254-1.177-1.814c-6-5.626-19.013-1.887-25.573,1.358
			c-3.308,1.727-6.459,3.756-9.243,6.25c-5.575,4.958-10.545,10.568-14.654,16.8c-7.594,11.523-14.318,24.24-15.256,38.251
			c-0.307,5.822-0.264,15.775,7.832,15.368c5.331-1.455,10.246-4.105,14.801-7.191c9.292-6.237,16.867-14.617,23.742-23.366
			c7.071-8.78,13.609-18.199,17.429-28.885C346.113,364.729,346.909,360.674,347.182,356.565z M347.912,262.702
			c-0.002-0.134-0.005-0.268-0.007-0.402c0.005-0.717-0.032-1.463,0.02-2.193c-4.39-1.657-8.104-4.77-10.827-8.59
			c-0.199-0.28-0.388-0.558-0.568-0.836c-0.515,0.232-1.074,0.389-1.598,0.55c-0.86,0.263-1.768,0.464-2.672,0.409
			c-1.843-0.089-3.546-0.909-5.173-1.717c-0.044-0.023-0.088-0.047-0.131-0.072c0.126,0.951,0.257,1.901,0.508,2.819
			c1.294,6.43,3.761,12.927,8.716,17.431c2.908,2.663,6.823,3.619,10.647,4.038C347.163,270.324,347.529,266.513,347.912,262.702z
			 M357.193,185.497c-0.289-6.083-0.278-12.185-0.529-18.271c-0.156-4.64-0.25-9.283-0.413-13.924
			c-0.019-0.558-0.036-1.117-0.049-1.675c0.005-0.093,0.004-0.189,0-0.286c-0.055-0.033-0.111-0.071-0.167-0.116
			c-6.792-5.107-13.827-9.891-20.859-14.667c-3.213-2.161-6.534-4.163-9.684-6.419c3.49,15.955,8.903,31.467,12.397,47.438
			c0.639,3.441,1.549,6.898,1.939,10.382c3.232-0.698,6.494-1.261,9.78-1.676C352.124,185.907,354.656,185.645,357.193,185.497z
			 M366.038,273.948c-0.715-3.69-1.183-7.436-1.984-11.108c-0.669,0.162-1.372,0.237-2.032,0.382
			c-1.433,0.276-2.892,0.451-4.342,0.6c-1.817,0.144-3.629,0.454-5.446,0.624c0.075,1.303,0.072,2.614,0.131,3.868
			c-0.01,2.657-0.078,5.312-0.176,7.968c0.194-0.092,0.39-0.177,0.557-0.273C356.904,274.194,361.523,273.621,366.038,273.948z
			 M369.521,291.582c-0.758-4.44-1.741-8.716-2.617-13.061c-4.588-0.327-9.151-0.929-13.751-0.676
			c-0.277-0.005-0.672,0.054-1.029,0.044c-0.14,3.399-0.326,6.795-0.505,10.191c3.115-1.47,7.529-0.979,10.643-0.118
			C364.913,288.636,367.252,290.074,369.521,291.582z M369.958,294.353c-0.03-0.214-0.062-0.429-0.095-0.641
			c-2.656-2.493-6.001-4.196-9.686-4.368c-2.71-0.2-5.292,0.842-7.743,1.877c-0.276,0.097-0.624,0.263-0.997,0.421
			c-0.009,0.181-0.017,0.363-0.027,0.545C357.191,294.759,363.775,294.185,369.958,294.353z M375.837,268.283
			c10.655-7.835,9.881-20.08-1.068-27.196c-7.773-5.871-28.201-10.025-34.525-0.673c-1.739,4.395,2.011,8.653,4.959,11.524
			c3.471,3.036,8.193,4.417,12.707,4.92c1.94,0.162,3.867-0.092,5.794-0.266c0.35-0.117,0.702-0.23,1.058-0.327
			c2.738-0.759,5.489-1.755,8.358-1.8c2.547-0.095,0.179,3.055-0.693,3.812c-1.299,1.218-2.732,2.05-4.265,2.572
			c0.105,0.276,0.217,0.548,0.352,0.808c1.239,2.981,2.144,6.063,2.871,9.193C372.903,269.954,374.774,269.164,375.837,268.283z
			 M376.055,148.539c0.872-6.164,1.509-12.392,2.796-18.489c-2.787,3.229-5.723,6.326-8.757,9.324
			c-3.047,3.018-6.292,5.822-9.378,8.801c-0.797,0.76-1.573,1.54-2.342,2.33c-0.346,0.38-0.762,0.787-1.22,0.941
			c0.022,0.213,0.043,0.424,0.067,0.636c0.86,9.149,1.133,18.336,1.367,27.517c0.016,1.939,0.125,3.883,0.118,5.823
			c4.494-0.181,8.998,0.002,13.459,0.561c-0.168-1.341,0.105-2.715,0.176-4.062c0.142-1.564,0.312-3.124,0.471-4.686
			C373.733,167.651,374.844,158.09,376.055,148.539z M376.21,199.37c3.106-1.559,6.806-1.754,9.685-3.818
			c-6.257-2.713-13.116-3.594-19.85-4.264c-7.446-0.479-14.727,0.256-22.017,1.006c-6.583,0.669-13.248,1.76-19.298,4.548
			c3.844,0.812,7.759,1.118,11.661,1.497c0.857,0.163,2.297,0.214,3.465,0.527c1.569-1.584,3.428-2.907,5.465-3.781
			c4.096-1.548,8.546-2.156,12.905-1.739c4.879,0.47,9.521,2.23,13.921,4.312c1.259,0.599,2.501,1.247,3.709,1.95
			C375.964,199.519,376.082,199.439,376.21,199.37z M377.876,128.412c0.366-0.461,0.725-0.929,1.085-1.395
			c-6.113-7.838-12.505-15.446-19.178-22.817c-3.257-3.707-6.628-7.315-9.785-11.11c-0.571-0.735-1.211-1.474-1.754-2.263
			c-6.695,13.157-15.031,25.383-22.516,38.096c2.009,1.087,3.858,2.481,5.803,3.674c5.251,3.559,10.533,7.241,15.812,10.721
			c3.169,2.177,6.341,4.334,9.582,6.396c4.978-4.256,9.88-8.598,14.355-13.382C373.637,133.776,375.743,131.135,377.876,128.412z
			 M384.835,222.281c0.587-2.198,0.905-4.56,0.064-6.73c-0.645-2.161-2.074-3.903-3.693-5.425
			c-4.226-4.269-9.691-6.992-15.291-8.999c-4.625-1.723-9.648-2.58-14.54-1.603c-1.815,0.447-3.713,0.819-5.29,1.877
			c-2.031,1.418-3.775,2.885-4.33,5.426c-0.22,1.148-0.194,2.338,0,3.489c0.161,0.867,0.57,1.901,0.75,2.893
			c4.618-2.253,9.977-2.756,15.035-2.125c6.58,0.695,12.878,3.037,18.861,5.769C379.328,218.269,382.332,220.044,384.835,222.281z
			 M385.169,242.639c4.481-11.331-4.638-18.037-14.622-21.889c-6.677-2.602-13.983-4.896-21.196-3.531
			c-1.412,0.296-2.816,0.646-4.112,1.298c-1.122,0.59-2.127,1.369-3.102,2.176c-1.695,1.523-2.642,3.911-2.477,6.184
			c0.099,1.462,1.098,2.631,1.739,3.894c0.14,0.235,0.221,0.494,0.302,0.751c2.241-1.118,4.85-1.899,7.674-2.28
			C361.455,227.699,377.619,232.464,385.169,242.639z M389.439,190.671c2.345,1.148,3.808,3.544,2.746,6.121
			c-1.189,3.042-4.293,4.755-7.203,5.853c-1.07,0.387-2.16,0.779-3.268,1.08c0.908,0.776,1.774,1.598,2.592,2.473
			c2.972,2.958,4.803,5.989,5.131,10.251c0.175,1.963-0.368,3.911-1.288,5.633c-0.22,0.426-0.742,1.317-1.378,2.148
			c1.774,2.029,3.11,4.382,3.7,7.115c1.058,4.352-0.211,9.079-3.226,12.377c-0.241,0.242-0.51,0.533-0.802,0.823
			c2.207,3.699,3.319,8.021,2.83,12.934c-0.906,7.776-6.767,14.296-13.511,17.837c-0.985,0.512-2.065,1.21-3.18,1.455
			c0.422,2.352,0.8,4.711,1.199,7.058c0.519,3.159,1.043,6.319,1.528,9.484c0.837,3.953-0.581,7.297-5.138,6.739
			c-7.594-0.31-16.883,0.506-23.268-4.264c-2.366-2.464-1-6.216-1.043-9.257c0.005-0.069,0.009-0.139,0.014-0.208
			c-3.162,1.517-6.64,2.356-10.165,2.063c-8.82-0.405-15.948-6.154-20.216-13.596c-1.136,0.231-2.335,0.259-3.26,0.198
			c-3.963-0.502-8.01-1.879-11.237-4.306c0.021,0.131,0.042,0.262,0.062,0.391c1.322,6.328,2.454,12.799,2.237,19.241
			c0.181,6.969-1.3,13.953-4.101,20.391c-5.662,13.125-15.73,22.847-27.707,28.666c-0.068,0.284-0.134,0.533-0.181,0.715
			c-0.373,1.583-2.982,5.947-5.467,7.663c1.322,2.853,2.645,5.708,4.103,8.504c0.98,1.997,1.954,3.998,2.923,6
			c0.153,0.361,0.329,0.718,0.512,1.077c2.598-0.976,5.305-1.134,7.972-0.054c0.032,0.012,0.062,0.025,0.092,0.039
			c5.622-9.923,13.536-18.535,23.331-24.428c7.538-4.52,14.623-7.04,23.403-7.81c5.015-0.467,10.19,0.286,14.615,2.781
			c7.22,4.292,12.779,14.254,10.42,22.66c-0.02,0.05-0.04,0.101-0.058,0.151c-0.009,0.163-0.019,0.326-0.028,0.487
			c-0.389,6.48-2.088,12.826-4.801,18.715c-5.337,12.067-13.699,22.448-22.12,32.488c-7.38,8.532-15.927,16.228-25.939,21.536
			c-5.889,2.983-12.542,5.69-19.259,4.744c-6.648-0.851-11.275-5.537-13.873-11.484c-0.561-1.361-1.027-2.759-1.397-4.181
			c-1.72,2.781-4.803,4.163-7.678,5.464c-4.441,1.862-9.072,3.375-13.848,4.071c-6.287,0.882-12.657,1.21-19.001,1.026
			c-11.356-0.707-23.49-0.575-33.646-6.382c-7.32-4.047-12.756-10.823-16.504-18.192c-2.981-5.809-5.278-11.99-6.795-18.339
			c-0.682-3.22-1.358-6.484-1.322-9.789c0.117-4.984,1.257-9.937,3.316-14.473c2.611-6.494,7.29-12.116,13.414-15.563
			c3.396-1.897,6.806-2.963,10.33-3.081c-5.383-2.721-10.377-6.212-14.75-10.368c-2.529,0.549-5.249,0.174-7.722-0.541
			c-6.737-1.794-12.585-6.59-15.575-12.763c-0.031-0.004-0.064-0.008-0.097-0.013c-11.034-2.517-11.876-14.595-9.611-24.418
			c-0.22-0.076-0.43-0.204-0.616-0.34c-1.683-1.458-2.575-3.632-3.406-5.651c-1.939-5.121-2.328-10.789-2.037-16.196
			c0.347-4.976,1.703-9.894,3.469-14.54c4.004-9.062,10.451-17.212,18.98-22.378c3.039-1.912,6.459-3.449,10.015-4.102
			c-4.431-22.124-8.778-44.263-12.539-66.5c-0.543-3.137-1.05-6.28-1.537-9.425c-2.014-7.39-2.856-15.441-1.441-22.997
			c0.578-4.693,1.871-9.31,3.769-13.674c15.77-36.551,65.71-46.714,95.887-19.672c7.685,6.875,13.64,15.69,16.342,25.443
			c0.186,0.944,0.551,1.875,0.36,2.844c0.048,0.183,0.095,0.368,0.139,0.553c0.001,0,0.001,0.001,0.001,0.001
			c0.359,0.825,0.461,1.745,0.674,2.613c1.24,6.025,2.35,12.074,3.512,18.114c0.367,1.893,0.735,3.787,1.105,5.68
			c1.066,5.278,2.109,10.562,3.135,15.85c0.004,0.021,0.008,0.042,0.013,0.063c4.001,20.055,8.103,40.093,11.928,60.18
			c1.794,4.518,3.549,9.15,6.753,12.859c4.474,5.003,6.274,3.795,11.425,4.709c1.08-3.27,2.904-6.224,5.663-8.426
			c0.237-0.135,0.486-0.277,0.743-0.408c-3.16-7.164-3.848-15.355-1.984-22.954c0.798-3.314,1.685-6.731,3.802-9.474
			c1.452-1.838,3.08-3.65,5.096-4.866c-1.797-0.235-3.576-0.59-5.309-1.085c-2.323-0.887-3.37-3.909-1.813-5.936
			c2.529-3.442,8.587-4.365,12.512-5.642c1.294-0.384,2.594-0.747,3.9-1.09c-2.585-8.283-4.015-16.95-6.549-25.267
			c-2.689-10.971-6.409-21.697-8.668-32.762c-0.64-2.155,0.166-4.126,1.406-5.878c1.559-2.609,3.173-5.183,4.823-7.738
			c5.182-7.87,10.198-15.878,16.017-23.303c1.83-2.044,3.313-4.602,5.44-6.331c0.313-0.632,1.171-0.833,1.919-0.474
			c2.567,1.195,4.708,3.137,6.841,4.965c2.34,2.112,4.568,4.349,6.742,6.63c6.6,6.984,12.996,14.174,18.878,21.779
			c1.23,1.61,2.559,3.191,3.454,5.02c0.635,1.334-0.083,2.691-0.349,4.018c-2.126,12.534-3.49,25.194-4.94,37.822
			c-0.67,5.726-1.03,11.491-1.863,17.198c-0.058,0.694-0.259,1.348-0.534,1.975c1.77,0.342,3.528,0.745,5.275,1.211
			C384.98,188.756,387.295,189.547,389.439,190.671z"/>
		<path style="fill:#4C404F;" d="M250.459,300.638c0.294-9.675-0.655-19.352-1.704-28.959c-0.381-3.108-0.86-6.197-1.42-9.276
			c-0.173-1.676-2.009-8.957-2.17-13.336c-7.814-0.189-15.65,0.214-23.406,1.319c-9.609,1.224-19.151,2.976-28.66,4.808
			c-7.358,1.744-14.605,3.947-21.77,6.357c-1.082,0.376-2.161,0.76-3.242,1.138c-0.468,0.139-0.942,0.327-1.422,0.488
			c1.05,2.135,1.764,5.551,2.198,6.966c1.585,6.056,3.103,12.127,4.771,18.16c3.75,13.372,8.004,27.815,18.932,37.155
			c7.471,6.234,16.9,9.471,26.275,11.58c2.78,0.663,5.597,1.176,8.377,1.826c0.676,0.209,1.402,0.253,2.071,0.453
			c0.804-0.793,1.727-1.297,2.53-2.113c7.358-7.321,13.383-16.21,16.808-26.044C249.735,307.756,250.303,304.211,250.459,300.638z
			 M252.487,263.213c2.279,12.142,4.359,24.511,3.879,36.904c-0.345,7.979-2.714,15.771-6.537,22.763
			c-2.233,4.236-4.833,8.305-7.901,11.987c-2.181,2.659-4.562,5.191-7.392,7.169c-1.476,1.103-3.435,2.385-4.98,1.245
			c-0.475,0.138-0.964,0.15-1.461,0.104c-9.563-0.925-19.011-3.464-27.78-7.396c-7.251-3.237-13.791-8.257-18.297-14.839
			c-8.199-11.908-11.727-26.247-15.249-40.077c-1.143-4.561-2.116-9.161-2.889-13.799c-0.11-1.01-0.655-3.136-0.445-4.54
			c-0.243-0.437-0.279-0.988-0.011-1.448c0.763-1.219,2.332-1.58,3.586-2.103c6.177-2.285,12.579-3.866,18.915-5.638
			c7.694-2.205,15.576-3.656,23.435-5.131c11.684-2.109,23.548-4.074,35.459-3.465c0.645,0.036,1.286,0.071,1.894,0.308
			c0.969,0.389,1.356,1.335,1.215,2.194C249.951,251.504,252.028,261.284,252.487,263.213z"/>
		<path style="fill:#4C404F;" d="M239.072,288.534c-0.521-3.496-1.441-6.921-2.173-10.377c-6.302,1.477-12.641,2.748-18.986,3.976
			c-0.155-0.807-0.306-1.616-0.495-2.416c0-0.001-0.001-0.004-0.001-0.005c-0.016-0.069-0.033-0.138-0.049-0.207
			c-0.008-0.036-0.016-0.072-0.027-0.108c-0.014-0.057-0.028-0.113-0.043-0.171c-0.022-0.084-0.044-0.167-0.067-0.251
			c-0.022-0.082-0.044-0.165-0.068-0.246c0-0.002-0.001-0.005-0.002-0.007c-0.007-0.029-0.016-0.058-0.025-0.088
			c-0.135-0.469-0.286-0.934-0.462-1.39c-0.078-0.201-0.153-0.406-0.241-0.606c-0.168-0.634-0.319-1.275-0.461-1.924
			c-0.951-4.02-1.89-8.041-2.817-12.065c-3.524,0.778-7.042,1.578-10.57,2.33c0.519,2.268,1.093,4.525,1.451,6.826
			c0.312,1.759,0.562,3.532,0.993,5.269c0.26,1.378,0.667,2.74,0.974,4.109c0.013-0.003,0.026-0.006,0.039-0.009
			c0.022,0.141,0.043,0.283,0.064,0.424c0.133,0.909,0.235,1.827,0.408,2.728c-6.426,1.249-12.839,2.554-19.21,4.083
			c0.139,0.527,0.276,1.055,0.403,1.585c0.252,1.048,0.501,2.096,0.742,3.148c0.432,1.897,0.842,3.799,1.267,5.7
			c6.41-1.357,12.844-2.753,19.284-4.134c0.074,0.392,0.154,0.784,0.237,1.175c0.038,0.264,0.078,0.528,0.118,0.792
			c0.095,0.632,0.213,1.266,0.35,1.892c0,0.001,0,0.002,0.001,0.004c0.036,0.168,0.075,0.336,0.116,0.503
			c0.097,0.404,0.195,0.809,0.327,1.204c0.048,0.147,0.092,0.301,0.147,0.448c0.181,0.865,0.307,1.542,0.464,2.399
			c0.995,3.753,1.955,7.538,2.54,11.379c3.596-0.667,7.15-1.551,10.737-2.267c-0.661-3.594-1.505-7.081-2.264-10.648
			c-0.231-1.078-0.489-2.161-0.669-3.249c0.055-0.291,0.014-0.604-0.023-0.893c-0.046-0.349-0.11-0.695-0.176-1.039
			c-0.008-0.036-0.015-0.074-0.022-0.111c-0.001-0.018-0.001-0.034-0.001-0.051c-0.003,0.001-0.006,0.001-0.009,0.002
			c-0.132-0.68-0.269-1.359-0.395-2.04c-0.118-0.621-0.217-1.247-0.309-1.873C226.474,291.01,232.782,289.727,239.072,288.534z
			 M242.74,288.707c0.203,0.752,0.342,1.612-0.21,2.258c-0.398,0.506-1.006,0.714-1.611,0.853c-0.968,0.221-1.934,0.452-2.901,0.678
			c-2.174,0.509-4.351,1.001-6.53,1.481c-2.705,0.574-5.409,1.152-8.113,1.731c0.964,2.305,1.268,4.857,1.848,7.288
			c0.561,2.599,1.101,5.201,1.704,7.789c0.376,1.435,1.236,3.758-0.794,4.303c-2.997,0.674-6,1.32-9,1.976
			c-0.861,0.187-1.726,0.361-2.581,0.577c-0.753,0.138-1.605,0.496-2.398,0.496c-0.417,0.001-0.816-0.098-1.177-0.382
			c-0.863-0.649-0.753-1.823-1.121-2.739c-0.771-2.724-1.271-5.522-1.815-8.298c-0.253-1.212-0.371-2.449-0.694-3.645
			c-0.231-0.927-0.439-1.859-0.631-2.797c-0.092-0.315-0.14-0.654-0.115-0.981c-6.091,1.286-12.185,2.544-18.286,3.732
			c-2.251-0.089-2.162-2.739-2.568-4.373c-0.421-2.077-0.852-4.151-1.19-5.988c-0.294-1.529-0.559-3.019-0.784-4.553
			c-0.36-1.052,0.083-2.19,1.187-2.529c5.934-1.274,11.91-2.374,17.84-3.677c-0.068-0.422-0.122-0.841-0.219-1.231
			c-0.336-1.713-0.687-3.424-1.066-5.128c-0.851-2.961-1.563-5.957-2.134-8.983c-0.151-1.12-0.764-2.268-0.469-3.405
			c0.265-1.041,1.322-1.341,2.258-1.493c1.846-0.413,3.7-0.787,5.55-1.183c1.671-0.358,3.343-0.712,5.013-1.068
			c0.954-0.151,1.9-0.549,2.87-0.478c1.495,0.228,1.689,1.705,1.914,2.939c0.482,2.418,0.981,4.832,1.448,7.253
			c0.524,2.947,1.314,5.877,1.628,8.852c5.508-1.247,11.029-2.435,16.573-3.492c1.102-0.161,2.422-0.728,3.32,0.217
			c0.453,0.401,0.514,1.148,0.61,1.667c0.002,0.013,0.005,0.027,0.007,0.038c0,0.001,0.001,0.005,0.001,0.007
			c0,0.001,0,0.001,0.001,0.002c0.586,3.09,1.235,6.17,1.877,9.248C242.166,286.7,242.524,287.685,242.74,288.707z"/>
		<path style="fill:#1A9DBE;" d="M262.701,406.932c0.109,1.139,0.327,2.273,0.212,3.424c-0.138,3.543-2.025,6.272-5.271,7.666
			c-12.338,6.19-26.602,6.031-40.061,5.117c-8.874-0.632-18.136-1.397-25.585-6.762c-8.246-5.87-12.852-15.406-16.076-24.739
			c-1.473-4.25-2.516-8.716-2.964-13.205c-0.169-2.476,0.221-4.946,0.659-7.376c0.67-3.078,1.906-5.979,3.259-8.811
			c0.938-1.761,1.97-3.478,3.296-4.979c3.539-4.019,8.393-7.286,13.814-7.854c3.239-0.231,6.444,0.292,9.569,1.112
			c0.203,0.036,0.413,0.089,0.628,0.145c-1.974,2.185-3.437,4.887-3.883,7.796c-0.335,2.212-0.138,4.467,0.065,6.683
			c0.126,0.883,0.112,1.848,0.459,2.67c0.228,0.294,0.651,0.375,0.968,0.189c0.35-0.206,0.473-0.67,0.268-1.022
			c-0.04-0.277,0-0.561,0.007-0.84c0.472-3.779,1.981-7.455,4.491-10.337c0.918-1.044,1.854-2.081,3.019-2.858
			c1.159-0.856,2.52-1.369,3.691-2.202c0.12-0.079,0.246-0.152,0.375-0.215c3.249,0.762,6.536,1.356,9.849,1.739
			c-2.579,0.723-5.188,1.565-6.886,3.743c-1.21,1.716-2.046,3.858-1.816,5.986c0.73,4.755,5.209,8.266,9.88,8.65
			c1.656,0.235,3.319,0.124,4.942-0.216c-1.781,5.578-6.579,7.362-12.873,7.044c-4.353-0.46-10.262-1.521-13.079-5.149
			c0.05-0.611-0.646-1.09-1.208-0.835c-0.513,0.206-0.7,0.904-0.35,1.334c0.138,0.951,0.318,1.906,0.745,2.776
			c1.903,3.938,6.209,5.974,10.324,6.974c-3.63,1.654-6.864,4.103-9.534,7.061c-0.482,0.512-0.919,1.06-1.335,1.628
			c-0.227,0.217-0.23,0.592-0.008,0.815c0.215,0.214,0.57,0.22,0.791,0.016c0.318-0.199,0.654-0.367,0.98-0.551
			c1.396-0.783,2.867-1.411,4.337-2.034c6.114-2.434,12.575-4.075,19.139-4.632c7.643-0.387,15.785,0.499,22.233,4.945
			c1.703,1.072,2.977,2.615,4.55,3.779c0.312,0.189,0.666,0.31,0.973,0.499C255.577,399.59,257.628,404.734,262.701,406.932z"/>
		<path style="fill:#1A9DBE;" d="M340.507,339.462c1.057,0.767,2.004,1.636,2.85,2.586c-2.234-0.648-4.61-0.897-6.876-0.855
			c-10.006,0.185-19.583,4.509-27.387,10.594c-7.6,6.156-14.166,13.536-19.365,21.822c-5.142,8.226-9.758,16.899-12.317,26.302
			c-2.165,8.185-4.125,19.932,0.487,27.504c-5.795-3.885-7.589-11.573-7.665-18.172c0.065-6.565,1.595-13.014,4.042-19.087
			c0.287-0.703,0.679-1.455,0.701-2.231c-0.107-1.275-1.689-0.786-2.335-0.221c-1.217,1.103-2.024,2.581-2.912,3.945
			c-2.186,3.492-3.527,7.432-4.278,11.469c-2.447-1.014-3.475-3.948-4.07-6.383c-1.648-10.34,3.929-21.233,12.481-26.984
			c2.436-1.671,3.882-1.716,5.064-1.598c-1.999,4.217-3.604,8.618-4.786,13.104c0.008-0.026,0.016-0.05,0.026-0.075
			c0.008-0.014,0.015-0.028,0.023-0.041c-0.168,0.347-0.018,0.786,0.385,0.898c0.304,0.088,0.64-0.09,0.752-0.38
			c0.673-1.267,1.468-2.461,2.188-3.7c2.241-3.899,4.556-7.756,7.08-11.48c3.83-5.331,7.788-10.663,12.734-15.019
			c6.455-5.763,14.047-10.401,22.372-12.868C326.454,336.931,334.275,335.518,340.507,339.462z"/>
		<path style="fill:#1A9DBE;" d="M297.659,288.558c0.047,3.166-0.105,6.328-0.382,9.48c-3.451,15.647-13.806,29.329-29.048,36.568
			c-2.427,1.161-4.904,2.129-7.412,2.911c-0.711-1.301-1.459-2.585-2.254-3.845c-0.668-0.969-1.392-1.966-2.3-2.722
			c4.374-6.848,7.697-14.368,8.999-22.448c1.839-11.334,0.012-22.785-1.958-33.977c-1.684-9.321-3.705-18.58-5.583-27.863
			c-0.527-2.362-0.981-4.754-1.79-7.039c-0.269-0.939-0.905-1.831-1.67-2.289c-0.74-0.988-2.398-0.995-3.652-1.09
			c-20.718-1.885-41.486,2.218-61.684,7.402c0.006-0.044,0.009-0.09,0.014-0.134c0.259-3.299-1.166-6.135-3.431-8.153
			c0.928-1.062,1.906-2.081,2.929-3.054c1.564-1.459,3.211-2.821,4.932-4.089c2.146-1.545,4.388-2.937,6.703-4.216
			c2.912-1.574,5.925-2.931,9.007-4.137c3.649-1.396,7.374-2.565,11.17-3.491c0.054-0.013,0.106-0.026,0.16-0.039
			c4.221-0.995,8.499-1.705,12.811-2.161c1.421-0.144,2.845-0.258,4.27-0.343c2.941-0.178,5.888-0.227,8.833-0.152
			c0.172,0.004,0.343,0.008,0.515,0.014c4.161,0.146,8.304,0.554,12.414,1.234c0.745,0.13,1.489,0.268,2.231,0.416
			c1.037,0.324,2.07,0.658,3.1,1.001c5.194,1.695,10.325,3.597,15.367,5.698c1.763,0.728,3.457,1.601,5.204,2.363
			c0.445,0.179,0.959,0.397,1.479,0.542c0.166,0.819,0.332,1.637,0.499,2.456c1.475,7.595,2.985,15.182,4.545,22.756
			c1.629,8.43,3.299,16.852,5.112,25.248C297.267,279.771,297.592,284.151,297.659,288.558z"/>
		<path style="fill:#EFFAFC;" d="M229.532,172.177c0.173-1.13,0.171-2.272,0.137-3.412c-0.09-2.982-0.711-5.927-1.612-8.766
			c-0.245-0.771-0.515-1.536-0.805-2.29c-0.252-0.656-0.536-1.315-0.91-1.912c-0.336-0.534-0.708-1.031-1.133-1.499
			c-0.409-0.449-0.875-0.82-1.379-1.154c-0.563-0.374-1.225-0.611-1.89-0.718c-0.718-0.116-1.445-0.005-2.121,0.246
			c-1.052,0.391-1.904,1.277-2.424,2.253c-0.613,1.153-0.94,2.425-1.105,3.715c-0.284,2.223-0.154,4.486,0.039,6.711
			c0.196,2.272,0.71,4.504,1.491,6.643c0.307,0.844,0.703,1.65,1.127,2.442c0.505,0.944,1.083,1.838,1.781,2.65
			c0.767,0.85,1.694,1.611,2.835,1.873c0.301,0.07,0.599,0.104,0.896,0.104c0.46,0,0.916-0.083,1.367-0.243
			c0.562-0.199,1.051-0.562,1.48-0.968c0.703-0.664,1.197-1.56,1.535-2.457c0.305-0.812,0.514-1.662,0.611-2.524
			c0.018-0.153,0.032-0.307,0.043-0.461C229.507,172.333,229.52,172.255,229.532,172.177z M248.223,170.471
			c0.173-1.129,0.171-2.272,0.137-3.412c-0.09-2.982-0.711-5.927-1.612-8.765c-0.245-0.771-0.515-1.536-0.805-2.29
			c-0.252-0.656-0.536-1.315-0.91-1.912c-0.336-0.534-0.708-1.031-1.133-1.498c-0.409-0.449-0.875-0.82-1.379-1.154
			c-0.563-0.374-1.225-0.611-1.89-0.718c-0.718-0.116-1.445-0.005-2.121,0.246c-1.052,0.391-1.904,1.277-2.424,2.253
			c-0.613,1.153-0.94,2.425-1.105,3.715c-0.284,2.223-0.154,4.486,0.038,6.711c0.196,2.272,0.71,4.504,1.492,6.643
			c0.307,0.844,0.703,1.65,1.127,2.442c0.505,0.944,1.083,1.838,1.781,2.65c0.767,0.85,1.693,1.611,2.835,1.873
			c0.301,0.07,0.599,0.104,0.896,0.104c0.46,0,0.916-0.083,1.367-0.243c0.562-0.199,1.051-0.562,1.48-0.968
			c0.703-0.665,1.197-1.56,1.535-2.457c0.305-0.812,0.514-1.662,0.611-2.524c0.018-0.153,0.032-0.307,0.043-0.461
			C248.198,170.627,248.211,170.549,248.223,170.471z M261.529,172.075c1.665,0,2.468-0.953,2.422-1.906
			c-0.049-0.992-1.017-1.983-2.892-1.9c-1.002,0.008-2.002,0.036-2.977,0.241c-0.896,0.107-6.414,1.951-3.039,2.254
			c0.656,0.097,1.289,0.262,1.919,0.438c-0.007,0.013-0.014,0.024-0.021,0.037c-0.418,0.763-0.967,1.629-1.577,2.46
			c-0.567,0.753-1.184,1.48-1.848,2.175c-0.624,0.636-1.286,1.246-1.993,1.82c-0.918,0.725-1.901,1.393-2.913,2.022
			c-1.274,0.775-2.602,1.48-3.977,2.121c-1.479,0.669-3.003,1.264-4.569,1.773c-1.472,0.465-2.972,0.859-4.501,1.168
			c-1.68,0.32-3.374,0.55-5.088,0.698c-2.003,0.149-4.012,0.232-6.022,0.175c-1.45-0.055-2.891-0.172-4.321-0.371
			c-0.969-0.152-1.926-0.346-2.87-0.585c-0.93-0.253-1.838-0.551-2.731-0.89c-0.959-0.381-1.89-0.8-2.792-1.271
			c-0.735-0.398-1.439-0.828-2.117-1.29c-0.649-0.461-1.287-0.933-1.877-1.448c-0.227-0.213-0.446-0.429-0.656-0.65
			c0.347-0.218,0.689-0.439,1.034-0.656c1.398-0.885,3.934-2.52,1.004-3.365c-2.016-0.507-4.187,0.076-6.02,0.82
			c-1.757,0.611-3.031,2.161-1.908,3.697c0.512,0.689,1.395,1.056,2.294,1.056c0.362,0,0.727-0.06,1.071-0.182
			c0.085,0.153,0.174,0.304,0.268,0.453c0.227,0.652,0.418,1.315,0.64,1.966c0.339,0.988,0.701,1.973,1.113,2.941
			c1.008,2.372,2.314,4.654,3.896,6.788c1.497,2.018,3.252,3.929,5.258,5.603c2.047,1.708,4.401,3.123,7.015,4.136
			c2.413,0.936,5.048,1.459,7.705,1.459c0.21,0,0.42-0.003,0.631-0.009c3.011-0.096,6.015-0.701,8.719-1.836
			c1.169-0.492,2.302-1.051,3.364-1.694c1.216-0.736,2.337-1.555,3.407-2.438c2.164-1.783,3.979-3.879,5.545-6.059
			c1.375-1.917,2.497-3.938,3.548-5.994c0.795-1.556,1.604-3.106,2.293-4.699c0.606-1.399,1.153-2.816,1.591-4.261
			c0.373-1.226,0.706-2.457,0.948-3.707c0.076-0.389,0.135-0.778,0.173-1.17c0.128,0.02,0.256,0.04,0.384,0.061
			C261.224,172.067,261.38,172.075,261.529,172.075z M285.475,219.222c-1.37-0.795-2.743-1.42-3.466-1.757
			c-1.19-0.521-2.381-1.042-3.582-1.542c-0.467-0.221-0.937-0.434-1.407-0.646c-1.301-0.583-2.621-1.129-3.958-1.626
			c-2.591-0.961-5.229-1.783-7.905-2.471c-2.687-0.691-5.411-1.223-7.817-1.628c-5.966-1.007-12.03-1.479-18.08-1.385
			c-2.078,0.032-4.153,0.13-6.224,0.293c-0.134,0.001-0.266,0.012-0.397,0.031c-3.866,0.321-7.71,0.871-11.512,1.657
			c-0.725,0.15-1.447,0.313-2.168,0.48c-0.251,0.058-0.502,0.119-0.753,0.179c-0.246,0.054-0.493,0.119-0.742,0.182
			c-0.389,0.097-0.777,0.195-1.164,0.297c-2.824,0.743-5.614,1.619-8.344,2.656c-5.451,2.07-10.669,4.741-15.484,8.037
			c-4.379,2.997-8.465,6.555-11.821,10.686c-0.598-0.181-1.209-0.321-1.827-0.416c-1.918-9.632-3.854-19.261-5.811-28.887
			c-1.497-7.713-3.03-15.418-4.613-23.11c-1.647-8.519-3.336-17.029-5.171-25.511c-0.654-5.903-1.221-11.815-1.206-17.744
			c2.318-17.504,13.151-33.161,29.845-41.092c25.807-12.35,57.323-2.887,71.18,20.999c0.923,2.065,1.792,4.146,2.533,6.26
			c1.078,3.145,2.003,6.338,2.951,9.523c0.479,2.69,0.98,5.376,1.483,8.061C275.053,166.927,280.196,193.087,285.475,219.222z"/>
		<path style="fill:#EFFAFC;" d="M158.152,288.509c0.166,0.583,0.333,1.166,0.499,1.75c-0.834,1.451-1.509,3.011-1.806,3.632
			c-2.137,5.188-3.051,10.704-3.002,16.379c-0.028,0.809-0.006,1.611,0.062,2.402c-0.355-0.383-0.686-0.788-0.99-1.218
			c-3.321-5.973-1.555-13.322,0.208-19.532c0.902-2.937,2.246-5.698,3.808-8.333C157.327,285.232,157.732,286.873,158.152,288.509z"
			/>
		<path style="fill:#EFFAFC;" d="M171.934,324.531c0.561,0.898,1.148,1.776,1.767,2.63c-4.425-1.243-8.436-3.542-11.231-7.53
			c-4.499-6.713-3.001-15.464-1.989-23.021C163.339,306.302,166.604,315.93,171.934,324.531z"/>
		<path style="fill:#EFFAFC;" d="M347.905,262.3c0.002,0.134,0.005,0.267,0.007,0.402c-0.383,3.811-0.749,7.622-1.084,11.435
			c-3.824-0.418-7.739-1.375-10.647-4.038c-4.956-4.504-7.422-11.001-8.716-17.431c-0.251-0.918-0.382-1.869-0.508-2.819
			c0.043,0.026,0.086,0.049,0.131,0.072c1.627,0.808,3.33,1.628,5.173,1.717c0.904,0.055,1.813-0.146,2.672-0.409
			c0.523-0.161,1.083-0.318,1.598-0.55c0.18,0.278,0.369,0.556,0.568,0.836c2.723,3.82,6.437,6.933,10.827,8.59
			C347.873,260.837,347.909,261.583,347.905,262.3z"/>
		<path style="fill:#EFFAFC;" d="M336.817,213.831c0.22,1.048,0.364,2.111,0.559,3.163c-0.411,0.433-0.794,0.894-1.141,1.383
			c-1.439,2.202-2.422,4.811-2.343,7.467c0.043,2.881,1.421,6.509,3.813,8.386c-3.276,3.013-4.763,7.144-3.331,11.918
			c-0.561,0.072-1.121,0.115-1.686,0.013c-1.662-0.558-3.271-1.402-4.646-2.497c-2.643-2.183-4.125-5.343-5.201-8.529
			c-1.697-5.048-1.739-10.542-0.771-15.744c0.976-4.826,1.829-7.855,5.596-11.284c1.524-1.489,3.802-1.738,5.825-1.404
			c0.213,0.04,0.423,0.096,0.631,0.16C335.34,209.046,336.307,211.377,336.817,213.831z"/>
		<path style="fill:#EFFAFC;" d="M374.77,241.087c10.948,7.115,11.723,19.361,1.068,27.196c-1.063,0.882-2.934,1.671-4.451,2.568
			c-0.727-3.13-1.632-6.212-2.871-9.193c-0.134-0.26-0.246-0.533-0.352-0.808c1.534-0.522,2.967-1.354,4.265-2.572
			c0.871-0.757,3.24-3.907,0.693-3.812c-2.868,0.044-5.62,1.041-8.358,1.8c-0.356,0.097-0.708,0.21-1.058,0.327
			c-1.927,0.174-3.854,0.429-5.794,0.266c-4.514-0.503-9.236-1.885-12.707-4.92c-2.948-2.871-6.698-7.129-4.959-11.524
			C346.568,231.063,366.997,235.216,374.77,241.087z"/>
		<path style="fill:#EFFAFC;" d="M370.548,220.751c9.984,3.852,19.103,10.557,14.622,21.889
			c-7.55-10.175-23.714-14.94-35.793-13.396c-2.824,0.381-5.433,1.162-7.674,2.28c-0.082-0.257-0.162-0.516-0.302-0.751
			c-0.641-1.263-1.64-2.432-1.739-3.894c-0.165-2.273,0.783-4.661,2.477-6.184c0.975-0.807,1.98-1.586,3.102-2.176
			c1.296-0.652,2.7-1.002,4.112-1.298C356.565,215.855,363.87,218.148,370.548,220.751z"/>
		<path style="fill:#EFFAFC;" d="M384.899,215.551c0.841,2.17,0.523,4.532-0.064,6.73c-2.503-2.237-5.507-4.012-8.433-5.427
			c-5.983-2.732-12.281-5.074-18.861-5.769c-5.058-0.632-10.417-0.128-15.035,2.125c-0.18-0.992-0.589-2.026-0.75-2.893
			c-0.194-1.15-0.22-2.341,0-3.489c0.555-2.541,2.299-4.008,4.33-5.426c1.577-1.058,3.475-1.43,5.29-1.877
			c4.891-0.977,9.915-0.12,14.54,1.603c5.6,2.007,11.065,4.73,15.291,8.999C382.825,211.648,384.255,213.39,384.899,215.551z"/>
		<path style="fill:#EFFAFC;" d="M345.726,279.707c-0.215,0.112-0.429,0.228-0.642,0.338c-2.999,1.66-6.288,2.766-9.754,2.338
			c-9.634-1.018-16.094-10.199-17.88-19.136c-0.001-0.003-0.001-0.007-0.002-0.01c-1.569-6.585-0.653-13.762,3.006-19.468
			c0.822,1.249,1.783,2.405,2.868,3.428c-0.162,0.377-0.273,0.746-0.316,1.036c-0.82,3.561-0.409,7.276,0.384,10.805
			c2.113,9.498,9.094,18.964,19.219,20.455C343.562,279.565,344.647,279.692,345.726,279.707z"/>
		<path style="fill:#FFFFFF;" d="M183.561,243.684c0.019,0.457-0.01,0.91,0.01,1.363c-3.384,0.898-6.75,1.815-10.095,2.727
			c-1.782,0.759-15.785,4.452-18.432,7.561c-1.531-0.423-3.24,0.722-3.371,2.363c-0.069,1.114,0.267,2.228,0.42,3.33
			c0.512,2.939,0.994,5.882,1.665,8.789c0.626,2.781,1.25,5.562,1.891,8.338c-3.318,2.821-6.627,8.636-7.414,11.121
			c-0.349,0.856-0.683,1.767-0.992,2.72c-0.089-0.371-0.179-0.744-0.265-1.117c-0.858-3.939-1.523-7.947-1.492-11.99
			c-0.124-5.561,0.938-11.035,2.663-16.305c1.079-3.192,2.793-6.128,4.595-8.959c2.706-4.053,6.027-7.739,10.009-10.571
			c4.82-3.354,11.396-7.029,17.315-4.52C182.161,239.496,183.284,241.457,183.561,243.684z"/>
		<path style="fill:#FFFFFF;" d="M311.489,263.516c0.3,1.886,0.779,3.774,1.424,5.619c-4.785-0.487-9.158-2.136-13-4.958
			c-0.856-5.057-1.744-10.11-2.656-15.158c1.347,1.49,2.838,2.861,4.584,3.851c2.287,1.185,4.889,1.642,7.442,1.771
			c0.583,0.024,1.175,0.006,1.759-0.069C310.755,257.591,310.946,260.668,311.489,263.516z"/>
		<path style="fill:#EFFAFC;" d="M346.901,351.862c0.36,1.536,0.339,3.134,0.28,4.703c-0.272,4.109-1.069,8.164-2.379,12.068
			c-3.82,10.686-10.359,20.105-17.429,28.885c-6.875,8.749-14.45,17.129-23.742,23.366c-4.555,3.086-9.471,5.736-14.801,7.191
			c-8.096,0.408-8.139-9.546-7.832-15.368c0.938-14.012,7.662-26.728,15.256-38.251c4.109-6.232,9.08-11.842,14.654-16.8
			c2.784-2.494,5.935-4.522,9.243-6.25c6.56-3.246,19.574-6.984,25.573-1.358C346.18,350.608,346.661,351.172,346.901,351.862z"/>
		<path style="fill:#D9DEDF;" d="M378.961,127.017c-0.36,0.466-0.719,0.933-1.085,1.395c-2.134,2.724-4.24,5.364-6.595,7.92
			c-4.476,4.784-9.378,9.126-14.355,13.382c-3.241-2.061-6.413-4.219-9.582-6.396c-5.279-3.479-10.561-7.162-15.812-10.721
			c-1.946-1.194-3.795-2.587-5.803-3.674c7.484-12.713,15.821-24.939,22.516-38.096c0.543,0.789,1.183,1.529,1.754,2.263
			c3.157,3.795,6.528,7.402,9.785,11.11C366.456,111.571,372.848,119.179,378.961,127.017z"/>
		<path style="fill:#D9DEDF;" d="M356.664,167.226c0.251,6.086,0.241,12.189,0.529,18.271c-2.537,0.147-5.069,0.41-7.586,0.786
			c-3.287,0.415-6.549,0.978-9.78,1.676c-0.39-3.484-1.3-6.941-1.939-10.382c-3.493-15.972-8.907-31.483-12.397-47.438
			c3.15,2.256,6.47,4.258,9.684,6.419c7.032,4.776,14.068,9.56,20.859,14.667c0.056,0.044,0.112,0.083,0.167,0.116
			c0.004,0.097,0.005,0.193,0,0.286c0.013,0.558,0.03,1.117,0.049,1.675C356.414,157.943,356.508,162.586,356.664,167.226z"/>
		<path style="fill:#D9DEDF;" d="M378.85,130.05c-1.287,6.097-1.924,12.324-2.796,18.489c-1.21,9.551-2.322,19.112-3.243,28.696
			c-0.159,1.562-0.328,3.122-0.471,4.686c-0.071,1.347-0.345,2.721-0.176,4.062c-4.462-0.558-8.965-0.742-13.459-0.561
			c0.007-1.94-0.102-3.885-0.118-5.823c-0.234-9.181-0.507-18.368-1.367-27.517c-0.023-0.212-0.044-0.424-0.067-0.636
			c0.459-0.154,0.875-0.562,1.22-0.941c0.768-0.79,1.545-1.57,2.342-2.33c3.086-2.978,6.33-5.783,9.378-8.801
			C373.128,136.376,376.064,133.28,378.85,130.05z"/>
		<path style="fill:#7C737E;" d="M364.054,262.84c0.801,3.672,1.27,7.419,1.984,11.108c-4.515-0.327-9.134,0.245-13.294,2.06
			c-0.167,0.096-0.363,0.181-0.557,0.273c0.098-2.656,0.166-5.311,0.176-7.968c-0.058-1.254-0.056-2.565-0.131-3.868
			c1.817-0.169,3.629-0.48,5.446-0.624c1.451-0.15,2.909-0.325,4.342-0.6C362.681,263.077,363.385,263.002,364.054,262.84z"/>
		<path style="fill:#7C737E;" d="M366.904,278.521c0.876,4.345,1.859,8.621,2.617,13.061c-2.269-1.508-4.608-2.946-7.259-3.62
			c-3.115-0.861-7.529-1.352-10.643,0.118c0.179-3.396,0.364-6.793,0.505-10.191c0.357,0.009,0.752-0.049,1.029-0.044
			C357.753,277.592,362.316,278.194,366.904,278.521z"/>
		<path style="fill:#7C737E;" d="M369.863,293.712c0.033,0.213,0.064,0.427,0.095,0.641c-6.183-0.168-12.767,0.405-18.548-2.166
			c0.009-0.182,0.018-0.364,0.027-0.545c0.374-0.158,0.722-0.324,0.997-0.421c2.451-1.035,5.034-2.077,7.743-1.877
			C363.862,289.516,367.207,291.219,369.863,293.712z"/>
		<path style="fill:#7CAAB5;" d="M242.53,290.964c0.552-0.646,0.413-1.505,0.21-2.258c-0.216-1.022-0.575-2.007-0.758-3.037
			c-0.642-3.078-1.291-6.158-1.877-9.248c-0.001-0.001-0.001-0.001-0.001-0.002c0-0.002-0.001-0.006-0.001-0.007
			c-0.001-0.007-0.002-0.014-0.003-0.021c-0.001-0.006-0.002-0.01-0.003-0.016v-0.001c-0.096-0.519-0.157-1.266-0.61-1.667
			c-0.898-0.945-2.218-0.378-3.32-0.217c-5.544,1.057-11.065,2.245-16.573,3.492c-0.314-2.975-1.104-5.905-1.628-8.852
			c-0.467-2.421-0.966-4.835-1.448-7.253c-0.225-1.233-0.419-2.711-1.914-2.939c-0.969-0.071-1.915,0.327-2.87,0.478
			c-1.67,0.355-3.341,0.709-5.013,1.068c-1.85,0.396-3.704,0.77-5.55,1.183c-0.936,0.152-1.993,0.452-2.258,1.493
			c-0.294,1.136,0.319,2.284,0.469,3.405c0.571,3.026,1.282,6.022,2.134,8.983c0.38,1.704,0.73,3.415,1.066,5.128
			c0.097,0.39,0.151,0.809,0.219,1.231c-5.931,1.302-11.906,2.402-17.84,3.677c-1.104,0.339-1.546,1.476-1.187,2.529
			c0.224,1.534,0.489,3.024,0.784,4.553c0.339,1.837,0.77,3.911,1.19,5.988c0.406,1.634,0.318,4.284,2.568,4.373
			c6.101-1.188,12.196-2.446,18.286-3.732c-0.026,0.327,0.022,0.666,0.115,0.981c0.191,0.938,0.399,1.87,0.631,2.797
			c0.322,1.196,0.44,2.433,0.694,3.645c0.544,2.776,1.044,5.575,1.815,8.298c0.368,0.916,0.258,2.09,1.121,2.739
			c0.361,0.284,0.76,0.383,1.177,0.382c0.793,0,1.645-0.359,2.398-0.496c0.855-0.216,1.72-0.39,2.581-0.577
			c3.001-0.656,6.003-1.302,9-1.976c2.03-0.544,1.17-2.867,0.794-4.303c-0.603-2.588-1.143-5.19-1.704-7.789
			c-0.579-2.431-0.884-4.983-1.848-7.288c2.704-0.579,5.408-1.157,8.113-1.731c2.179-0.48,4.356-0.972,6.53-1.481
			c0.967-0.227,1.933-0.458,2.901-0.678C241.524,291.678,242.132,291.47,242.53,290.964z M248.755,271.679
			c1.049,9.608,1.998,19.284,1.704,28.959c-0.156,3.573-0.724,7.117-1.834,10.522c-3.424,9.834-9.45,18.723-16.808,26.044
			c-0.802,0.816-1.726,1.32-2.53,2.113c-0.669-0.2-1.395-0.244-2.071-0.453c-2.78-0.649-5.597-1.162-8.377-1.826
			c-9.375-2.109-18.804-5.346-26.275-11.58c-10.928-9.34-15.182-23.783-18.932-37.155c-1.668-6.034-3.186-12.105-4.771-18.16
			c-0.434-1.414-1.148-4.831-2.198-6.966c0.48-0.161,0.954-0.349,1.422-0.488c1.082-0.377,2.161-0.762,3.242-1.138
			c7.165-2.411,14.412-4.613,21.77-6.357c9.509-1.832,19.051-3.584,28.66-4.808c7.755-1.105,15.592-1.508,23.406-1.319
			c0.161,4.379,1.997,11.66,2.17,13.336C247.896,265.482,248.374,268.571,248.755,271.679z"/>
		<path style="fill:#61DB59;" d="M256.366,300.116c0.48-12.393-1.6-24.762-3.879-36.904c-0.459-1.928-2.536-11.709-4.56-15.761
			c0.141-0.86-0.245-1.806-1.215-2.194c-0.608-0.237-1.25-0.272-1.894-0.308c-11.911-0.608-23.775,1.356-35.459,3.465
			c-7.859,1.475-15.74,2.926-23.435,5.131c-6.336,1.772-12.738,3.353-18.915,5.638c-1.253,0.523-2.823,0.884-3.586,2.103
			c-0.269,0.46-0.232,1.011,0.011,1.448c-0.21,1.404,0.335,3.53,0.445,4.54c0.773,4.638,1.746,9.238,2.889,13.799
			c3.521,13.83,7.05,28.169,15.249,40.077c4.506,6.581,11.046,11.601,18.297,14.839c8.769,3.931,18.216,6.47,27.78,7.396
			c0.497,0.046,0.986,0.034,1.461-0.104c1.545,1.14,3.504-0.142,4.98-1.245c2.83-1.977,5.211-4.509,7.392-7.169
			c3.068-3.681,5.668-7.75,7.901-11.987C253.651,315.887,256.021,308.096,256.366,300.116z M256.466,270.226
			c2.492,14.14,5.757,28.958,1.574,43.091c-2.322,7.529-6.399,14.45-11.225,20.642c-3.865,4.77-8.611,8.823-13.664,12.274
			c-5.833,1.698-17.233-1.217-23.241-2.831c-11.379-3.089-22.121-8.93-29.94-17.878c-3.889-4.773-6.545-10.383-8.853-16.056
			c-2.983-7.798-5.404-15.817-7.556-23.882c-1.943-7.718-3.519-15.52-5.419-23.248c-0.32-1.288-0.599-2.587-0.891-3.882
			c-0.058-0.331-0.13-0.667-0.23-0.993c1.101-0.133,2.216-0.606,3.271-0.82c4.882-1.405,9.722-2.947,14.6-4.359
			c9.7-2.83,19.59-4.935,29.506-6.851c8.943-1.762,17.942-3.307,27.06-3.742c6.348-0.663,12.825,0.223,19.104-0.825
			c0.219,0.002,0.447,0.002,0.681-0.002c0.051,0.396,0.109,0.788,0.135,1.167c0.133,1.095,0.293,2.188,0.456,3.279
			C253.096,253.667,254.915,261.923,256.466,270.226z"/>
		<path style="fill:#7CAAB5;" d="M385.894,195.552c-2.879,2.064-6.579,2.259-9.685,3.818c-0.127,0.069-0.245,0.148-0.355,0.238
			c-1.209-0.703-2.45-1.351-3.709-1.95c-4.4-2.082-9.042-3.843-13.921-4.312c-4.359-0.417-8.809,0.192-12.905,1.739
			c-2.037,0.874-3.896,2.197-5.465,3.781c-1.168-0.313-2.608-0.363-3.465-0.527c-3.902-0.38-7.817-0.686-11.661-1.497
			c6.05-2.788,12.715-3.879,19.298-4.548c7.29-0.75,14.571-1.484,22.017-1.006C372.778,191.958,379.638,192.839,385.894,195.552z"/>
		<path style="fill:#EFFAFC;" d="M236.898,278.156c0.732,3.456,1.653,6.882,2.173,10.377c-6.289,1.194-12.598,2.476-18.907,3.798
			c0.092,0.626,0.191,1.252,0.309,1.873c0.126,0.681,0.263,1.361,0.395,2.04c0.003-0.001,0.006-0.001,0.009-0.002
			c0,0.018,0,0.034,0.001,0.051c0.007,0.037,0.014,0.075,0.022,0.111c0.066,0.345,0.131,0.69,0.176,1.039
			c0.037,0.29,0.078,0.603,0.023,0.893c0.18,1.089,0.438,2.171,0.669,3.249c0.758,3.567,1.602,7.054,2.264,10.648
			c-3.587,0.716-7.141,1.6-10.737,2.267c-0.585-3.841-1.545-7.627-2.54-11.379c-0.156-0.857-0.283-1.534-0.464-2.399
			c-0.055-0.147-0.099-0.301-0.147-0.448c-0.132-0.395-0.23-0.8-0.327-1.204c-0.041-0.167-0.079-0.335-0.116-0.503
			c-0.001-0.001-0.001-0.002-0.001-0.004c-0.138-0.626-0.256-1.26-0.35-1.892c-0.04-0.264-0.079-0.528-0.118-0.792
			c-0.083-0.391-0.163-0.783-0.237-1.175c-6.44,1.382-12.874,2.777-19.284,4.134c-0.425-1.9-0.835-3.803-1.267-5.7
			c-0.241-1.051-0.489-2.1-0.742-3.148c-0.127-0.53-0.264-1.058-0.403-1.585c6.371-1.529,12.784-2.835,19.21-4.083
			c-0.173-0.902-0.275-1.82-0.408-2.728c-0.021-0.141-0.042-0.283-0.064-0.424c-0.013,0.003-0.026,0.006-0.039,0.009
			c-0.307-1.369-0.714-2.731-0.974-4.109c-0.431-1.737-0.681-3.51-0.993-5.269c-0.357-2.301-0.932-4.557-1.451-6.826
			c3.528-0.752,7.046-1.552,10.57-2.33c0.927,4.024,1.866,8.045,2.817,12.065c0.143,0.648,0.293,1.289,0.461,1.924
			c0.088,0.2,0.162,0.405,0.241,0.606c0.176,0.456,0.327,0.92,0.462,1.39c0.008,0.029,0.018,0.058,0.025,0.088
			c0.001,0.002,0.002,0.005,0.002,0.007c0.023,0.082,0.046,0.165,0.068,0.246c0.022,0.084,0.044,0.167,0.067,0.251
			c0.015,0.057,0.029,0.113,0.043,0.171c0.01,0.035,0.019,0.071,0.027,0.108c0.016,0.069,0.033,0.138,0.049,0.207
			c0,0.001,0.001,0.004,0.001,0.005c0.189,0.8,0.34,1.609,0.495,2.416C224.258,280.905,230.596,279.634,236.898,278.156z"/>
		<path style="fill:#E87070;" d="M242.341,196.759c-0.047,0.029-0.093,0.06-0.14,0.089c-0.843,0.51-1.711,0.985-2.615,1.412
			c-0.739,0.331-1.497,0.627-2.276,0.884c-0.677,0.21-1.366,0.389-2.067,0.535c-0.632,0.116-1.267,0.2-1.91,0.258
			c-0.562,0.039-1.125,0.051-1.689,0.042c-0.7-0.032-1.396-0.102-2.089-0.195c-0.746-0.118-1.481-0.269-2.209-0.453
			c-0.865-0.237-1.716-0.507-2.546-0.821c-0.862-0.346-1.697-0.741-2.51-1.165c-0.995-0.536-1.948-1.121-2.864-1.751
			c-0.155-0.109-0.31-0.22-0.461-0.331c0.057-0.022,0.113-0.046,0.169-0.068c0.625-0.249,1.259-0.48,1.905-0.691
			c0.686-0.215,1.386-0.389,2.087-0.571c0.759-0.199,1.52-0.396,2.294-0.553c0.913-0.172,1.836-0.293,2.767-0.377
			c0.975-0.074,1.951-0.09,2.927-0.064c0.955,0.037,1.9,0.119,2.842,0.253c0.976,0.151,1.941,0.343,2.892,0.588
			c0.576,0.158,1.14,0.336,1.69,0.549c0.45,0.183,0.885,0.385,1.308,0.606c0.439,0.239,0.863,0.496,1.27,0.773
			c0.283,0.204,0.554,0.417,0.812,0.644C242.07,196.484,242.21,196.619,242.341,196.759z"/>
		<path style="fill:#853858;" d="M256.523,177.366c-0.292,0.862-0.594,1.722-0.909,2.578c-0.28,0.752-0.592,1.494-0.904,2.237
			c-0.34,0.811-0.705,1.611-1.127,2.393l-0.009,0.018c-0.002,0.005-0.005,0.01-0.008,0.015c-0.753,1.364-1.653,2.684-2.602,3.976
			c-0.991,1.313-2.058,2.573-3.218,3.781c-0.924,0.941-1.918,1.823-2.964,2.668c-0.147,0.116-0.296,0.23-0.445,0.342
			c-0.45-0.416-0.943-0.786-1.481-1.12c-1.428-0.888-3.117-1.455-4.796-1.905c-0.93-0.25-1.869-0.465-2.83-0.61
			c-0.984-0.148-1.976-0.25-2.974-0.318c-1.907-0.132-3.837-0.112-5.742,0.037c-0.95,0.074-1.905,0.176-2.839,0.339
			c-0.479,0.082-0.96,0.171-1.426,0.299c-0.421,0.116-0.835,0.249-1.244,0.396c-0.853,0.305-1.693,0.662-2.454,1.112
			c-0.326,0.194-0.649,0.397-0.938,0.631c-0.402-0.32-0.794-0.649-1.177-0.987c-1.273-1.155-2.436-2.384-3.547-3.655
			c-1.112-1.312-2.151-2.664-3.141-4.043c0.005,0.002,0.008,0.005,0.013,0.007c2.381,1.348,5.082,2.183,7.852,2.751
			c2.662,0.543,5.391,0.816,8.127,0.816c0.221,0,0.441-0.002,0.661-0.005c2.903-0.047,5.764-0.436,8.576-1.041
			c5.074-1.091,10.015-2.836,14.356-5.326c1.783-1.024,3.424-2.18,4.984-3.437C255.087,178.695,255.829,178.048,256.523,177.366z"/>
		<path style="fill:#1F7E96;" d="M259.516,327.393c-0.302-0.124-0.597-0.262-0.884-0.412c3.193-5.753,5.575-11.932,6.631-18.48
			c0.951-5.859,0.922-11.749,0.4-17.619c0.359,0.381,0.719,0.76,1.079,1.139c0.77,0.809,1.516,1.638,2.23,2.497
			c0.302,0.363,0.588,0.736,0.884,1.102c0.05,0.05,0.1,0.099,0.151,0.147c0.03,0.023,0.061,0.047,0.091,0.07
			c0.108,0.066,0.216,0.131,0.325,0.195c0.16,0.071,0.32,0.14,0.482,0.207c0.369,0.111,0.738,0.212,1.113,0.303
			c0.223,0.034,0.446,0.064,0.67,0.09c0.279,0.002,0.556-0.001,0.835-0.01c0.638-0.07,1.269-0.163,1.901-0.276
			c1.189-0.273,2.36-0.586,3.52-0.962c2.097-0.758,4.186-1.577,6.195-2.549c0.772-0.386,1.548-0.768,2.287-1.213
			c0.224-0.158,0.444-0.321,0.662-0.489c0.564-0.439,1.087-0.932,1.796-1.132c1.31-0.371,2.496,0.135,3.33,1.163
			c0.598,0.739,0.853,1.729,0.959,2.656c0.207,1.794,0.179,3.608,0.033,5.404c-0.14,1.726-0.503,3.456-1.033,5.104
			c-0.624,1.943-1.461,3.754-2.377,5.573c-0.813,1.619-1.869,3.144-2.947,4.591c-1.136,1.525-2.383,2.969-3.665,4.373
			c-1.239,1.357-2.596,2.671-4.098,3.736c-1.8,1.275-3.67,2.425-5.655,3.388c-1.925,0.936-3.943,1.671-6.051,2.058
			c-1.171,0.215-2.327,0.327-3.52,0.374c-0.141,0.006-0.283,0.009-0.424,0.009C262.746,328.431,261.071,328.032,259.516,327.393z"/>
		<path style="fill:#1F7E96;" d="M191.068,241.736c-0.143-1.593,0.046-3.203,0.886-4.595c0.399-0.662,0.931-1.224,1.548-1.653
			c-0.92-0.797-0.625-2.18,0.361-2.78c1.138-1.367,2.471-2.547,3.833-3.685c1.625-1.808,3.369-3.8,5.931-4.126
			c1.952-0.276,3.917,0.501,5.315,1.855c1.663,1.528,2.518,3.702,3.488,5.69c0.852,1.824,1.647,3.687,2.304,5.59
			c-7.88,1.303-15.713,3.067-23.468,5.019C191.176,242.618,191.107,242.18,191.068,241.736z"/>
		<path style="fill:#1F7E96;" d="M274.309,233.945c-0.679-0.367-1.176-0.936-1.729-1.458c-0.897-0.845-1.803-1.695-2.568-2.663
			c-1.035-1.275-1.417-2.883-1.828-4.435c-1.093-0.585-0.475-2.254,0.742-1.934c1.547-0.343,3.22-0.541,4.768-0.128
			c1.831,0.49,3.362,1.617,4.893,2.687c0.599,0.367,1.07,0.801,1.514,1.342C283.05,231.264,278.566,236.324,274.309,233.945z"/>
		<path style="fill:#B9CED2;" d="M190.561,208.739c-0.847-0.323-1.519-0.939-2.174-1.526c-1.061-0.484-2.023-1.057-2.853-1.889
			c-1.39-1.415-2.216-3.224-2.899-5.07c-0.665-1.718-1.249-3.472-1.799-5.23c-2.87-9.376-5.354-18.877-7.272-28.494
			c-1.889-9.704-3.835-19.529-3.635-29.457c0.142-3.961,0.546-7.955,1.869-11.713c3.26-9.245,10.485-16.778,19.146-21.21
			c1.736-0.899,3.575-1.476,5.424-2.079c2.479-1.119,4.312,2.233,2.06,3.759c-4.99,6.906-8.922,14.75-10.856,23.072
			c-1.362,9.358,0.709,18.808,2.304,28.015c2.23,12.721,5.919,25.093,9.342,37.523c0.805,3.193,1.334,6.39-0.51,9.337
			C198.508,207.688,194.143,210.336,190.561,208.739z"/>
		<path style="fill:#FFFFFF;" d="M231.705,126.493c-6.335-1.638-11.795-7.151-12.379-13.812c-0.441-4.507,1.716-9.566,5.998-11.477
			c3.727-1.677,8.5-1.348,11.72,1.263c-0.052-0.041-0.105-0.083-0.157-0.124c0.752,0.455,1.586,0.821,2.147,1.52
			c2.502,1.035,4.787,2.664,6.347,4.891C252.419,119.297,243.08,129.191,231.705,126.493z"/>
		<path style="fill:#FFFFFF;" d="M255.445,138.503c-3.691-1.278-4.911-6.13-2.265-9.002c3.268-3.71,9.507-1.486,9.75,3.438
			C263.176,136.883,259.163,139.89,255.445,138.503z"/>
		<path style="fill:#FFFFFF;" d="M283.961,279.838c-5.125-0.402-7.017-7.066-3.302-10.362c1.324-1.176,3.448-1.326,4.835-0.187
			c2.619,0.179,4.614,2.695,4.404,5.275C289.687,277.463,286.936,280.136,283.961,279.838z"/>
		<path style="fill:#FFFFFF;" d="M276.61,254.901c-2.142-1.852-0.841-5.579,1.995-5.659c1.744-0.09,3.355,1.303,3.417,3.068
			C282.186,255.18,278.75,256.813,276.61,254.901z"/>
		<path style="fill:#FFFFFF;" d="M248.714,401.208c-5.216-0.362-9.605-4.212-11.838-8.772c-1.056-2.258-1.795-4.914-1.181-7.39
			c5.005,0.513,9.896,1.899,14.075,4.781c2.041,1.231,3.373,3.308,5.523,4.278c0.091,1.755,0.363,3.475,0.857,5.075
			C254.047,400.771,251.317,401.392,248.714,401.208z"/>
		<path style="fill:#FFFFFF;" d="M315.163,346.161c-0.625-0.154-1.206-0.348-1.783-0.633c-1.087-0.538-2.008-1.699-1.838-2.972
			c0.038-0.289,0.091-0.569,0.165-0.843c2.575-1.251,5.245-2.303,7.994-3.118c5.925-1.46,12.671-2.727,18.445-0.353
			c-0.043,0.032-0.085,0.064-0.128,0.096c-1.25,0.948-2.495,1.885-3.842,2.691c-0.183,0.11-0.366,0.218-0.55,0.327
			c-5.749,0.553-11.31,2.423-16.422,5.144C316.514,346.437,315.824,346.324,315.163,346.161z"/>
		<path style="fill:#FFFFFF;" d="M338.146,338.242L338.146,338.242c-0.018,0.013-0.036,0.027-0.054,0.041
			C338.111,338.269,338.128,338.256,338.146,338.242z"/>
		<path style="fill:#FFFFFF;" d="M225.473,400.959c-2.311-2.02-0.92-6.004,2.152-6.107c1.881-0.098,3.621,1.406,3.688,3.311
			C231.475,401.273,227.802,403.02,225.473,400.959z"/>
		<path style="fill:#B9CED2;" d="M155.848,293.54c-0.982-0.081-1.846-0.493-2.595-1.12c-0.073-0.062-0.145-0.125-0.216-0.191
			c0.029-0.103,0.058-0.205,0.087-0.307c0.902-2.937,2.246-5.698,3.807-8.333c0.397,1.642,0.802,3.283,1.222,4.919
			c0.166,0.583,0.333,1.166,0.499,1.749c-0.687,1.196-1.267,2.466-1.615,3.223C156.641,293.552,156.243,293.572,155.848,293.54z"/>
		<path style="fill:#B9CED2;" d="M162.47,319.632c-0.639-0.953-1.156-1.947-1.572-2.973c0.055-0.997,0.178-1.982,0.662-2.865
			c0.641-1.457,2.584-2.324,4.097-1.868c1.755,4.36,3.792,8.594,6.277,12.605c0.561,0.898,1.148,1.777,1.767,2.63
			C169.275,325.919,165.265,323.619,162.47,319.632z"/>
		<path style="fill:#B9CED2;" d="M330.961,233.184c-0.197-0.973-0.317-1.968-0.64-2.908c-0.265-0.554-0.563-1.091-0.808-1.655
			c-1.087-2.625-1.54-5.455-2.042-8.238c-0.257-1.515-0.508-3.031-0.741-4.548c-0.409-2.326-0.687-4.82,0.232-7.059
			c1.728-2.068,4.631-2.652,7.159-1.914c1.218,2.184,2.185,4.515,2.696,6.969c0.22,1.048,0.364,2.11,0.559,3.163
			c-4.497,4.623-4.797,12.908,0.329,17.235c-1.096,1.008-1.992,2.142-2.645,3.383C333.034,237.032,331.365,235.362,330.961,233.184z
			"/>
		<path style="fill:#B9CED2;" d="M341.757,210.316c-0.881-4.489,1.578-7.501,5.368-9.501c3.906,0.632,7.26,4.192,7.695,8.112
			c0.468,0.555,0.789,1.262,0.96,1.985c-0.337-0.024-0.675-0.042-1.013-0.056c0.005-0.032,0.01-0.065,0.014-0.097
			c-0.001-0.013-0.001-0.026-0.002-0.039c-0.005,0.045-0.011,0.091-0.016,0.136c-4.201-0.163-8.477,0.509-12.257,2.353
			C342.326,212.218,341.918,211.183,341.757,210.316z"/>
		<path style="fill:#B9CED2;" d="M341.254,230.498c-0.637-1.16-1.502-2.264-1.594-3.62c-0.165-2.273,0.783-4.661,2.477-6.184
			c1.499-1.269,3.147-2.423,5.063-2.943c3.432,0.63,6.428,3.115,8.334,5.955c0.548,0.871,0.917,1.748,1.187,2.726
			c0.705,0.773,1.164,1.723,1.372,2.725c-3.018-0.29-5.972-0.265-8.716,0.086c-2.722,0.367-5.244,1.106-7.43,2.16
			C341.703,231.111,341.472,230.809,341.254,230.498z"/>
		<path style="fill:#B9CED2;" d="M368.515,261.658c-0.134-0.26-0.246-0.533-0.352-0.808c1.534-0.522,2.967-1.354,4.265-2.572
			c0.276-0.24,0.702-0.72,1.075-1.261c0.032,0.236,0.057,0.474,0.076,0.714c0.16,1.97-0.522,3.819-1.552,5.457
			c-0.556,0.884-1.302,1.637-2.106,2.309C369.505,264.202,369.04,262.921,368.515,261.658z"/>
		<path style="fill:#B9CED2;" d="M357.911,256.859c-4.514-0.503-9.236-1.885-12.707-4.921c-0.55-0.536-1.129-1.12-1.694-1.744
			c-0.074-0.336-0.125-0.681-0.156-1.034c-0.217-2.784,2.355-4.4,4.813-4.782c6.918-0.906,14.324,0.782,20.234,4.472
			c2.003,1.334,3.625,3.382,4.477,5.621c-3.146,0.141-6.168,1.256-9.172,2.121C361.778,256.767,359.847,257.021,357.911,256.859z"/>
		<path style="fill:#B9CED2;" d="M345.093,269.094c-5.265-0.992-11.084-7.453-11.152-12.883c-0.543-1.661-0.184-3.581,0.893-4.952
			c0.032-0.01,0.064-0.019,0.097-0.029c0.523-0.161,1.083-0.318,1.598-0.55c0.18,0.278,0.369,0.556,0.568,0.836
			c2.724,3.82,6.438,6.933,10.828,8.59c0.044,3.065-0.376,6.085-0.65,9.132C346.544,269.287,345.818,269.225,345.093,269.094z"/>
		<path style="fill:#B9CED2;" d="M335.331,282.384c-2.948-0.312-5.599-1.388-7.91-2.987c-1.056-2.736,0.17-5.638,2.818-6.856
			c3.242,3.6,7.433,6.225,12.371,6.952c0.953,0.072,2.038,0.2,3.117,0.215C342.547,281.505,339.007,282.863,335.331,282.384z"/>
		<path style="fill:#FFFFFF;" d="M361.506,142.757c-2.073-0.08-3.91-1.256-5.262-2.76c-1.483-1.628-2.114-3.812-2.731-5.874
			c-0.468-1.567-0.951-3.129-1.448-4.687c-2.536-7.653-5.026-15.404-5.593-23.497c-0.13-3.351-1.414-6.153,1.413-8.808
			c0.209-1.979,0.732-3.093,2.919-3.085c2.921,3.447,5.998,6.758,8.981,10.152c6.673,7.371,13.065,14.979,19.178,22.818
			c-3.903,5.127-8.059,10.067-12.8,14.456C364.785,142.395,363.15,142.855,361.506,142.757z"/>
		<path style="fill:#FFFFFF;" d="M346.569,137.985c-1.271-0.686-2.251-1.933-2.48-3.372c-0.337-2.098-0.105-4.199,0.011-6.301
			c-0.048-1.102,0.058-2.195,0.157-3.289c-0.137-0.494,0.534-0.851,0.879-0.465c1.48,0.967,2.528,2.378,3.704,3.667
			c0.604,0.59,1.157,1.228,1.649,1.915c0.879,1.075,1.704,2.296,1.798,3.72c0.056,1.68-0.599,3.618-2.202,4.39
			C349.008,138.776,347.533,138.739,346.569,137.985z"/>
		<path style="fill:#FFFFFF;" d="M359.902,185.383c-0.634-5.495-0.471-11.048-0.39-16.569c0.156-5.189,0.031-10.519,1.562-15.534
			c0.656-1.98,2.031-3.602,3.225-5.277c2.28-2.94,5.068-5.426,7.571-8.17c1.668-1.699,3.303-3.956,5.926-3.951
			c-2.232,15.296-3.966,30.653-5.454,46.038c-0.071,1.347-0.345,2.721-0.176,4.062C368.099,185.475,363.998,185.277,359.902,185.383
			z"/>
		<path style="fill:#FFFFFF;" d="M349.698,155.604c-1.755-1.553-3.472-3.151-5.106-4.831c-3.275-3.306-6.71-6.446-10.223-9.494
			c-1.216-1.099-2.394-2.262-3.454-3.513c-0.39-0.375,0.075-1.072,0.569-0.829c-0.001,0-0.001,0-0.002-0.001
			c3.567,1.71,6.566,4.405,9.83,6.61c-0.036-0.024-0.072-0.049-0.108-0.073c3.097,2.133,6.35,4.032,9.422,6.199
			c1.367,1.016,3.352,1.783,3.564,3.696C354.463,155.833,351.531,157.137,349.698,155.604z"/>
		<path style="fill:#FFFFFF;" d="M362.548,273.385c-2.713-1.115-3.832-5.348-1.054-7.031c0.987-0.59,2.19-0.567,3.219-0.127
			c0.404,2.298,0.749,4.61,1.171,6.903C364.903,273.806,363.63,273.81,362.548,273.385z"/>
		<path style="fill:#FFFFFF;" d="M364.7,286.071c-2.778-2.156-0.883-6.438,2.61-5.572c0.389,1.868,0.788,3.73,1.171,5.605
			C367.369,286.906,365.802,286.946,364.7,286.071z"/>
		<path style="fill:#FFFFFF;" d="M378.363,197.988c-0.524-0.105-1.003-0.072-1.523-0.007c-1.027,0-1.979-0.631-2.379-1.577
			c-0.405-0.959-0.181-2.096,0.554-2.831c0.379-0.446,0.966-0.511,1.385-0.871c3.252,0.64,6.445,1.527,9.495,2.849
			c-1.849,1.325-4.036,1.88-6.187,2.52C379.26,198.066,378.815,198.034,378.363,197.988z"/>
		<path style="fill:#B9CED2;" d="M223.796,330.888c-0.819-1.059-1.182-2.426-1.001-3.753c0.171-1.253,0.856-2.558,1.908-3.296
			c0.255-0.18,0.516-0.351,0.776-0.522c0.15-0.107,0.298-0.217,0.442-0.332c0.019-0.019,0.038-0.038,0.057-0.058
			c0.062-0.078,0.122-0.158,0.181-0.238c0.223-0.358,0.432-0.723,0.63-1.095c0.257-0.559,0.491-1.126,0.732-1.693
			c0.381-0.897,0.823-1.772,1.294-2.625c0.677-1.226,1.383-2.433,2.035-3.672c0.99-2.044,1.86-4.138,2.63-6.275
			c1.307-3.852,2.459-7.753,3.323-11.729c0.184-0.976,0.344-1.952,0.475-2.933c0.246-0.057,0.493-0.115,0.739-0.172
			c0.967-0.227,1.933-0.458,2.901-0.679c0.605-0.139,1.212-0.347,1.611-0.853c0.552-0.646,0.413-1.505,0.21-2.258
			c-0.216-1.022-0.575-2.007-0.758-3.037c-0.642-3.077-1.291-6.157-1.877-9.248c-0.001-0.001-0.001-0.001-0.001-0.002
			c0-0.002-0.001-0.006-0.001-0.007c-0.002-0.012-0.005-0.026-0.007-0.039c-0.096-0.519-0.156-1.266-0.61-1.667
			c-0.879-0.925-2.163-0.401-3.251-0.228c-0.365-2.96-0.587-5.927-0.362-8.914c0.092-1.219,0.244-2.432,0.344-3.651
			c0.026-0.511,0.043-1.019,0.043-1.529c-0.115-0.01-0.23-0.02-0.345-0.028c-0.043-0.003-0.087-0.006-0.13-0.009
			c-1.474-0.09-2.946-0.073-4.422-0.067c-1.553,0.007-3.107,0.019-4.66,0.037c-3.068,0.035-6.135,0.102-9.202,0.204
			c-0.421,0.014-0.842,0.028-1.263,0.042c-0.238-0.798-0.659-1.478-1.635-1.627c-0.969-0.071-1.915,0.327-2.87,0.478
			c-1.598,0.34-3.197,0.678-4.796,1.021c-0.321-0.047-0.641-0.102-0.959-0.168c-1.176,0.069-2.322-0.763-2.637-1.91
			c-0.369-1.34,0.48-2.913,1.859-3.214c0.52-0.273,1.049-0.507,1.602-0.707c3.126-1.064,6.372-1.592,9.641-2.019
			c3.273-0.427,6.556-0.722,9.853-0.853c2.433-0.097,4.869-0.095,7.303-0.089c1.194,0.002,2.382-0.063,3.573-0.109
			c0.722-0.027,1.437-0.076,2.157,0.005c1.329,0.148,2.657,0.882,3.435,1.979c0.478,0.675,0.811,1.414,0.923,2.238
			c0.059,0.433,0.049,0.868,0.021,1.303c-0.005,0.261-0.001,0.52,0.01,0.78c0.031,0.263,0.067,0.524,0.107,0.786
			c0.231,1.004,0.54,1.983,0.869,2.959c0.568,1.564,1.177,3.112,1.628,4.716c0.478,1.705,0.792,3.476,0.954,5.238
			c0.312,3.381,0.313,6.781,0.297,10.174c-0.015,3.151,0.033,6.308-0.06,9.459c-0.093,3.157-0.27,6.309-0.453,9.462
			c-0.197,3.409-0.353,6.865-1.007,10.225c-0.408,2.093-0.923,4.118-1.635,6.129c-0.607,1.716-1.337,3.351-2.157,4.978
			c-1.129,2.242-2.624,4.337-4.578,5.932c-1.559,1.273-3.375,2.121-5.169,2.997c-0.223,0.121-0.442,0.249-0.657,0.385
			c-0.508,0.357-1.011,0.729-1.544,1.042c-0.776,0.457-1.642,0.676-2.504,0.676C226.28,332.831,224.768,332.146,223.796,330.888z"/>
		<path style="fill:#B9CED2;" d="M206.983,254.373c-0.061,0.021-0.121,0.043-0.181,0.064c-0.069,0.023-0.138,0.047-0.206,0.071
			C206.725,254.463,206.853,254.419,206.983,254.373z"/>
		<path style="fill:#B9CED2;" d="M209.59,329.059c-1.234-2.976,2.588-5.484,5.118-3.934c1.347,0.788,2.016,2.428,1.601,3.934
			C215.345,332.44,210.549,332.443,209.59,329.059z"/>
		<path style="fill:#B9CED2;" d="M174.089,264.614c0.171-4.034,5.934-4.033,6.104,0
			C180.021,268.648,174.259,268.647,174.089,264.614z"/>
		<path style="fill:#B9CED2;" d="M210.757,303.124c-0.219-1.556-0.688-3.024-1.053-4.555c-0.291-1.278-0.424-2.583-0.707-3.862
			c-0.415,0.089-0.829,0.178-1.243,0.267c3.079-4.176,6.281-8.266,9.512-12.322c0.2-0.251,0.4-0.501,0.602-0.751
			c0.015,0.077,0.029,0.154,0.044,0.231c3.662-0.708,7.321-1.431,10.973-2.2c-2.023,4.184-4.477,8.138-6.992,12.039
			c-0.576,0.12-1.152,0.24-1.728,0.361c0.091,0.617,0.189,1.234,0.304,1.846c-2.898,4.465-5.717,8.982-8.551,13.489
			C211.552,306.146,211.157,304.632,210.757,303.124z"/>
		<path style="fill:#B9CED2;" d="M209.678,284.411c-0.618-0.457-0.695-1.459-0.135-1.984c1.111-1.855,2.179-3.741,3.17-5.664
			c0.84-1.728,1.678-3.457,2.519-5.183c0.548,2.223,0.937,4.492,1.775,6.626c-1.633,1.622-3.2,3.307-4.73,5.026
			c-0.205,0.236-0.418,0.47-0.605,0.721C211.3,284.663,210.332,284.934,209.678,284.411z"/>
		<path style="fill:#FFFFFF;" d="M237.768,258.058c-0.57-0.521-1.163-1.004-1.712-1.544c-1.21-1.282-2.046-3.596-0.753-5.07
			c1.342-0.023,2.685-0.188,4.024-0.071c3.034,0.364,4.74,3.053,4.379,5.98C242.346,259.123,239.487,259.502,237.768,258.058z"/>
		<path style="fill:#FFFFFF;" d="M251.445,249.326c-1.006-0.166-2.007-0.368-2.979-0.672c-0.179-0.44-0.359-0.844-0.538-1.204
			c0.266-1.907-1.455-2.514-3.109-2.503c-1.037-0.053-2.075-0.086-3.111-0.102c-0.726-0.977-1.409-2.167-0.964-3.424
			c3.296,0.01,6.584-0.016,9.82-0.555c0.218,0.002,0.447,0.002,0.681-0.002c0.325,2.856,0.763,5.682,1.247,8.514
			C252.14,249.39,251.797,249.381,251.445,249.326z"/>
		<path style="fill:#FFFFFF;" d="M253.319,321.962c0.181-2.24,0.371-4.487,0.259-6.735c-0.02-0.204-0.04-0.409-0.06-0.612
			c1.391-3.959,2.318-8.075,2.697-12.259c0.918-1.022,2.527-1.569,3.753-0.76c-0.198,3.94-0.785,7.855-1.929,11.721
			c-1.129,3.662-2.674,7.18-4.518,10.54C253.321,323.26,253.266,322.621,253.319,321.962z"/>
	</g>
</g>
</svg>
