<?xml version="1.0" encoding="utf-8"?>
<!-- Generator: Adobe Illustrator 27.5.0, SVG Export Plug-In . SVG Version: 6.00 Build 0)  -->
<svg version="1.1" xmlns="http://www.w3.org/2000/svg" xmlns:xlink="http://www.w3.org/1999/xlink" x="0px" y="0px"
	 viewBox="0 0 500 500" style="enable-background:new 0 0 500 500;" xml:space="preserve">
<g id="BACKGROUND">
	<path style="fill:#FFFFFF;" d="M500,0v500H0V0H500z"/>
</g>
<g id="OBJECTS">
	<circle style="fill:#AAF2F2;" cx="251.249" cy="226.416" r="165.7"/>
	<path style="fill:#FFFFFF;" d="M146.631,152.932l2.455-0.941c0.519-0.199,0.519-1.185,0-1.384l-2.455-0.941
		c-4.695-1.8-8.365-6.724-9.706-13.024l-0.701-3.295c-0.148-0.696-0.883-0.696-1.031,0l-0.702,3.295
		c-1.341,6.3-5.011,11.224-9.706,13.024l-2.455,0.941c-0.519,0.199-0.519,1.185,0,1.384l2.455,0.941
		c4.695,1.8,8.365,6.724,9.706,13.024l0.701,3.295c0.148,0.696,0.883,0.696,1.031,0l0.702-3.295
		C138.267,159.656,141.936,154.732,146.631,152.932z"/>
	<ellipse style="fill:#DFEBEB;" cx="260.136" cy="426.78" rx="110.836" ry="12.504"/>
	<path style="fill:#FFFFFF;" d="M400.302,220.305l2.456-0.941c0.519-0.199,0.519-1.185,0-1.384l-2.455-0.941
		c-4.695-1.8-8.365-6.724-9.706-13.024l-0.702-3.295c-0.148-0.696-0.883-0.696-1.031,0l-0.702,3.295
		c-1.341,6.3-5.011,11.224-9.706,13.024L376,217.98c-0.519,0.199-0.519,1.185,0,1.384l2.455,0.941
		c4.695,1.8,8.365,6.724,9.706,13.024l0.702,3.295c0.148,0.696,0.883,0.696,1.031,0l0.702-3.295
		C391.938,227.029,395.607,222.105,400.302,220.305z"/>
	<path style="fill:#FFFFFF;" d="M215.879,94.554l1.481-0.568c0.313-0.12,0.313-0.715,0-0.835l-1.481-0.568
		c-2.832-1.086-5.046-4.056-5.855-7.856l-0.423-1.987c-0.089-0.42-0.533-0.42-0.622,0l-0.423,1.987
		c-0.809,3.8-3.023,6.77-5.855,7.856l-1.481,0.568c-0.313,0.12-0.313,0.715,0,0.835l1.481,0.568
		c2.832,1.086,5.046,4.056,5.855,7.856l0.423,1.988c0.089,0.42,0.533,0.42,0.622,0l0.423-1.987
		C210.834,98.61,213.047,95.639,215.879,94.554z"/>
	<path style="fill:#FFFFFF;" d="M382.2,163.428l1.481-0.568c0.313-0.12,0.313-0.715,0-0.835l-1.481-0.568
		c-2.832-1.086-5.046-4.056-5.855-7.856l-0.423-1.987c-0.089-0.42-0.533-0.42-0.622,0l-0.423,1.987
		c-0.809,3.8-3.023,6.77-5.855,7.856l-1.481,0.568c-0.313,0.12-0.313,0.715,0,0.835l1.481,0.568
		c2.832,1.086,5.046,4.056,5.855,7.856l0.423,1.988c0.089,0.42,0.533,0.42,0.622,0l0.423-1.987
		C377.155,167.484,379.368,164.513,382.2,163.428z"/>
	<path style="fill:#FFFFFF;" d="M141.17,240.937l1.228-0.471c0.259-0.099,0.259-0.592,0-0.692l-1.228-0.471
		c-2.348-0.9-4.182-3.362-4.853-6.512l-0.351-1.647c-0.074-0.348-0.442-0.348-0.516,0l-0.351,1.647
		c-0.671,3.15-2.506,5.612-4.853,6.512l-1.228,0.471c-0.259,0.099-0.259,0.593,0,0.692l1.228,0.471
		c2.347,0.9,4.182,3.362,4.853,6.512l0.351,1.647c0.074,0.348,0.442,0.348,0.516,0l0.351-1.647
		C136.987,244.299,138.822,241.837,141.17,240.937z"/>
	<path style="fill:#FFFFFF;" d="M206.447,149.115l1.228-0.471c0.259-0.099,0.259-0.592,0-0.692l-1.228-0.471
		c-2.348-0.9-4.182-3.362-4.853-6.512l-0.351-1.647c-0.074-0.348-0.441-0.348-0.516,0l-0.351,1.647
		c-0.671,3.15-2.506,5.612-4.853,6.512l-1.228,0.471c-0.259,0.099-0.259,0.592,0,0.692l1.228,0.471
		c2.347,0.9,4.182,3.362,4.853,6.512l0.351,1.647c0.074,0.348,0.442,0.348,0.516,0l0.351-1.647
		C202.265,152.478,204.1,150.016,206.447,149.115z"/>
	<g>
		<path style="fill:#DE3030;" d="M327.893,253.926c0.029,0.023,0.059,0.046,0.088,0.069
			C327.951,253.972,327.922,253.95,327.893,253.926z"/>
		<path style="fill:#DE3030;" d="M267.118,153.521c2.868,1.323,1.079,5.771-1.9,4.597
			C262.331,156.828,264.178,152.369,267.118,153.521z"/>
		<path style="fill:#DE3030;" d="M287.041,154.716c1.368,1.768-0.272,4.437-2.462,3.826c-0.413-0.107-0.764-0.325-1.039-0.609
			c-0.023-0.023-0.046-0.048-0.068-0.072c-0.022-0.025-0.043-0.05-0.064-0.076c-0.042-0.051-0.082-0.104-0.119-0.158
			c-0.037-0.055-0.074-0.111-0.106-0.168c-0.033-0.057-0.064-0.116-0.093-0.175c-0.028-0.06-0.055-0.12-0.079-0.181
			c-0.025-0.062-0.046-0.125-0.065-0.188c-0.089-0.286-0.13-0.587-0.117-0.886c0-0.019,0.001-0.037,0.004-0.056
			c0.001-0.026,0.002-0.05,0.006-0.076c0.001-0.027,0.005-0.055,0.009-0.083c0.003-0.028,0.007-0.056,0.012-0.084
			c0.004-0.026,0.008-0.05,0.014-0.076c0.006-0.033,0.013-0.064,0.021-0.097c0.028-0.117,0.065-0.231,0.112-0.342
			c0.008-0.02,0.016-0.04,0.026-0.058c0.029-0.067,0.062-0.132,0.099-0.195c0.012-0.02,0.023-0.04,0.036-0.058
			c0.011-0.019,0.022-0.037,0.034-0.055c0.004-0.006,0.007-0.01,0.01-0.015c0.017-0.026,0.035-0.051,0.054-0.076
			c0.04-0.054,0.082-0.105,0.126-0.155c0.003-0.005,0.008-0.008,0.012-0.013c0.004-0.005,0.008-0.009,0.013-0.014
			c0.082-0.098,0.172-0.187,0.267-0.266c0.031-0.027,0.064-0.051,0.097-0.076c0.034-0.025,0.068-0.048,0.102-0.07
			c0.033-0.021,0.064-0.041,0.097-0.06c0.005-0.002,0.009-0.005,0.013-0.007c0.029-0.016,0.058-0.033,0.088-0.047
			c0.009-0.006,0.019-0.009,0.027-0.014c0.027-0.013,0.052-0.026,0.079-0.037c0.019-0.008,0.036-0.016,0.055-0.023
			c0.015-0.006,0.03-0.013,0.046-0.018c0.022-0.009,0.046-0.017,0.069-0.026c0.018-0.007,0.036-0.013,0.055-0.019
			c0.02-0.007,0.041-0.014,0.062-0.019c0.026-0.008,0.052-0.016,0.079-0.022c0.005-0.001,0.008-0.002,0.012-0.004
			c0.032-0.008,0.063-0.015,0.095-0.022c0.037-0.007,0.075-0.014,0.112-0.02c0.043-0.007,0.086-0.013,0.13-0.018
			c0.028-0.003,0.057-0.006,0.085-0.007c0.019-0.002,0.036-0.004,0.055-0.004C285.8,153.761,286.581,154.071,287.041,154.716z"/>
		<path style="fill:#FFFFFF;" d="M265.218,158.118c-2.887-1.291-1.04-5.749,1.9-4.597
			C269.985,154.844,268.196,159.292,265.218,158.118z"/>
		<path style="fill:#FFFFFF;" d="M284.579,158.542c-1.778-0.46-2.382-2.951-0.978-4.146c-0.027,0.024-0.055,0.048-0.082,0.073
			c-0.065,0.074-0.131,0.148-0.196,0.221c0.883-1.218,2.86-1.177,3.719,0.026C288.409,156.483,286.769,159.152,284.579,158.542z"/>
		<path style="fill:#4C404F;" d="M265.218,158.118c2.979,1.174,4.767-3.274,1.9-4.597
			C264.178,152.369,262.331,156.828,265.218,158.118z M270.346,155.454c0.397,2.205,0.383,4.472,0.305,6.703
			c-0.079,2.278-0.479,4.533-1.149,6.709c-0.264,0.858-0.618,1.682-1.001,2.495c-0.455,0.968-0.987,1.892-1.643,2.737
			c-0.723,0.889-1.608,1.695-2.734,2.015c-0.297,0.085-0.592,0.135-0.888,0.151c-0.459,0.023-0.919-0.036-1.376-0.173
			c-0.571-0.169-1.079-0.508-1.527-0.891c-0.736-0.628-1.275-1.497-1.658-2.375c-0.346-0.795-0.598-1.633-0.739-2.489
			c-0.025-0.152-0.047-0.305-0.066-0.458c-0.016-0.078-0.034-0.155-0.049-0.232c-0.23-1.12-0.287-2.259-0.312-3.4
			c-0.062-2.981,0.408-5.953,1.162-8.833c0.204-0.782,0.436-1.56,0.685-2.328c0.218-0.668,0.468-1.34,0.81-1.956
			c0.309-0.55,0.654-1.066,1.054-1.554c0.385-0.468,0.832-0.863,1.318-1.222c0.543-0.402,1.192-0.673,1.851-0.814
			c0.711-0.152,1.442-0.078,2.13,0.138c1.071,0.336,1.966,1.177,2.535,2.125C269.724,152.921,270.115,154.174,270.346,155.454z"/>
		<path style="fill:#4C404F;" d="M284.578,158.542c2.19,0.611,3.831-2.058,2.462-3.826c-0.831-1.163-2.708-1.241-3.626-0.141
			c-0.005,0.005-0.009,0.009-0.013,0.014C282.261,155.839,282.892,158.105,284.578,158.542z M289.092,156.201
			c0.397,2.204,0.384,4.471,0.305,6.702c-0.079,2.278-0.478,4.532-1.149,6.709c-0.263,0.859-0.618,1.684-0.999,2.496
			c-0.455,0.968-0.988,1.89-1.643,2.737c-0.723,0.888-1.609,1.694-2.734,2.015c-0.298,0.085-0.593,0.134-0.889,0.149
			c-0.46,0.023-0.919-0.036-1.378-0.173c-0.571-0.169-1.078-0.507-1.526-0.891c-0.737-0.627-1.275-1.497-1.658-2.375
			c-0.347-0.794-0.599-1.632-0.739-2.488c-0.026-0.152-0.048-0.305-0.066-0.459c-0.017-0.077-0.034-0.154-0.05-0.232
			c-0.23-1.119-0.286-2.259-0.311-3.399c-0.063-2.982,0.406-5.954,1.161-8.834c0.205-0.782,0.435-1.56,0.687-2.328
			c0.218-0.668,0.468-1.34,0.81-1.954c0.308-0.55,0.654-1.066,1.054-1.554c0.385-0.469,0.831-0.864,1.318-1.222
			c0.543-0.403,1.192-0.673,1.849-0.814c0.711-0.153,1.442-0.079,2.131,0.137c1.071,0.337,1.966,1.178,2.535,2.126
			C288.471,153.669,288.862,154.921,289.092,156.201z"/>
		<path style="fill:#4C404F;" d="M305.658,169.732c1.28,2.049-0.633,4.197-2.767,3.777c-0.04,0.235-0.082,0.469-0.128,0.704
			c-0.231,1.161-0.499,2.306-0.834,3.443c-0.746,2.524-1.793,4.943-3.055,7.252c-2.466,4.515-5.796,8.605-9.833,11.807
			c-4.063,3.22-8.863,5.721-13.997,6.648c-1.108,0.2-2.233,0.332-3.363,0.39c-1.351,0.069-2.708,0.031-4.046-0.121
			c-1.225-0.143-2.439-0.363-3.63-0.687c-1.255-0.341-2.46-0.793-3.645-1.329c-2.342-1.058-4.482-2.556-6.38-4.281
			c-2-1.818-3.775-3.936-5.124-6.28c-1.451-2.518-2.488-5.283-3.026-8.14c-0.23-1.217-0.371-2.455-0.411-3.693
			c-0.041-1.24-0.026-2.49,0.099-3.727c0.053-0.522,0.119-1.044,0.202-1.563c-0.167,0.036-0.338,0.055-0.511,0.053
			c-1.694,0.028-2.949-1.842-2.228-3.388c0.803-1.934,4.783-2.363,6.633-2.166c2.413,0.365,2.862,1.592,0.698,2.966
			c-0.648,0.453-1.309,0.89-1.991,1.291c0.001,0.03,0.004,0.061,0.006,0.091c0.055,0.758,0.112,1.514,0.195,2.271
			c0.018,0.144,0.035,0.286,0.051,0.43c0.119,0.97,0.258,1.935,0.431,2.898c0.166,0.915,0.382,1.823,0.61,2.725
			c0.409,1.548,0.888,3.071,1.48,4.559c0.469,1.122,0.998,2.211,1.59,3.274c0.52,0.899,1.078,1.77,1.692,2.605
			c0.507,0.663,1.049,1.298,1.626,1.901c0.522,0.524,1.072,1.018,1.646,1.484c0.608,0.473,1.243,0.91,1.9,1.315
			c0.72,0.425,1.461,0.814,2.223,1.159c0.834,0.359,1.687,0.663,2.558,0.926c0.897,0.251,1.804,0.451,2.724,0.6
			c0.927,0.128,1.856,0.207,2.792,0.232c1.011,0.006,2.017-0.046,3.024-0.153c1.161-0.148,2.308-0.369,3.443-0.653
			c1.176-0.313,2.326-0.697,3.455-1.144c0.996-0.417,1.964-0.887,2.909-1.41c1.092-0.627,2.143-1.32,3.155-2.069
			c1.089-0.832,2.124-1.723,3.113-2.674c1.012-1.004,1.963-2.063,2.856-3.173c0.92-1.178,1.771-2.405,2.55-3.681
			c0.753-1.266,1.427-2.574,2.03-3.918c0.782-1.798,1.438-3.635,1.995-5.513c0.276-0.964,0.508-1.938,0.683-2.925
			c-0.604-0.314-1.2-0.643-1.79-0.983c-2.586-1.221-2.118-2.561,0.464-3.172c1.699-0.382,3.482-0.378,5.123,0.245
			C303.907,168.329,305.032,168.735,305.658,169.732z"/>
		<path style="fill:#4C404F;" d="M124.628,271.611c0.654-0.098,1.355-0.197,2.032-0.167c-0.301-0.762-0.664-1.503-0.946-2.276
			c-1.455-3.575-2.476-7.326-4.39-10.703c-0.363-0.506-0.697-1.092-1.081-1.628c-0.947-0.147-1.894-0.294-2.841-0.439
			c-0.865-0.137-1.727-0.291-2.589-0.444c-2.811,1.086-5.554,2.332-8.362,3.428c-4.725,1.823-9.609,3.477-13.744,6.482
			c-1.141,0.932-2.336,1.935-2.942,3.31c-0.459,1.243-0.84,2.589-0.713,3.924c0.187,1.093,0.569,2.223,1.346,3.038
			c2.099,2.214,5.361,1.824,8.124,1.577c6.078-0.921,11.61-2.695,17.446-4.28C118.816,272.663,121.701,272.008,124.628,271.611z
			 M135.633,198.513c-1.332-0.724-2.634-1.504-3.917-2.313c-4.278-2.586-8.797-5.024-13.793-5.805
			c-7.834-1.252-12.754,3.896-12.784,11.542c0.001,0.939,0.091,1.869,0.267,2.789c1.615-0.17,3.234-0.224,4.792-0.218
			c2.168,0.085,4.38,0.223,6.585,0.472c3.958-0.322,7.679-1.642,11.323-3.143C130.64,200.792,133.087,199.536,135.633,198.513z
			 M134.56,226.816c0.212-6.116-3.782-12.603-9.913-14.109c-7.189-1.945-14.923-3.193-22.262-1.37
			c-9.626,2.234-6.873,13.764-3.998,20.686c2.032-1.896,4.569-3.302,7.166-4.086c3.236-1.121,6.671-1.421,10.077-1.323
			c1.632,0.034,3.293,0.185,4.879,0.58c3.517,0.832,6.751,2.471,9.762,4.444c0.03-0.001,0.06-0.003,0.09-0.006
			C132.533,231.022,134.107,228.967,134.56,226.816z M134.327,252.637c2.979,0.05,3.817-0.458,3.223-3.583
			c-1.019-3.319-3.32-6.046-5.591-8.597c-1.837-1.781-3.982-3.212-6.141-4.571c-2.444-1.465-5.068-2.676-7.901-3.131
			c-4.004-0.487-8.152-0.287-11.91,1.278c-1.502,0.584-2.764,1.57-3.912,2.681c-1.346,1.207-2.117,2.892-2.41,4.658
			c-0.553,4.389,2.595,9.072,5.558,12.451c0.327-0.105,0.653-0.21,0.978-0.314c0.717-0.217,1.435-0.438,2.157-0.649
			c-0.002-0.081-0.004-0.162-0.001-0.247c0.358-2.902,3.615-2.287,5.722-2.277c4.456,0.137,8.823,0.879,13.175,1.548
			C129.614,252.233,131.959,252.548,134.327,252.637z M139.136,201.801c-0.003-0.047-0.007-0.092-0.009-0.138
			c-0.215,0.083-0.431,0.163-0.647,0.244C138.7,201.872,138.918,201.836,139.136,201.801z M189.083,193.679
			c-0.178-0.279-0.357-0.543-0.544-0.779c-1.31-1.56-3.339-2.609-5.381-2.704c-1.846,0.035-3.566,0.811-5.356,1.172
			c-2.478,0.557-4.189-1.615-5.669-3.233c-1.129-1.051-2.303-2.116-3.707-2.785c-1.845-0.719-3.953-0.725-5.809-0.041
			c-2.907,1.26-5.534,3.636-7.068,6.408c-0.546,1.263-0.62,2.799-1.755,3.728c-0.674,0.556-1.431,0.908-2.243,1.212
			c-3.567,1.001-6.361,1.048-8.555,4.517c4.004-0.649,8.006-1.297,12.009-1.94C166.367,197.399,177.72,195.51,189.083,193.679z
			 M221.583,302.772c-5.704-33.501-11.446-67.001-16.426-100.617c-0.135-1.146-0.409-2.298-0.392-3.454
			c-0.089-0.787-0.264-1.577-0.244-2.369c-24.238,4.262-48.535,8.172-72.797,12.299c0.066,0.286,0.126,0.583,0.18,0.884
			c5.891,3.895,10.292,13.328,8.049,20.224c-0.804,2.4-2.58,4.437-4.798,5.551c3.617,3.277,7.372,8.514,8.315,12.852
			c0.794,4.258-0.501,7.773-3.698,9.434c3.291,19.007,6.356,38.056,9.667,57.054C173.493,310.709,197.557,306.849,221.583,302.772z
			 M225.612,299.485c0.221,2.363,1.726,5.786-0.964,7.211c-0.921,0.398-1.959,0.41-2.933,0.612
			c-6.709,1.087-13.416,2.175-20.122,3.282c-15.992,2.63-31.973,5.319-47.951,8.035c-1.698,0.209-3.382,0.691-5.089,0.779
			c-0.299,0.016-0.598,0.019-0.898,0.007c-1.694-0.174-2.501-1.612-2.607-3.179c-0.807-5.07-1.636-10.135-2.455-15.203
			c-2.275-14.145-4.572-28.289-6.783-42.445c-0.023,0.002-0.048,0.004-0.071,0.005c-1.733,0.082-3.463-0.043-5.184-0.239
			c2.446,14.959,4.932,29.908,7.421,44.86c1.426,8.012,2.825,16.029,4.24,24.042c28.661-4.867,57.34-9.651,86.065-14.128
			c-6.29-39.215-12.531-78.444-19.17-117.602c-0.391,0.07-0.783,0.139-1.174,0.208c0.173,0.464,0.25,0.961,0.372,1.44
			C214.894,231.11,220.055,265.352,225.612,299.485z M252.667,362.562c0.166-8.223,0.466-16.383,0.426-24.589
			c-0.107-4.336,1.278-20.904-6.873-14.091c-3.55,4.088-1.958,13.247-2.095,18.5c0.028,6.38,0.475,12.896-0.823,19.181
			c-0.016,0.051-0.031,0.103-0.048,0.155c3.377,0.834,6.617,2.377,9.389,4.497C252.647,364.692,252.699,363.323,252.667,362.562z
			 M255.693,419.908c-0.485-0.709-0.925-1.448-1.323-2.209c-1.658-2.895-2.425-6.229-2.511-9.548
			c-0.057-5.604,0.661-11.545,3.336-16.531c-0.68-0.669-1.149-1.568-1.693-2.357c-0.427-0.515-0.748-1.137-1.277-1.56
			c-0.124-0.048-0.219-0.162-0.227-0.307c-0.012-0.221,0.186-0.384,0.389-0.364c0.79,0.083,1.586,0.23,2.361,0.448
			c-0.753-1.366-1.178-2.967-1.47-4.432c-0.14-1.57,0.027-3.088,0.426-4.543c-0.183-0.594-0.374-1.187-0.605-1.765
			c-0.277-0.656-0.562-1.308-0.806-1.907c-0.195-0.448-0.383-0.905-0.585-1.354c-0.813-0.834-1.621-1.673-2.553-2.379
			c-4.111-3.372-9.547-4.744-14.793-4.13c-2.732,0.384-5.882,1.169-7.524,3.57c-2.146,3.744,2.816,4.353,5.287,5.29
			c1.32,0.466,2.627,0.989,3.909,1.552c3.505,1.622,7.043,3.488,9.76,6.28c0.946,0.501,0.18,2.012-0.788,1.503
			c-4.015-0.73-8.451-2.183-12.188-3.281c-3.052-1.016-6.589-1.331-9.19-3.302c-0.017,0.012-0.035,0.022-0.053,0.033
			c-3.104,2.316-6.698,3.88-10.253,5.368c-0.618,0.215-1.232,0.474-1.846,0.744c1.666,0.573,3.277,1.312,4.838,2.152
			c2.509,1.332,4.791,3.052,6.822,5.037c0.755,0.745,1.454,1.548,2.1,2.389c0.147,0.2,0.301,0.402,0.348,0.65
			c0.043,0.222-0.172,0.451-0.396,0.412c-0.507-0.138-0.904-0.538-1.359-0.792c-1.027-0.618-2.083-1.179-3.166-1.691
			c-3.835-1.648-7.779-3.074-11.848-4.029c-3.507-0.794-6.487-1.478-9.935-1.679c-1.727-0.053-3.454,0.02-5.177,0.138
			c-4.287,1.05-8.42,2.865-12.263,5.024c0.021-0.012,0.041-0.024,0.061-0.036c-7.706,4.324-18.096,13.13-18.69,22.436
			c0.13,11.126,14.986,11.386,23.205,11.709c15.489,0.126,31.007-1.358,46.235-4.133c2.168-0.115,4.205,0.978,6.398,0.856
			c3.926-0.054,7.847-0.573,11.653-1.536C252.133,421.173,253.895,420.469,255.693,419.908z M262.815,364.736
			c0.509-6.799,0.755-13.621,1.236-20.423c-1.824-0.109-3.642-0.297-5.445-0.562c-0.093,2.091-0.165,4.043-0.134,5.738
			c-0.221,5.583-0.379,11.171-0.414,16.759c-0.109,1.201,0.03,3.211-0.232,4.864c1.368-1.638,2.911-3.13,4.435-4.455
			c0.144-0.119,0.288-0.236,0.434-0.353C262.731,365.781,262.774,365.258,262.815,364.736z M281.413,331.835
			c0.011-3.639,0.072-7.59-2.198-10.649c-2.086-2.707-4.85-0.221-5.86,2.104c-1.118,2.781-1.592,5.753-2.064,8.697
			c-0.917,6.143-1.392,12.336-2.071,18.507c-0.597,4.234-1.023,8.542-2.1,12.687c3.629-2.245,7.597-3.98,11.722-5.072
			c0.121-2.196,0.319-4.387,0.641-6.563C280.347,345.001,281.225,338.44,281.413,331.835z M326.978,250.414
			c0.319-2.219,0.639-4.438,0.96-6.657c-1.23-0.622-2.364-1.409-3.344-2.44c-2.43-2.863-2.252-6.684-0.683-9.931
			c-1.03-1.073-2.112-2.097-3.242-3.066c-1.637-1.377-3.348-2.652-5.133-3.83c-2.221-1.434-4.531-2.71-6.907-3.867
			c-2.988-1.423-6.065-2.624-9.206-3.669c-3.713-1.207-7.493-2.183-11.329-2.914c-0.055-0.01-0.107-0.02-0.162-0.03
			c-4.264-0.778-8.572-1.268-12.901-1.501c-1.426-0.071-2.852-0.112-4.279-0.126c-2.946-0.027-5.889,0.076-8.827,0.301
			c-0.171,0.013-0.342,0.027-0.514,0.041c-4.147,0.358-8.262,0.978-12.33,1.868c-0.739,0.168-1.476,0.344-2.21,0.53
			c-1.016,0.375-2.029,0.76-3.038,1.156c-5.099,1.958-10.124,4.119-15.05,6.475c-1.723,0.816-3.371,1.776-5.075,2.625
			c-0.436,0.201-0.938,0.446-1.449,0.617c-0.119,0.792-0.238,1.584-0.357,2.376c-0.391,2.759-0.786,5.517-1.186,8.273
			c1.721,10.202,3.458,20.401,5.172,30.604c2.424,14.211,4.712,28.451,7.196,42.652c0.244,1.785,0.84,3.551,0.817,5.357
			c-0.063,1.607-1.407,2.9-2.999,3.008c-1.781,0.323-3.561,0.641-5.344,0.952c3.573,4.357,7.865,8.169,12.775,11.243
			c0.27-4.592,1.377-9.108,5.388-11.809c4.302-3.185,9.626-2.58,12.667,1.966c2.518,4.099,2.684,10.94,2.464,17.492
			c1.884,0.299,3.775,0.5,5.661,0.604c0.227-2.372,0.499-4.741,0.837-7.103c0.453-3.382,1.036-6.789,2.522-9.893
			c1.94-4.619,7.35-8.78,12.416-6.426c1.79,0.706,3.187,2.113,4.2,3.717c3.124,4.794,2.954,10.746,2.687,16.284
			c6.369-2.353,12.28-5.847,17.356-10.34c-0.04-0.193-0.073-0.409-0.098-0.639c-7.661-0.322-17.701-4.015-18.074-12.774
			c-0.273-3.529,0.648-7.137,2.726-10.019c0.245-0.314,0.516-0.642,0.815-0.95c-3.988-2.669-6.758-6.765-6.794-12.262
			c0.348-7.069,5.03-13.308,10.51-17.46c4.154-3.053,9.31-5.149,14.511-5.127c0.138,0.023,0.276,0.043,0.415,0.062
			c0.069-0.841,0.19-1.661,0.357-2.439c1.573-7.174,8.618-11.757,15.549-12.777C325.284,250.462,326.129,250.412,326.978,250.414z
			 M341.868,149.576c0.35-5.92,0.613-11.844,0.297-17.756c-3.21-17.359-14.826-32.438-31.899-39.502
			c-26.398-11.009-57.38,0.052-69.992,24.612c-0.814,2.106-1.574,4.227-2.207,6.374c-0.915,3.196-1.675,6.431-2.458,9.66
			c-0.342,2.709-0.705,5.416-1.069,8.122c-3.688,26.395-7.485,52.776-11.419,79.138c1.327-0.865,2.668-1.561,3.373-1.933
			c1.158-0.579,2.318-1.158,3.486-1.718c0.459-0.245,0.92-0.484,1.382-0.721c1.269-0.648,2.558-1.262,3.868-1.826
			c2.537-1.092,5.129-2.048,7.765-2.871c2.647-0.828,5.339-1.498,7.721-2.026c5.904-1.31,11.934-2.091,17.979-2.308
			c2.076-0.074,4.153-0.082,6.228-0.026c0.134-0.006,0.267-0.001,0.399,0.013c3.874,0.123,7.741,0.475,11.577,1.064
			c0.732,0.112,1.461,0.239,2.189,0.369c0.253,0.046,0.507,0.095,0.761,0.141c0.249,0.041,0.496,0.093,0.75,0.142
			c0.393,0.077,0.786,0.155,1.178,0.236c2.857,0.598,5.687,1.33,8.466,2.225c5.547,1.787,10.893,4.187,15.868,7.231
			c4.039,2.471,7.868,5.399,11.176,8.809c0.496-0.416,1.019-0.785,1.561-1.098c0.573-0.336,1.175-0.578,1.792-0.743
			c1.312-8.941,2.64-17.88,3.983-26.816c1.086-7.667,2.206-15.327,3.375-22.976C339.212,166.777,340.467,158.166,341.868,149.576z
			 M348.62,311.564c0.332-0.668,0.571-1.44,0.904-2.138c-4.347-1.798-7.993-5.394-10.137-9.559
			c-3.611-7.021-4.231-16.415-1.525-23.837c1.28-3.357,3.469-6.591,6.26-9.038c-1.929-1.186-2.699-3.686-4.395-5.191
			c-2.948-2.99-6.976-4.673-11.068-5.381c-2.984-0.453-6.084,0.316-8.757,1.647c-5.673,2.541-8.218,9.309-6.662,15.152
			c0.119,0.393,0.247,0.788,0.399,1.173c1.336-1.047,2.757-1.981,4.273-2.76c2.21-1.428,6.66-2.258,6.293,1.666
			c-0.702,2.146-3.128,2.915-4.947,3.886c-4.255,1.972-8.071,4.697-11.838,7.462c-0.947,0.489-2.161,2.484-3.213,1.388
			c-0.383-0.446-0.255-1.194,0.232-1.485c0.827-1.278,1.798-2.465,2.754-3.645c1.356-1.685,2.822-3.309,4.419-4.784
			c-1.756-1.702-2.675-4.108-2.997-6.627c-6.127,1.645-11.908,4.967-15.83,10.016c-2.62,3.604-5.222,8.579-2.648,12.866
			c2.706,4.68,8.056,6.951,13.28,7.235c0.976,0.074,1.9,0.318,2.733,0.836c0.943,0.06,1.951,0.504,1.987,1.584
			c0.058,1.04-0.88,1.746-1.867,1.689c-0.946,0.285-1.847,0.71-2.873,0.575c-3.628,0.065-7.384-0.655-10.663-2.151
			c-0.905,2.452-1.501,5.021-1.218,7.669c0.19,3.029,1.375,4.66,3.999,6.113c4.259,2.415,9.26,2.716,14.04,2.313
			c2.242-0.222,4.562-0.068,6.692-0.9c2.276-0.701,3.406,2.643,1.149,3.461c-1.791,0.465-3.306,1.5-4.997,2.201
			c-1.207,0.476-2.458,0.831-3.732,1.054c2.482,2.64,5.565,4.25,9.569,4.843c10.815,1.055,22.635-3.725,28.293-13.282
			C347.307,314.306,347.994,312.955,348.62,311.564z M354.832,418.841c3.532-2.622,6.677-6.689,6.097-11.318
			c-0.465-3.148-1.793-6.16-3.692-8.704c-5.514-7.381-14.579-10.723-23.098-13.309c-4.214-1.306-8.597-1.923-13.002-1.991
			c-0.31-0.015-0.622-0.025-0.933-0.033c-1.993,0.638-3.929,1.477-5.804,2.376c-3.262,1.567-6.426,3.362-9.387,5.444
			c-1.157,0.901-2.217,1.917-3.214,2.99c-0.439,0.461-0.844,0.952-1.312,1.382c-0.13,0.222-0.482,0.257-0.653,0.055
			c-0.159-0.187-0.099-0.438,0.062-0.569c1.194-1.804,2.377-3.622,3.713-5.325c2.641-3.479,6.072-6.622,10.075-8.408
			c-2.689-1.66-5.712-2.854-8.823-3.413c-2.182-0.339-4.389-0.245-6.586-0.133c-2.924,0.057-5.804,0.541-8.655,1.164
			c-0.845,0.209-1.707,0.131-2.558,0.005c-1.363,0.276-2.758-0.046-3.258-1.498c-0.389-1.175,0.26-2.607,1.486-2.961
			c0.665-0.131,1.196-0.531,1.783-0.836c1.223-0.538,2.589-0.61,3.894-0.821c1.736-0.277,3.464-0.285,5.176-0.106
			c1.222-2.71,1.855-5.203-0.762-7.666c-2.697-2.837-6.941-2.535-10.527-2.22c-6.442,0.977-12.65,3.483-17.867,7.402
			c-4.81,3.65-10.533,9.781-7.853,16.056c3.934-3.897,9.156-6.531,14.612-7.371c1.03-0.098,4.332-0.625,3.771,1.228l-0.006,0.003
			c-0.222,0.468-0.765,0.762-1.175,1.05c-1.414,0.999-2.918,1.856-4.413,2.727c-2.013,1.139-3.949,2.414-5.807,3.792
			c-2.474,1.935-4.711,4.298-6.049,7.168c-1.984,4.645-2.539,9.862-2.098,14.868c0.44,3.227,2.046,6.253,4.242,8.632
			c2.861,2.806,6.898,3.741,10.726,4.396c5.879,0.79,11.823,0.683,17.736,0.444c3.074-0.047,6.161-0.514,9.228-0.144
			c3.283,0.516,6.457,1.568,9.753,2.03c6.023,0.761,12.115,0.652,18.174,0.599c2.879-0.009,5.755-0.119,8.618-0.441
			C343.149,424.634,349.434,423.102,354.832,418.841z M361.747,265.177c0.228-1.095,0.274-2.227,0.042-3.318
			c-0.468-1.656-1.603-3.033-2.691-4.332c-1.42-1.48-3.182-2.548-4.924-3.602c-3.133-1.93-6.58-3.395-9.932-4.863
			c-1.758-0.787-3.462-1.533-5.162-2.265c-0.571-0.057-1.139-0.148-1.702-0.303c-1.179-0.269-2.399-0.515-3.618-0.798
			c-0.273,1.851-0.548,3.702-0.82,5.554c4.517,1.243,8.741,3.804,11.796,7.17c1.268,1.773,3.255,3.539,3.588,5.763
			c2.444-1.179,5.143-1.751,7.971-1.442C358.124,263.041,360.326,263.801,361.747,265.177z M366.629,293.458
			c0.035-0.242,0.068-0.483,0.099-0.725c-4.083,1.13-8.441,0.686-12.4-2.201c-4.292-2.629-5.087-8.772-3.937-12.103
			c-0.07-0.869,0.295-1.775,1.085-2.273c1.777-1.148,3.727-1.933,5.213-3.516c1.066-1.102,2.182-2.202,3.124-3.422
			c-1.471-0.379-2.915-0.938-4.433-1.149c-11.203-1.312-18.139,12.552-15.518,22.21c0.99,4.25,3.351,8.138,6.653,10.99
			c5.462,4.172,12.545,5.005,17.212-0.786C365.359,298.475,366.265,296.003,366.629,293.458z M378.667,265.559
			c0.089-12.768-10.785-22.255-21.421-27.482c-5.58-2.795-11.5-4.826-17.426-6.748c-0.791-0.36-2.575-0.762-4.355-1.303
			c-1.022,0.09-2.034,0.236-3.03,0.479c-2.197,1.122-3.814,3.699-3.716,6.185c1.129,3.204,4.959,3.865,7.911,4.99
			c3.483,0.729,6.896,1.785,10.26,2.941c3.088,1.031,6.131,2.211,9.009,3.738c2.945,1.566,5.902,3.266,8.103,5.822
			c2.702,3.123,4.406,6.59,3.811,10.813c-0.326,3.587-2.037,6.685-4.457,9.293c-1.432,1.597-2.99,3.141-4.861,4.219
			c-1.016,0.5-2.443,1.364-3.851,1.83c-0.117,0.725-0.139,1.472,0.287,2.25c1.89,5.284,9.081,5.912,13.295,3.092
			C375.03,281.492,378.419,273.294,378.667,265.559z M383.822,258.641c1.903,7.764,0.301,16.41-3.805,23.186
			c-2.112,3.758-5.396,7.115-9.187,9.213c0.707,2.12,0.675,4.515,0.264,6.677c-1.409,7.098-7.956,12.744-15.214,12.931
			c-0.208,0.005-0.414,0.005-0.621,0c-0.028,0.343-0.113,0.692-0.265,1.037c-4.879,14.221-17.66,22.709-32.486,23.206
			c-5.137,0.204-11.074-1.308-14.85-4.961c-6.298,5.406-13.45,9.256-20.965,11.624c-0.441,4.592-1.038,9.169-1.716,13.73
			c-0.09,0.579-0.194,1.155-0.304,1.729c0.936-0.104,1.877-0.174,2.82-0.207c3.48-0.069,7.142,0.326,10.043,2.417
			c4.36,2.85,6.961,8.433,5.081,13.493c-0.137,0.479-0.315,0.944-0.534,1.389c1.057,0.323,2.102,0.685,3.133,1.065
			c3.332,1.065,6.476,2.356,9.914,2.773c0.984-0.066,1.91-0.504,2.919-0.444c2.369-0.029,4.739,0.092,7.102,0.232
			c6.419,0.444,12.583,2.508,18.582,4.718c7.671,2.91,15.052,7.495,19.519,14.545c7.87,12.77,2.481,23.279-9.937,29.891
			c-8.774,4.506-18.982,4.897-28.653,4.514c-4.697-0.165-9.388-0.495-14.046-1.137c-3.4-0.443-6.737-1.337-10.164-1.565
			c-1.082-0.035-2.135,0.243-3.212,0.308c-2.289,0.138-4.578,0.239-6.869,0.328c-9.221,0.234-20.398,0.769-28.679-3.809
			c-0.866-0.481-1.678-1.04-2.432-1.665c-0.102,0.12-0.217,0.235-0.349,0.341c-6.008,4.489-13.869,3.085-20.847,2.785
			c-1.039,0.012-2.095-0.022-3.115,0.195c-0.647,0.299-1.254,0.685-1.96,0.842c-1.616,0.427-3.259,0.754-4.895,1.093
			c-11.784,1.914-23.588,2.941-35.499,3.289c-8.246,0.051-16.779,0.188-24.628-2.676c-9.179-3.42-13.506-12.495-9.545-21.618
			c6.079-13.269,20.311-20.57,33.769-24.334c4.118-1.071,8.42-1.351,12.485-2.64c4.886-1.863,9.966-3.173,15.014-4.523
			c0.615-0.159,1.242-0.343,1.876-0.488c-2.411-4.757,1.291-10.814,6.019-12.842c3.549-1.888,7.638-2.372,11.616-2.176
			c-0.668-7.979-0.712-16.008-0.899-24.012c-7.491-4.009-14.147-9.624-19.314-16.749c-2.036,0.346-4.074,0.686-6.111,1.027
			c-22.593,3.784-45.183,7.582-67.807,11.183c-1.309,0.135-2.653,0.545-3.982,0.613c-0.636,0.033-1.269-0.013-1.893-0.203
			c-1.774-0.597-2.311-2.329-2.464-4.029c-0.363-2.191-0.67-4.391-1.018-6.585c-2.334-15.364-4.852-30.702-7.386-46.037
			c-0.598,0.405-1.326,0.654-2.001,0.775c-2.446,0.685-4.942,1.136-7.41,1.732c-4.356,1.167-8.673,2.484-13.066,3.511
			c-3.099,0.76-6.239,1.429-9.438,1.527c-5.621,0.47-11.229-2.347-12.844-8.006c-0.671-2.034-0.65-4.222-0.145-6.292
			c0.577-3.117,2.406-5.828,4.864-7.791c3.768-3.037,8.22-4.963,12.773-6.558c-0.885-0.654-1.701-1.403-2.436-2.209
			c-3.552-3.937-5.847-9.394-4.203-14.67c0.461-1.654,1.266-3.166,2.311-4.507c-1.664-1.199-2.809-3.124-3.803-4.875
			c-3.183-5.643-3.921-13.437,0.354-18.715c2.333-2.815,5.605-4.297,9.104-5.043c-2.537-3.095-2.153-8.618-0.757-12.064
			c1.996-5.214,7.282-8.472,12.743-8.781c7.25-0.56,14.618,3.161,20.477,6.77c1.806,1.039,3.777,2.377,5.331,3.649
			c0.492,0.284,0.92,0.684,1.224,1.151c2.591-2.75,6.876-4.353,10.298-4.601c0.81-0.68,1.273-1.687,1.986-2.466
			c2.105-2.458,4.609-4.614,7.427-6.217c3.184-1.753,7.161-2.663,10.632-1.228c2.043,0.852,3.91,2.145,5.34,3.844
			c0.549,0.62,1.089,1.307,1.346,2.103c3.463-0.16,6.939-1.523,10.387-0.488c1.666,0.438,3.204,1.303,4.256,2.692
			c0.603,0.844,1.377,2.007,1.831,3.189c3.737-0.594,7.476-1.18,11.217-1.754c1.382-0.211,2.771-0.471,4.165-0.599
			c0.837-0.078,1.728,0.096,2.369,0.673c1.116,0.991,0.915,2.628,1.218,3.969c0.215,1.386,0.434,2.771,0.656,4.155
			c0.957,6,1.936,11.995,2.928,17.99c2.156-14.997,4.411-29.983,6.612-44.973c0.748-5.301,1.515-10.598,2.306-15.892
			c0.28-1.964,0.559-3.928,0.836-5.891c0.85-6.089,1.649-12.185,2.58-18.263c0.166-0.877,0.222-1.799,0.538-2.641
			c0-0.001,0-0.001,0-0.001c0.035-0.188,0.072-0.375,0.111-0.563c-0.239-0.957,0.077-1.904,0.214-2.855
			c2.199-9.875,7.693-18.981,15.014-26.237c28.744-28.542,79.121-20.951,96.736,14.733c2.118,4.259,3.644,8.801,4.461,13.455
			c0.001,0.002,0.001,0.005,0.002,0.007c1.798,7.47,1.367,15.553-0.265,23.034c-0.325,3.164-0.669,6.327-1.051,9.484
			c-2.525,21.623-5.604,43.181-8.776,64.728c6.79,0.894,17.125,4.777,19.704,5.93C368.501,236.346,380.512,245.409,383.822,258.641z
			"/>
		<path style="fill:#4C404F;" d="M166.19,189.391c3.042,1.714,0.576,6.23-2.49,4.706c-1.08-0.579-1.414-1.841-1.191-2.984
			C162.822,189.512,164.759,188.605,166.19,189.391z"/>
		<path style="fill:#4C404F;" d="M194.639,235.453c-0.125-0.128-0.243-0.265-0.355-0.408c-1.008-1.052-1.805-2.286-2.862-3.29
			c-0.81,1.367-1.916,2.51-2.982,3.679c-3.078,3.276-5.861,6.812-8.413,10.51c-3.572,5.039-6.647,10.399-9.479,15.883
			c-0.702,1.519-2.034,2.894-3.83,2.216c-1.497-0.612-2.284-2.267-3.43-3.35c-1.8-1.968-3.583-4.015-5.795-5.534
			c-0.894,1.396-2.13,2.53-3.276,3.714c-0.464,0.418-1.456,1.49-2.482,2.27c0.783,0.362,1.526,0.815,1.835,0.996
			c6.019,3.829,11.154,8.887,16.174,13.914c2.6-3.594,4.495-7.637,6.545-11.557c2.844-5.663,5.953-11.183,9.223-16.608
			c2.237-3.666,4.747-7.168,7.479-10.48C193.544,236.761,194.077,236.092,194.639,235.453z M198.726,234.581
			c0.994,0.818,1.37,2.357,0.528,3.535c-5.441,7.235-11.024,14.394-15.625,22.213c-3.27,5.371-5.924,11.078-9.008,16.549
			c-1.233,2.019-2.65,4.902-5.391,4.79c-2.177-0.202-3.539-2.33-5.057-3.687c-3.725-3.724-7.079-7.786-10.601-11.697
			c-1.107-1.22-2.239-2.417-3.378-3.608c-0.2-0.231-0.44-0.439-0.639-0.674c-0.209-0.054-0.395-0.18-0.546-0.392
			c-0.969-2.213,3.128-7.953,4.827-9.444c2.807-2.584,5.336-0.515,7.618,1.563c2.137,1.925,4.399,3.713,6.398,5.789
			c3.74-5.639,6.767-11.733,10.624-17.307c2.273-3.432,4.648-6.799,7.166-10.054c0.856-1.127,1.751-2.217,2.844-3.118
			c1.478-1.789,3.227-1.583,4.963-0.281c1.49,1.005,2.912,2.139,4.151,3.444C198.294,232.789,198.792,233.708,198.726,234.581z"/>
		<path style="fill:#1A9DBE;" d="M327.938,243.757c-0.321,2.22-0.641,4.438-0.96,6.657c-0.849-0.002-1.694,0.048-2.531,0.154
			c-6.932,1.019-13.977,5.603-15.549,12.777c-0.167,0.778-0.288,1.598-0.357,2.439c-0.139-0.019-0.277-0.039-0.415-0.062
			c-5.201-0.022-10.357,2.074-14.511,5.127c-5.48,4.152-10.162,10.39-10.51,17.46c0.036,5.497,2.806,9.593,6.794,12.262
			c-0.299,0.308-0.57,0.636-0.815,0.95c-2.078,2.882-2.999,6.489-2.726,10.019c0.372,8.759,10.412,12.452,18.074,12.774
			c0.025,0.23,0.058,0.446,0.098,0.639c-5.075,4.493-10.987,7.987-17.356,10.34c0.267-5.538,0.438-11.49-2.687-16.284
			c-1.012-1.604-2.41-3.011-4.2-3.717c-5.066-2.354-10.475,1.807-12.416,6.426c-1.486,3.103-2.069,6.51-2.522,9.893
			c-0.339,2.362-0.611,4.731-0.837,7.103c-1.887-0.104-3.777-0.305-5.661-0.604c0.221-6.552,0.055-13.393-2.464-17.492
			c-3.04-4.546-8.364-5.151-12.667-1.966c-4.012,2.701-5.119,7.217-5.388,11.809c-4.911-3.074-9.203-6.886-12.775-11.243
			c1.783-0.311,3.563-0.628,5.344-0.952c1.592-0.107,2.936-1.401,2.999-3.008c0.022-1.806-0.573-3.572-0.817-5.357
			c-2.483-14.201-4.772-28.44-7.196-42.652c-1.714-10.203-3.451-20.402-5.172-30.604c0.4-2.757,0.795-5.514,1.186-8.273
			c0.119-0.792,0.238-1.584,0.357-2.376c0.511-0.171,1.014-0.416,1.449-0.617c1.705-0.849,3.352-1.809,5.075-2.625
			c4.926-2.356,9.951-4.517,15.05-6.475c1.009-0.396,2.022-0.781,3.038-1.156c0.734-0.186,1.471-0.362,2.21-0.53
			c4.069-0.89,8.183-1.51,12.33-1.868c0.172-0.014,0.343-0.028,0.514-0.041c2.938-0.225,5.881-0.328,8.827-0.301
			c1.427,0.014,2.853,0.055,4.279,0.126c4.329,0.234,8.638,0.724,12.901,1.501c0.055,0.01,0.107,0.02,0.162,0.03
			c3.835,0.731,7.616,1.707,11.329,2.914c3.141,1.045,6.218,2.245,9.206,3.669c2.376,1.157,4.686,2.433,6.907,3.867
			c1.784,1.178,3.496,2.453,5.133,3.83c1.13,0.969,2.213,1.993,3.242,3.066c-1.569,3.247-1.747,7.068,0.683,9.931
			C325.573,242.348,326.708,243.135,327.938,243.757z"/>
		<path style="fill:#EFF9FB;" d="M270.651,162.157c0.078-2.231,0.092-4.497-0.305-6.703c-0.231-1.28-0.622-2.532-1.294-3.652
			c-0.569-0.948-1.464-1.789-2.535-2.125c-0.688-0.216-1.419-0.29-2.13-0.138c-0.658,0.141-1.308,0.412-1.851,0.814
			c-0.486,0.36-0.933,0.754-1.318,1.222c-0.401,0.488-0.745,1.004-1.054,1.554c-0.342,0.615-0.592,1.288-0.81,1.956
			c-0.25,0.768-0.481,1.546-0.685,2.328c-0.754,2.879-1.224,5.852-1.162,8.833c0.025,1.141,0.082,2.28,0.312,3.4
			c0.015,0.077,0.033,0.154,0.049,0.232c0.02,0.153,0.042,0.306,0.066,0.458c0.141,0.856,0.394,1.694,0.739,2.489
			c0.383,0.878,0.922,1.747,1.658,2.375c0.448,0.383,0.956,0.722,1.527,0.891c0.458,0.137,0.918,0.196,1.376,0.173
			c0.297-0.015,0.592-0.065,0.888-0.151c1.127-0.32,2.012-1.127,2.734-2.015c0.656-0.845,1.187-1.769,1.643-2.737
			c0.383-0.813,0.737-1.637,1.001-2.495C270.172,166.689,270.571,164.434,270.651,162.157z M289.397,162.903
			c0.079-2.231,0.092-4.497-0.305-6.702c-0.23-1.28-0.621-2.532-1.292-3.652c-0.569-0.948-1.464-1.789-2.535-2.126
			c-0.689-0.216-1.42-0.29-2.131-0.137c-0.657,0.141-1.306,0.411-1.849,0.814c-0.487,0.358-0.933,0.753-1.318,1.222
			c-0.4,0.488-0.746,1.004-1.054,1.554c-0.342,0.614-0.592,1.287-0.81,1.954c-0.251,0.768-0.481,1.546-0.687,2.328
			c-0.754,2.879-1.224,5.852-1.161,8.834c0.025,1.139,0.081,2.28,0.311,3.399c0.016,0.078,0.033,0.155,0.05,0.232
			c0.019,0.154,0.041,0.307,0.066,0.459c0.14,0.856,0.392,1.694,0.739,2.488c0.383,0.878,0.921,1.748,1.658,2.375
			c0.448,0.384,0.955,0.722,1.526,0.891c0.459,0.137,0.918,0.196,1.378,0.173c0.295-0.015,0.591-0.064,0.889-0.149
			c1.125-0.321,2.012-1.127,2.734-2.015c0.655-0.847,1.187-1.769,1.643-2.737c0.382-0.813,0.737-1.637,0.999-2.496
			C288.919,167.435,289.318,165.181,289.397,162.903z M302.891,173.509c2.134,0.42,4.047-1.728,2.767-3.777
			c-0.627-0.997-1.751-1.402-2.802-1.799c-1.642-0.623-3.424-0.627-5.123-0.245c-2.581,0.612-3.05,1.951-0.464,3.172
			c0.59,0.34,1.186,0.669,1.79,0.983c-0.175,0.987-0.407,1.96-0.683,2.925c-0.557,1.879-1.213,3.715-1.995,5.513
			c-0.604,1.344-1.277,2.653-2.03,3.918c-0.779,1.276-1.63,2.503-2.55,3.681c-0.893,1.11-1.844,2.169-2.856,3.173
			c-0.989,0.95-2.023,1.841-3.113,2.674c-1.012,0.748-2.063,1.442-3.155,2.069c-0.946,0.523-1.914,0.994-2.909,1.41
			c-1.129,0.447-2.279,0.831-3.455,1.144c-1.135,0.284-2.283,0.504-3.443,0.653c-1.007,0.107-2.013,0.159-3.024,0.153
			c-0.935-0.026-1.865-0.104-2.792-0.232c-0.92-0.149-1.827-0.349-2.724-0.6c-0.871-0.263-1.724-0.567-2.558-0.926
			c-0.762-0.346-1.503-0.734-2.223-1.159c-0.656-0.405-1.291-0.842-1.9-1.315c-0.574-0.466-1.124-0.96-1.646-1.484
			c-0.578-0.602-1.12-1.238-1.626-1.901c-0.614-0.835-1.172-1.706-1.692-2.605c-0.592-1.062-1.121-2.152-1.59-3.274
			c-0.592-1.489-1.072-3.011-1.48-4.559c-0.228-0.902-0.444-1.81-0.61-2.725c-0.173-0.963-0.312-1.928-0.431-2.898
			c-0.016-0.144-0.034-0.286-0.051-0.43c-0.083-0.757-0.14-1.513-0.195-2.271c-0.002-0.03-0.005-0.061-0.006-0.091
			c0.682-0.402,1.343-0.838,1.991-1.291c2.163-1.373,1.715-2.6-0.698-2.966c-1.849-0.197-5.83,0.232-6.633,2.166
			c-0.722,1.546,0.534,3.416,2.228,3.388c0.174,0.002,0.344-0.016,0.511-0.053c-0.083,0.52-0.15,1.041-0.202,1.563
			c-0.125,1.236-0.14,2.487-0.099,3.727c0.04,1.238,0.181,2.476,0.411,3.693c0.538,2.857,1.575,5.622,3.026,8.14
			c1.35,2.344,3.124,4.462,5.124,6.28c1.897,1.726,4.037,3.224,6.38,4.281c1.185,0.536,2.39,0.988,3.645,1.329
			c1.191,0.323,2.405,0.544,3.63,0.687c1.338,0.153,2.695,0.19,4.046,0.121c1.129-0.058,2.255-0.19,3.363-0.39
			c5.134-0.927,9.934-3.428,13.997-6.648c4.037-3.203,7.367-7.292,9.833-11.807c1.262-2.308,2.309-4.727,3.055-7.252
			c0.335-1.137,0.602-2.283,0.834-3.443C302.81,173.978,302.852,173.743,302.891,173.509z M342.164,131.82
			c0.316,5.913,0.054,11.837-0.297,17.756c-1.401,8.59-2.656,17.2-3.868,25.816c-1.17,7.65-2.289,15.309-3.375,22.976
			c-1.343,8.936-2.67,17.875-3.983,26.816c-0.618,0.165-1.219,0.406-1.792,0.743c-0.542,0.313-1.065,0.682-1.561,1.098
			c-3.308-3.411-7.137-6.339-11.176-8.809c-4.975-3.044-10.321-5.443-15.868-7.231c-2.779-0.896-5.609-1.628-8.466-2.225
			c-0.392-0.081-0.785-0.159-1.178-0.236c-0.253-0.049-0.501-0.102-0.75-0.142c-0.255-0.047-0.508-0.096-0.761-0.141
			c-0.728-0.13-1.457-0.257-2.189-0.369c-3.837-0.589-7.704-0.941-11.577-1.064c-0.132-0.014-0.265-0.019-0.399-0.013
			c-2.075-0.056-4.152-0.048-6.228,0.026c-6.046,0.217-12.075,0.998-17.979,2.308c-2.382,0.528-5.074,1.198-7.721,2.026
			c-2.636,0.823-5.228,1.779-7.765,2.871c-1.31,0.564-2.599,1.178-3.868,1.826c-0.462,0.237-0.923,0.476-1.382,0.721
			c-1.169,0.559-2.328,1.138-3.486,1.718c-0.705,0.372-2.046,1.068-3.373,1.933c3.933-26.362,7.73-52.743,11.419-79.138
			c0.364-2.705,0.727-5.413,1.069-8.122c0.782-3.229,1.542-6.465,2.458-9.66c0.633-2.147,1.393-4.267,2.207-6.374
			c12.612-24.56,43.594-35.621,69.992-24.612C327.339,99.382,338.955,114.461,342.164,131.82z"/>
		<path style="fill:#EFF9FB;" d="M366.728,292.733c-0.031,0.242-0.064,0.483-0.099,0.725c-0.364,2.544-1.27,5.017-2.903,7.026
			c-4.667,5.791-11.75,4.957-17.212,0.786c-3.302-2.852-5.663-6.74-6.653-10.99c-2.621-9.658,4.315-23.523,15.518-22.21
			c1.518,0.211,2.962,0.769,4.433,1.149c-0.942,1.22-2.058,2.32-3.124,3.422c-1.486,1.582-3.436,2.368-5.213,3.516
			c-0.789,0.499-1.155,1.405-1.085,2.273c-1.15,3.331-0.355,9.474,3.937,12.103C358.287,293.42,362.646,293.863,366.728,292.733z"/>
		<path style="fill:#EFF9FB;" d="M349.523,309.426c-0.333,0.698-0.572,1.47-0.904,2.138c-0.626,1.392-1.312,2.743-2.088,4.054
			c-5.658,9.557-17.478,14.337-28.293,13.282c-4.005-0.593-7.087-2.203-9.569-4.843c1.274-0.223,2.524-0.578,3.732-1.054
			c1.691-0.701,3.206-1.736,4.997-2.201c2.257-0.817,1.127-4.161-1.149-3.461c-2.131,0.832-4.451,0.678-6.692,0.9
			c-4.78,0.403-9.781,0.102-14.04-2.313c-2.623-1.454-3.809-3.085-3.999-6.113c-0.284-2.648,0.313-5.217,1.218-7.669
			c3.28,1.496,7.036,2.216,10.663,2.151c1.026,0.135,1.928-0.29,2.873-0.575c0.987,0.056,1.925-0.649,1.867-1.689
			c-0.036-1.08-1.044-1.525-1.987-1.584c-0.834-0.518-1.757-0.762-2.733-0.836c-5.224-0.285-10.573-2.556-13.28-7.235
			c-2.574-4.287,0.028-9.262,2.648-12.866c3.922-5.05,9.702-8.371,15.83-10.016c0.322,2.52,1.241,4.925,2.997,6.627
			c-1.597,1.475-3.064,3.099-4.419,4.784c-0.956,1.18-1.928,2.367-2.754,3.645c-0.487,0.291-0.615,1.039-0.232,1.485
			c1.052,1.096,2.266-0.899,3.213-1.388c3.767-2.765,7.583-5.49,11.838-7.462c1.819-0.97,4.245-1.74,4.947-3.886
			c0.367-3.924-4.083-3.094-6.293-1.666c-1.517,0.779-2.938,1.713-4.273,2.76c-0.152-0.385-0.28-0.78-0.399-1.173
			c-1.556-5.844,0.989-12.612,6.662-15.152c2.673-1.331,5.772-2.1,8.757-1.647c4.092,0.709,8.12,2.391,11.068,5.381
			c1.695,1.505,2.466,4.005,4.395,5.191c-2.792,2.447-4.981,5.681-6.26,9.038c-2.706,7.422-2.086,16.816,1.525,23.837
			C341.53,304.032,345.177,307.628,349.523,309.426z"/>
		<path style="fill:#EFF9FB;" d="M131.715,196.2c1.283,0.809,2.585,1.589,3.917,2.313c-2.545,1.023-4.993,2.279-7.527,3.324
			c-3.644,1.501-7.365,2.821-11.323,3.143c-2.205-0.249-4.417-0.387-6.585-0.472c-1.557-0.006-3.177,0.048-4.792,0.218
			c-0.176-0.92-0.266-1.85-0.267-2.789c0.029-7.646,4.949-12.794,12.784-11.542C122.918,191.176,127.438,193.614,131.715,196.2z"/>
		<path style="fill:#EFF9FB;" d="M124.647,212.707c6.131,1.506,10.125,7.993,9.913,14.109c-0.453,2.152-2.027,4.207-4.197,4.816
			c-0.03,0.002-0.059,0.005-0.09,0.006c-3.011-1.973-6.245-3.611-9.762-4.444c-1.587-0.396-3.247-0.546-4.879-0.58
			c-3.406-0.098-6.841,0.202-10.077,1.323c-2.598,0.785-5.135,2.19-7.166,4.086c-2.876-6.921-5.629-18.452,3.998-20.686
			C109.725,209.514,117.458,210.762,124.647,212.707z"/>
		<path style="fill:#EFF9FB;" d="M137.55,249.054c0.594,3.126-0.244,3.633-3.223,3.583c-2.368-0.089-4.713-0.404-7.055-0.753
			c-4.352-0.669-8.718-1.412-13.175-1.548c-2.108-0.01-5.364-0.626-5.722,2.277c-0.002,0.085-0.001,0.167,0.001,0.247
			c-0.722,0.211-1.44,0.432-2.157,0.649c-0.326,0.104-0.651,0.209-0.978,0.314c-2.962-3.379-6.111-8.062-5.558-12.451
			c0.293-1.766,1.064-3.451,2.41-4.658c1.149-1.11,2.411-2.097,3.912-2.681c3.758-1.566,7.907-1.765,11.91-1.278
			c2.832,0.455,5.457,1.666,7.901,3.131c2.159,1.359,4.305,2.79,6.141,4.571C134.229,243.008,136.53,245.735,137.55,249.054z"/>
		<path style="fill:#EFF9FB;" d="M126.66,271.444c-0.676-0.03-1.378,0.069-2.032,0.167c-2.927,0.397-5.812,1.052-8.661,1.824
			c-5.835,1.585-11.367,3.359-17.446,4.28c-2.762,0.246-6.025,0.636-8.124-1.577c-0.778-0.815-1.159-1.945-1.346-3.038
			c-0.126-1.336,0.254-2.681,0.713-3.924c0.606-1.375,1.802-2.378,2.942-3.31c4.136-3.005,9.019-4.66,13.744-6.482
			c2.808-1.096,5.551-2.342,8.362-3.428c0.862,0.153,1.723,0.307,2.589,0.444c0.947,0.145,1.894,0.292,2.841,0.439
			c0.384,0.536,0.718,1.122,1.081,1.628c1.914,3.376,2.935,7.128,4.39,10.703C125.996,269.941,126.359,270.682,126.66,271.444z"/>
		<path style="fill:#FFFFFF;" d="M357.246,238.077c10.636,5.227,21.51,14.714,21.421,27.482
			c-0.248,7.735-3.637,15.934-10.439,20.118c-4.214,2.821-11.405,2.193-13.295-3.092c-0.426-0.778-0.404-1.525-0.287-2.25
			c1.408-0.466,2.835-1.33,3.851-1.83c1.87-1.079,3.428-2.622,4.861-4.219c2.419-2.607,4.131-5.706,4.457-9.293
			c0.595-4.223-1.109-7.69-3.811-10.813c-2.201-2.557-5.158-4.257-8.103-5.822c-2.878-1.527-5.921-2.708-9.009-3.738
			c-3.365-1.156-6.778-2.213-10.26-2.941c-2.953-1.126-6.782-1.786-7.911-4.99c-0.098-2.486,1.519-5.063,3.716-6.185
			c0.996-0.243,2.008-0.389,3.03-0.479c1.78,0.54,3.564,0.943,4.355,1.303C345.745,233.251,351.666,235.282,357.246,238.077z"/>
		<path style="fill:#FFFFFF;" d="M279.215,321.185c2.271,3.059,2.209,7.01,2.198,10.649c-0.188,6.605-1.066,13.166-1.931,19.711
			c-0.322,2.176-0.52,4.367-0.641,6.563c-4.125,1.092-8.093,2.827-11.722,5.072c1.078-4.145,1.504-8.453,2.1-12.687
			c0.679-6.17,1.155-12.364,2.071-18.507c0.472-2.944,0.946-5.916,2.064-8.697C274.365,320.965,277.128,318.478,279.215,321.185z"/>
		<path style="fill:#FFFFFF;" d="M253.093,337.974c0.04,8.206-0.26,16.366-0.426,24.589c0.033,0.761-0.02,2.13-0.023,3.653
			c-2.773-2.12-6.013-3.664-9.389-4.497c0.016-0.053,0.032-0.104,0.048-0.155c1.298-6.285,0.851-12.801,0.823-19.181
			c0.137-5.253-1.456-14.412,2.095-18.5C254.371,317.07,252.986,333.637,253.093,337.974z"/>
		<path style="fill:#1A9DBE;" d="M360.929,407.522c0.58,4.629-2.565,8.696-6.097,11.318c-5.399,4.262-11.684,5.793-18.387,6.546
			c-2.863,0.322-5.738,0.432-8.618,0.441c-6.06,0.053-12.151,0.162-18.174-0.599c-3.296-0.462-6.469-1.514-9.753-2.03
			c-3.067-0.37-6.154,0.097-9.228,0.144c-5.914,0.239-11.858,0.347-17.736-0.444c-3.828-0.655-7.866-1.59-10.726-4.396
			c-2.196-2.378-3.801-5.405-4.242-8.632c-0.441-5.005,0.114-10.223,2.098-14.868c1.338-2.87,3.575-5.233,6.049-7.168
			c1.859-1.378,3.794-2.653,5.807-3.792c1.496-0.871,2.999-1.728,4.413-2.727c0.41-0.287,0.953-0.581,1.175-1.05l0.006-0.003
			c0.56-1.853-2.741-1.326-3.771-1.228c-5.456,0.839-10.678,3.473-14.612,7.371c-2.679-6.276,3.043-12.406,7.853-16.056
			c5.217-3.92,11.424-6.425,17.867-7.402c3.586-0.315,7.83-0.618,10.527,2.22c2.618,2.464,1.985,4.956,0.762,7.666
			c-1.712-0.179-3.44-0.171-5.176,0.106c-1.305,0.211-2.671,0.283-3.894,0.821c-0.587,0.305-1.117,0.705-1.783,0.836
			c-1.226,0.354-1.875,1.786-1.486,2.961c0.5,1.452,1.895,1.773,3.258,1.498c0.851,0.126,1.713,0.204,2.558-0.005
			c2.851-0.624,5.731-1.107,8.655-1.164c2.197-0.112,4.404-0.206,6.586,0.133c3.112,0.559,6.134,1.753,8.823,3.413
			c-4.002,1.785-7.434,4.928-10.075,8.408c-1.336,1.703-2.518,3.521-3.713,5.325c-0.161,0.131-0.221,0.382-0.062,0.569
			c0.171,0.202,0.523,0.167,0.653-0.055c0.468-0.431,0.873-0.921,1.312-1.382c0.997-1.073,2.057-2.089,3.214-2.99
			c2.961-2.082,6.125-3.878,9.387-5.444c1.875-0.899,3.811-1.738,5.804-2.376c0.311,0.008,0.622,0.018,0.933,0.033
			c4.405,0.068,8.788,0.684,13.002,1.991c8.518,2.586,17.583,5.928,23.098,13.309C359.136,401.362,360.465,404.375,360.929,407.522z
			"/>
		<path style="fill:#1A9DBE;" d="M254.37,417.699c0.398,0.761,0.838,1.5,1.323,2.209c-1.798,0.562-3.56,1.266-5.391,1.724
			c-3.806,0.963-7.727,1.483-11.653,1.536c-2.193,0.123-4.23-0.97-6.398-0.856c-15.228,2.775-30.746,4.259-46.235,4.133
			c-8.219-0.323-23.076-0.584-23.205-11.709c0.594-9.305,10.984-18.112,18.69-22.436c-0.02,0.012-0.04,0.025-0.061,0.036
			c3.842-2.159,7.976-3.974,12.263-5.024c1.723-0.118,3.45-0.19,5.177-0.138c3.448,0.201,6.427,0.885,9.935,1.679
			c4.069,0.955,8.013,2.381,11.848,4.029c1.083,0.511,2.139,1.073,3.166,1.691c0.455,0.253,0.852,0.654,1.359,0.792
			c0.224,0.038,0.439-0.19,0.396-0.412c-0.047-0.249-0.201-0.451-0.348-0.65c-0.647-0.841-1.345-1.644-2.1-2.389
			c-2.031-1.985-4.313-3.705-6.822-5.037c-1.561-0.839-3.172-1.578-4.838-2.152c0.614-0.27,1.228-0.529,1.846-0.744
			c3.555-1.489,7.149-3.052,10.253-5.368c0.018-0.01,0.035-0.021,0.053-0.033c2.601,1.971,6.138,2.286,9.19,3.302
			c3.737,1.098,8.173,2.551,12.188,3.281c0.968,0.509,1.734-1.002,0.788-1.503c-2.717-2.793-6.255-4.659-9.76-6.28
			c-1.282-0.563-2.589-1.086-3.909-1.552c-2.471-0.938-7.433-1.546-5.287-5.29c1.642-2.402,4.792-3.186,7.524-3.57
			c5.246-0.614,10.682,0.758,14.793,4.13c0.933,0.706,1.741,1.546,2.553,2.379c0.202,0.45,0.39,0.906,0.585,1.354
			c0.244,0.599,0.529,1.251,0.806,1.907c0.231,0.578,0.421,1.171,0.605,1.765c-0.399,1.455-0.566,2.973-0.426,4.543
			c0.292,1.465,0.717,3.066,1.47,4.432c-0.775-0.218-1.57-0.366-2.361-0.448c-0.203-0.02-0.4,0.144-0.389,0.364
			c0.007,0.145,0.103,0.259,0.227,0.307c0.529,0.423,0.85,1.045,1.277,1.56c0.544,0.789,1.014,1.688,1.693,2.357
			c-2.675,4.987-3.393,10.927-3.336,16.531C251.945,411.47,252.712,414.803,254.37,417.699z"/>
		<path style="fill:#FFFFFF;" d="M199.254,238.116c0.842-1.178,0.466-2.717-0.528-3.535c0.067-0.873-0.432-1.792-1.126-2.378
			c-1.239-1.305-2.661-2.439-4.151-3.444c-1.736-1.302-3.485-1.507-4.963,0.281c-1.093,0.901-1.988,1.992-2.844,3.118
			c-2.518,3.255-4.893,6.622-7.166,10.054c-3.856,5.574-6.884,11.667-10.624,17.307c-1.999-2.076-4.262-3.863-6.398-5.789
			c-2.283-2.078-4.811-4.147-7.618-1.563c-1.699,1.491-5.796,7.232-4.827,9.444c0.152,0.212,0.337,0.338,0.546,0.392
			c0.198,0.235,0.439,0.443,0.639,0.674c1.138,1.191,2.271,2.388,3.378,3.608c3.522,3.91,6.877,7.972,10.601,11.697
			c1.518,1.357,2.879,3.485,5.057,3.687c2.74,0.112,4.158-2.772,5.391-4.79c3.084-5.471,5.737-11.178,9.008-16.549
			C188.23,252.51,193.813,245.352,199.254,238.116z M205.157,202.155c4.981,33.616,10.723,67.117,16.426,100.617
			c-24.026,4.077-48.09,7.937-72.143,11.858c-3.311-18.997-6.376-38.047-9.667-57.054c3.197-1.66,4.492-5.176,3.698-9.434
			c-0.943-4.339-4.698-9.575-8.315-12.852c2.217-1.114,3.993-3.15,4.798-5.551c2.243-6.897-2.158-16.329-8.049-20.224
			c-0.054-0.301-0.113-0.598-0.18-0.884c24.262-4.127,48.558-8.037,72.797-12.299c-0.02,0.792,0.155,1.582,0.244,2.369
			C204.748,199.857,205.021,201.008,205.157,202.155z"/>
		<path style="fill:#60DB58;" d="M194.285,235.046c0.112,0.143,0.23,0.279,0.355,0.408c-0.563,0.639-1.095,1.308-1.647,1.956
			c-2.732,3.312-5.242,6.814-7.479,10.48c-3.269,5.426-6.378,10.946-9.223,16.608c-2.05,3.919-3.945,7.963-6.545,11.557
			c-5.02-5.026-10.155-10.084-16.174-13.914c-0.309-0.181-1.052-0.634-1.835-0.996c1.026-0.78,2.019-1.852,2.482-2.27
			c1.146-1.184,2.382-2.318,3.276-3.714c2.211,1.519,3.994,3.566,5.795,5.534c1.146,1.082,1.933,2.738,3.43,3.35
			c1.796,0.678,3.128-0.697,3.83-2.216c2.832-5.484,5.908-10.844,9.479-15.883c2.552-3.699,5.336-7.234,8.413-10.51
			c1.066-1.169,2.172-2.312,2.982-3.679C192.479,232.76,193.277,233.994,194.285,235.046z"/>
		<path style="fill:#7CA9B5;" d="M224.648,306.696c2.69-1.424,1.185-4.848,0.964-7.211c-5.557-34.133-10.718-68.375-17.304-102.317
			c-0.123-0.479-0.2-0.976-0.372-1.44c0.391-0.069,0.783-0.138,1.174-0.208c6.639,39.157,12.881,78.387,19.17,117.602
			c-28.725,4.478-57.404,9.261-86.065,14.128c-1.415-8.013-2.815-16.03-4.24-24.042c-2.489-14.952-4.975-29.901-7.421-44.86
			c1.721,0.196,3.451,0.321,5.184,0.239c0.023-0.001,0.048-0.002,0.071-0.005c2.211,14.157,4.508,28.3,6.783,42.445
			c0.82,5.067,1.649,10.133,2.455,15.203c0.106,1.567,0.913,3.005,2.607,3.179c0.3,0.012,0.599,0.009,0.898-0.007
			c1.707-0.087,3.392-0.57,5.089-0.779c15.978-2.716,31.959-5.405,47.951-8.035c6.705-1.107,13.413-2.195,20.122-3.282
			C222.689,307.106,223.727,307.094,224.648,306.696z"/>
		<path style="fill:#7B727E;" d="M163.699,194.097c3.066,1.524,5.532-2.992,2.49-4.706c-1.43-0.786-3.367,0.122-3.681,1.722
			C162.285,192.256,162.619,193.518,163.699,194.097z M188.539,192.901c0.187,0.236,0.367,0.5,0.544,0.779
			c-11.363,1.831-22.716,3.72-34.076,5.555c-4.003,0.643-8.006,1.291-12.009,1.94c2.194-3.469,4.988-3.517,8.555-4.517
			c0.812-0.304,1.569-0.656,2.243-1.212c1.135-0.929,1.208-2.465,1.755-3.728c1.534-2.772,4.161-5.148,7.068-6.408
			c1.855-0.684,3.964-0.678,5.809,0.041c1.403,0.669,2.578,1.734,3.707,2.785c1.479,1.618,3.191,3.79,5.669,3.233
			c1.79-0.361,3.51-1.137,5.356-1.172C185.2,190.291,187.229,191.341,188.539,192.901z"/>
		<path style="fill:#1F7D95;" d="M258.809,330.386c-0.237-3.812-0.9-7.292-2.422-9.77c-3.04-4.546-8.364-5.151-12.667-1.966
			c-0.802,0.54-1.487,1.152-2.073,1.823c-0.305-0.428-0.6-0.863-0.885-1.303c-0.942-1.452-1.839-2.929-2.557-4.507
			c-0.168-0.37-0.336-0.739-0.509-1.106c-0.404-0.735-0.863-1.438-1.248-2.183c-0.416-0.803-0.743-1.647-0.865-2.55
			c-0.07-0.509-0.069-1.129,0-1.637c0.075-0.549,0.256-1.027,0.437-1.545c0.33-0.946,1.171-1.897,1.967-2.474
			c0.781-0.566,1.657-1.01,2.604-1.219c2.284-0.504,4.633-0.258,6.929,0.049c1.483,0.197,2.953,0.481,4.431,0.711
			c1.585,0.246,3.173,0.458,4.771,0.612c0.369,0.036,0.74,0.067,1.111,0.097c1.859,0.1,3.706,0.119,5.565,0.037
			c1.264-0.128,2.513-0.301,3.764-0.521c1.64-0.384,3.251-0.842,4.852-1.364c1.426-0.527,2.821-1.105,4.196-1.753
			c1.022-0.549,2.016-1.133,2.994-1.757c1.375-0.978,2.692-2.011,3.977-3.104c0.358-0.331,0.712-0.666,1.062-1.005
			c1.174,2.752,3.181,4.96,5.658,6.617c-0.299,0.308-0.57,0.636-0.815,0.95c-2.078,2.882-2.999,6.489-2.726,10.019
			c0.17,4.004,2.36,6.949,5.419,8.997c-0.623,0.39-1.254,0.766-1.89,1.13c-1.123,0.643-2.258,1.268-3.408,1.865
			c-0.43-1.582-1.067-3.104-1.992-4.523c-1.012-1.604-2.41-3.011-4.2-3.717c-5.066-2.354-10.475,1.807-12.416,6.426
			c-1.3,2.714-1.908,5.66-2.344,8.618c-0.759,0.079-1.523,0.123-2.282,0.167c-0.508,0.029-1.019,0.044-1.531,0.044
			C260.745,330.545,259.772,330.492,258.809,330.386z"/>
		<path style="fill:#1F7D95;" d="M302.212,255.103c0.434-1.969,0.896-3.928,1.437-5.869c0.634-2.409,1.68-4.673,2.32-7.077
			c0.188-0.765,0.512-1.448,0.839-2.146c0.074-0.424,0.113-0.865,0.246-1.267c0.6-2.333,2.75-4.176,5.185-4.231
			c2.042-1.821,4.761-1.442,6.46,0.65c3.223,4.262,2.927,10.969,2.704,16.081c-5.84,1.745-11.164,5.98-12.506,12.1
			c-0.167,0.778-0.288,1.598-0.357,2.439c-0.139-0.019-0.277-0.039-0.415-0.062c-2.984-0.013-5.953,0.672-8.726,1.833
			C300.464,263.436,301.296,259.254,302.212,255.103z"/>
		<path style="fill:#1F7D95;" d="M230.227,247.063c-2.391-0.282-4.171-2.656-3.818-5.029c0.26-1.822,0.33-3.674,0.806-5.458
			c0.674-2.567,3.034-6.287,6.103-4.705c2.012,1.266,2.31,3.966,2.414,6.14c-0.007,1.751-0.379,3.486-0.476,5.234
			C235.017,245.627,232.566,247.43,230.227,247.063z"/>
		<path style="fill:#B8CDD1;" d="M317.01,209.869c-3.015-0.41-5.431-2.846-5.852-5.852c-0.223-1.73,0.04-3.487-0.043-5.227
			c-0.02-8.026,1.283-15.986,2.655-23.871c2.179-13.688,4.878-27.459,4.164-41.383c-0.263-4.318-1.658-8.455-3.473-12.354
			c-2.906-5.802-7.17-10.722-11.058-15.867c-1.084-0.473-1.58-1.896-1.125-2.972c0.52-1.23,1.949-1.686,3.092-1.157
			c1.323,0.12,2.648,0.243,3.948,0.527c5.667,1.192,11.264,3.555,15.47,7.619c5.736,5.45,9.253,13.247,10.404,21.016
			c1.905,16.629-1.519,33.261-4.09,49.637c-1.243,7.542-2.708,15.119-5.492,22.265c-0.565,1.43-0.989,2.957-1.763,4.292
			C322.476,208.915,319.696,210.24,317.01,209.869z"/>
		<path style="fill:#FFFFFF;" d="M260.525,128.033c-7.683-0.249-12.018-6.337-10.989-13.73c0.749-4.433,3.758-8.187,7.437-10.628
			c0.58-0.78,1.521-1.662,2.419-2.169c2.065-1.243,4.574-1.548,6.946-1.505c4.939,0.052,9.403,3.162,10.81,7.957
			c1.47,4.899-0.34,10.24-3.608,13.999C270.388,125.8,265.534,128.218,260.525,128.033z"/>
		<path style="fill:#FFFFFF;" d="M240.74,136.678c0.323-7.624,11.212-7.621,11.534,0
			C251.952,144.299,241.061,144.298,240.74,136.678z"/>
		<path style="fill:#FFFFFF;" d="M240.981,289.568c-0.645-0.091-1.222-0.265-1.832-0.486c-1.085-0.391-2.016-1.238-2.71-2.133
			c-0.378-0.49-0.664-1.064-0.911-1.629c-0.57-1.308-0.601-2.76-0.257-4.127c0.055-0.221,0.124-0.438,0.203-0.651
			c-0.023-1.421,0.647-2.849,1.628-3.851c0.43-0.439,0.9-0.78,1.421-1.102c0.482-0.298,1.158-0.606,1.712-0.744
			c0.88-0.218,1.792-0.319,2.692-0.156c0.85,0.152,1.614,0.454,2.363,0.878c0.911,0.515,1.715,1.329,2.244,2.227
			c0.21,0.356,0.399,0.725,0.538,1.113c0.159,0.445,0.259,0.832,0.353,1.268c0.141,0.731,0.243,1.455,0.225,2.209
			c-0.053,2.215-0.928,4.355-2.668,5.777c-0.947,0.774-2.077,1.266-3.291,1.415c-0.267,0.033-0.554,0.051-0.841,0.051
			C241.553,289.626,241.256,289.608,240.981,289.568z"/>
		<path style="fill:#FFFFFF;" d="M248.425,280.174c-0.02-0.102-0.04-0.204-0.061-0.307c0.042,0.205,0.084,0.412,0.126,0.618
			C248.469,280.378,248.447,280.275,248.425,280.174z"/>
		<path style="fill:#FFFFFF;" d="M230.925,264.996c0.191-4.511,6.635-4.51,6.826,0C237.559,269.508,231.115,269.507,230.925,264.996
			z"/>
		<path style="fill:#EFFAFC;" d="M293.719,372.714c-3.731-1.457-4.022-6.465-3.043-9.807c1.762,0.261,3.411,0.9,4.705,2.261
			c2.605,2.451,1.991,4.931,0.781,7.626C295.361,372.822,294.534,372.671,293.719,372.714z"/>
		<path style="fill:#EFFAFC;" d="M344.444,403.446c-3.552-1.382-5.992-5.274-5.584-9.075c0.037-0.385,0.119-0.767,0.245-1.131
			c-0.09-1.953,0.512-3.932,1.589-5.551c6.356,2.373,12.436,5.63,16.544,11.129c0.018,0.025,0.037,0.05,0.055,0.074
			C354.145,402.995,349.57,405.491,344.444,403.446z"/>
		<path style="fill:#EFFAFC;" d="M325.904,399.257c0.217-5.114,7.523-5.113,7.739,0C333.426,404.371,326.12,404.37,325.904,399.257z
			"/>
		<path style="fill:#EFFAFC;" d="M174.97,408.265c-0.984-0.416-1.835-1.111-2.449-1.978c-1.431-1.288-2.33-3.107-2.736-4.952
			c3.582-3.766,7.966-6.931,11.715-9.034c-0.02,0.012-0.04,0.025-0.061,0.036c2.285-1.284,4.673-2.447,7.136-3.399
			c3.725,3.74,3.125,9.485-0.009,13.394c-1.639,2.012-3.492,4.178-6.091,4.885c-1.047,0.61-2.212,1.031-3.417,1.171
			C177.699,408.812,176.304,408.829,174.97,408.265z"/>
		<path style="fill:#EFFAFC;" d="M193.084,401.325c0.246-5.802,8.535-5.801,8.78,0C201.618,407.128,193.329,407.126,193.084,401.325
			z"/>
		<path style="fill:#B9CED2;" d="M359.323,303.22c0.101-0.827,0.402-1.613,0.687-2.394c0.043-0.137,0.084-0.275,0.124-0.413
			c-2.316-1.72-2.59-5.325-0.766-7.499c2.458,0.604,4.957,0.484,7.362-0.182c-0.349,4.558-3.189,9.543-7.479,11.161
			C359.273,303.67,359.295,303.445,359.323,303.22z"/>
		<path style="fill:#B9CED2;" d="M305.367,280.503c-1.437-0.799-2.545-2.047-3.371-3.45c-0.777-1.319-1.106-2.839-1.106-4.358
			c0-0.023,0-0.046,0-0.068c2.424-1.369,5.042-2.411,7.727-3.132c0.322,2.52,1.241,4.925,2.997,6.627
			c-1.597,1.475-3.064,3.099-4.419,4.784c-0.078,0.096-0.156,0.193-0.234,0.289C306.409,281.019,305.875,280.785,305.367,280.503z"
			/>
		<path style="fill:#B9CED2;" d="M313.241,273.22c-0.747-2.806-0.549-5.825,0.487-8.487c0.009,0.004,0.018,0.008,0.026,0.012
			c3.7-0.825,7.417,1.84,7.275,5.746c-1.104,0.14-2.273,0.598-3.116,1.142c-1.517,0.779-2.938,1.713-4.273,2.76
			C313.488,274.008,313.36,273.613,313.241,273.22z"/>
		<path style="fill:#B9CED2;" d="M295.659,310.591c-1.475-0.112-2.921-0.56-4.186-1.323c-0.154-2.455,0.422-4.839,1.264-7.121
			c3.133,1.429,6.701,2.15,10.177,2.155C304.098,308.919,299.649,311.149,295.659,310.591z"/>
		<path style="fill:#B9CED2;" d="M309.186,324.581c0.003-0.207,0.019-0.414,0.047-0.621c0.001-0.004,0.001-0.008,0.002-0.012
			c1.079-0.223,2.139-0.541,3.167-0.947c1.691-0.701,3.206-1.736,4.997-2.201c0.345-0.125,0.611-0.309,0.806-0.529
			c2.861,2.173,2.393,6.573-0.442,8.551C314.256,328.221,311.473,326.81,309.186,324.581z"/>
		<path style="fill:#B9CED2;" d="M345.446,316.245c-5.276-2.111-7.119-12.457-6.618-17.537c0.178,0.392,0.364,0.779,0.559,1.158
			c2.144,4.165,5.79,7.761,10.137,9.559c-0.992,2.431-2.072,4.795-3.494,7.003C345.835,316.377,345.641,316.315,345.446,316.245z"/>
		<path style="fill:#B9CED2;" d="M120.51,227.194c-4.913-1.021-10.176-0.813-14.956,0.743c-0.889,0.269-1.771,0.61-2.629,1.019
			c-1.239-0.008-3.244,0.671-3.804-0.861c-0.241-0.815,0.29-1.719,0.747-2.363c1.485-2.083,3.691-3.49,5.936-4.636
			c8.379-4.297,20.71-4.181,28.309,1.697c0.337,1.321,0.493,2.681,0.446,4.024c-0.46,2.158-2.068,4.301-4.287,4.822
			C127.261,229.665,124.027,228.027,120.51,227.194z"/>
		<path style="fill:#B9CED2;" d="M116.521,204.951c-1.074-0.293-1.92-1.378-1.91-2.492c0.131-2.211,2.099-3.75,3.63-5.126
			c2.245-1.798,4.814-3.177,7.379-4.469c2.099,0.982,4.123,2.143,6.096,3.335c1.283,0.809,2.585,1.589,3.917,2.313
			C129.443,201.072,123.35,204.607,116.521,204.951z"/>
		<path style="fill:#B9CED2;" d="M112.68,264.002c-0.327-1.733-0.827-3.566-0.253-5.293c-0.028,0.082-0.057,0.163-0.085,0.245
			c0.028-0.089,0.059-0.177,0.091-0.264c0.026-0.08,0.054-0.16,0.084-0.241c-0.026,0.075-0.052,0.15-0.078,0.226
			c0.458-1.322,1.553-2.331,2.944-2.618c0.672,0.119,1.344,0.236,2.019,0.343c0.99,0.164,2.012,0.183,2.856,0.79
			c0.542,0.225,0.721,0.865,1.066,1.276c2.288,4.107,3.401,8.714,5.336,12.978c-3.666,0.161-7.257,1.111-10.798,2.019
			C114.593,270.383,113.358,267.275,112.68,264.002z"/>
		<path style="fill:#B9CED2;" d="M134.327,252.638c-6.229-0.282-12.268-1.866-18.511-2.22c-0.826-0.374-1.66-0.731-2.481-1.117
			c-0.979-0.072-1.835-0.874-1.968-1.862c-0.152-1.118,0.556-2.032,1.545-2.339c5.89-3.671,13.463-5.273,20.21-3.314
			c1.859,2.174,3.584,4.518,4.428,7.268C138.234,252.245,137.052,252.712,134.327,252.638z"/>
		<path style="fill:#EFFAFC;" d="M164.157,311.418c-5.848-1.645-8.255-8.537-4.572-13.405c2.545-3.109,6.142-5.118,9.352-7.461
			c7.435-5.03,14.444-10.731,20.382-17.488c-0.003,0.003-0.005,0.006-0.008,0.01c3.439-3.934,6.546-8.212,10.68-11.47
			c-0.666-10.336-0.51-20.702,0.589-31.003c0.137-1.737,0.53-3.44,0.777-5.157c-0.024-0.628,0.918-0.729,1.1-0.154
			c0.255,0.643,0.621,1.238,0.897,1.872c3.354,8.189,5.34,16.868,7.724,25.372c1.702,6.17,3.486,12.318,5.117,18.509
			c0.63,3.739,1.263,7.477,1.898,11.216c-1.946,17.577-29.352,24.585-43.837,27.999c-1.496,0.327-2.997,0.62-4.494,0.944
			C167.938,311.702,166.001,311.952,164.157,311.418z"/>
		<path style="fill:#EFFAFC;" d="M146.009,230.655c-3.229-1.366-4.815-5.225-3.435-8.462c1.026-2.409,2.123-4.797,3.694-6.906
			c1.476-2.012,5.579-4.464,8.097-4.43c3.674,0.2,3.897,3.696,3.441,6.585c-0.069,1.404-0.34,2.793-0.862,4.079
			c-0.74,1.932-1.665,3.792-2.473,5.698C153.18,230.436,149.178,232.066,146.009,230.655z"/>
	</g>
</g>
</svg>
