<?xml version="1.0" encoding="utf-8"?>
<!-- Generator: Adobe Illustrator 27.5.0, SVG Export Plug-In . SVG Version: 6.00 Build 0)  -->
<svg version="1.1" xmlns="http://www.w3.org/2000/svg" xmlns:xlink="http://www.w3.org/1999/xlink" x="0px" y="0px"
	 viewBox="0 0 500 500" style="enable-background:new 0 0 500 500;" xml:space="preserve">
<g id="BACKGROUND">
	<path style="fill:#FFFFFF;" d="M500,0v500H0V0H500z"/>
</g>
<g id="OBJECTS">
	<circle style="fill:#AAF2F2;" cx="250" cy="239.271" r="165.7"/>
	<path style="fill:#FFFFFF;" d="M138.498,199.462l2.455-0.941c0.519-0.199,0.519-1.185,0-1.384l-2.455-0.941
		c-4.695-1.8-8.365-6.724-9.706-13.024l-0.702-3.295c-0.148-0.696-0.883-0.696-1.031,0l-0.702,3.295
		c-1.341,6.3-5.011,11.224-9.706,13.024l-2.455,0.941c-0.519,0.199-0.519,1.185,0,1.384l2.455,0.941
		c4.695,1.8,8.365,6.724,9.706,13.024l0.702,3.295c0.148,0.696,0.883,0.696,1.031,0l0.702-3.295
		C130.133,206.186,133.803,201.262,138.498,199.462z"/>
	<ellipse style="fill:#DFEBEB;" cx="249.41" cy="438.565" rx="101.36" ry="11.435"/>
	<path style="fill:#FFFFFF;" d="M376.98,305.303l2.456-0.941c0.519-0.199,0.519-1.185,0-1.384l-2.455-0.941
		c-4.695-1.8-8.365-6.724-9.706-13.024l-0.701-3.295c-0.148-0.696-0.883-0.696-1.031,0l-0.702,3.295
		c-1.341,6.3-5.011,11.224-9.706,13.024l-2.455,0.941c-0.519,0.199-0.519,1.185,0,1.384l2.455,0.941
		c4.695,1.8,8.365,6.724,9.706,13.024l0.702,3.295c0.148,0.696,0.883,0.696,1.031,0l0.702-3.295
		C368.615,312.027,372.285,307.103,376.98,305.303z"/>
	<path style="fill:#FFFFFF;" d="M202.63,130.088l1.481-0.568c0.313-0.12,0.313-0.715,0-0.835l-1.481-0.568
		c-2.832-1.086-5.046-4.056-5.855-7.856l-0.423-1.987c-0.089-0.42-0.533-0.42-0.622,0l-0.423,1.987
		c-0.809,3.8-3.023,6.77-5.855,7.856l-1.481,0.568c-0.313,0.12-0.313,0.715,0,0.835l1.481,0.568
		c2.832,1.086,5.046,4.056,5.855,7.856l0.423,1.988c0.089,0.42,0.533,0.42,0.622,0l0.423-1.987
		C197.584,134.144,199.798,131.173,202.63,130.088z"/>
	<path style="fill:#FFFFFF;" d="M397.684,260.121l1.481-0.568c0.313-0.12,0.313-0.715,0-0.835l-1.481-0.568
		c-2.832-1.086-5.046-4.056-5.855-7.856l-0.423-1.987c-0.089-0.42-0.533-0.42-0.622,0l-0.423,1.987
		c-0.809,3.8-3.023,6.77-5.855,7.856l-1.481,0.568c-0.313,0.12-0.313,0.715,0,0.835l1.481,0.568
		c2.832,1.086,5.046,4.056,5.855,7.856l0.423,1.987c0.089,0.42,0.533,0.42,0.622,0l0.423-1.987
		C392.638,264.177,394.852,261.207,397.684,260.121z"/>
	<path style="fill:#FFFFFF;" d="M139.92,253.791l1.228-0.471c0.259-0.099,0.259-0.592,0-0.692l-1.228-0.471
		c-2.348-0.9-4.182-3.362-4.853-6.512l-0.351-1.647c-0.074-0.348-0.442-0.348-0.516,0l-0.351,1.647
		c-0.671,3.15-2.506,5.612-4.853,6.512l-1.228,0.471c-0.259,0.099-0.259,0.592,0,0.692l1.228,0.471
		c2.347,0.9,4.182,3.362,4.853,6.512l0.351,1.647c0.074,0.348,0.442,0.348,0.516,0l0.351-1.647
		C135.738,257.153,137.573,254.691,139.92,253.791z"/>
	<path style="fill:#FFFFFF;" d="M378.402,164.97l1.228-0.471c0.259-0.099,0.259-0.592,0-0.692l-1.228-0.471
		c-2.347-0.9-4.182-3.362-4.853-6.512l-0.351-1.647c-0.074-0.348-0.442-0.348-0.516,0l-0.351,1.647
		c-0.671,3.15-2.506,5.612-4.853,6.512l-1.228,0.471c-0.259,0.099-0.259,0.592,0,0.692l1.228,0.471
		c2.347,0.9,4.182,3.362,4.853,6.512l0.351,1.647c0.074,0.348,0.442,0.348,0.516,0l0.351-1.647
		C374.22,168.332,376.055,165.87,378.402,164.97z"/>
	<g>
		<g>
			<path style="fill:#601434;" d="M334.218,88.573c-0.895-2.709-1.973-5.372-3.282-7.91c-1.327-2.577-2.808-5.096-4.535-7.429
				c-0.905-1.224-1.829-2.426-2.813-3.587c-0.973-1.146-2-2.259-3.073-3.313c-2.097-2.057-4.314-3.991-6.706-5.702
				c-0.439-0.315-0.883-0.623-1.332-0.927c-4.427-2.994-9.262-5.413-14.366-7.02c-2.806-0.884-5.657-1.565-8.565-2.027
				c-2.907-0.462-5.835-0.644-8.776-0.658c-0.404-0.001-0.808,0.003-1.211,0.014c-5.804,0.15-11.542,1.21-17.03,3.096
				c-2.674,0.918-5.304,2.055-7.793,3.396c-1.312,0.705-2.612,1.437-3.864,2.243c-1.275,0.819-2.51,1.687-3.724,2.593
				c-4.563,3.401-8.531,7.573-11.851,12.184c-1.663,2.308-3.143,4.773-4.416,7.316c-1.276,2.552-2.399,5.202-3.259,7.925
				c-0.873,2.768-1.566,5.577-2.028,8.444c-0.469,2.918-0.7,5.871-0.702,8.827c0,5.844,0.925,11.653,2.697,17.219
				c0.862,2.708,1.952,5.355,3.224,7.895c1.247,2.488,2.667,4.903,4.282,7.17c1.637,2.301,3.418,4.48,5.37,6.523
				c1.999,2.092,4.158,4.016,6.455,5.775c4.251,3.256,8.962,5.862,13.95,7.798c1.853,0.719,3.741,1.314,5.673,1.785
				c0.847,0.205,1.701,0.379,2.553,0.555c0.041,0.008,0.082,0.016,0.123,0.024c-1.122,4.234-1.874,8.561-2.912,12.818
				c-0.291,1.466-0.868,2.973-0.498,4.474c0.341,1.238,1.431,2.195,2.705,2.367c0.125,0.012,0.251,0.018,0.378,0.018
				c3.009,0,6.512-3.369,8.642-5.22c3.046-2.769,5.779-5.874,8.184-9.213c0.805-1.118,1.578-2.267,2.295-3.444
				c0.335-0.575,0.695-1.153,1.008-1.752c0.124-0.016,0.248-0.027,0.371-0.044c1.443-0.196,2.872-0.435,4.3-0.727
				c1.46-0.297,2.901-0.691,4.33-1.112c1.376-0.406,2.738-0.885,4.069-1.421c1.321-0.532,2.637-1.083,3.912-1.72
				c2.625-1.31,5.175-2.774,7.568-4.475c1.261-0.895,2.489-1.833,3.678-2.82c1.085-0.9,2.109-1.864,3.12-2.843
				c2.27-2.215,4.31-4.638,6.178-7.2c0.844-1.155,1.62-2.359,2.363-3.58c0.768-1.261,1.504-2.554,2.154-3.88
				c1.278-2.603,2.417-5.28,3.283-8.05c0.86-2.753,1.552-5.557,1.984-8.409c0.234-1.544,0.41-3.093,0.528-4.65
				c0.108-1.455,0.129-2.914,0.132-4.372l0.001-0.051C336.914,99.742,336.021,94.023,334.218,88.573z M330.754,113.048
				c-0.301,2.023-0.703,4.018-1.202,6.003c-0.285,1.039-0.58,2.076-0.93,3.096c-0.381,1.107-0.79,2.202-1.224,3.291
				c-0.443,1.044-0.895,2.086-1.408,3.101c-0.537,1.063-1.1,2.108-1.688,3.143c-0.588,0.987-1.191,1.966-1.845,2.913
				c-0.662,0.957-1.346,1.893-2.053,2.815c-0.782,0.973-1.588,1.92-2.419,2.852c-0.748,0.836-1.543,1.632-2.345,2.416
				c-1.633,1.536-3.328,2.983-5.116,4.335c-0.874,0.634-1.76,1.245-2.665,1.837c-0.855,0.558-1.736,1.075-2.62,1.586
				c-0.992,0.543-1.99,1.072-3.011,1.562c-1.02,0.489-2.058,0.941-3.105,1.374c-1.068,0.417-2.14,0.814-3.227,1.181
				c-1.077,0.364-2.171,0.676-3.268,0.974c-1.352,0.34-2.709,0.63-4.077,0.876c-0.844-0.516-1.975-0.564-2.896,0.139
				c-0.492,0.365-0.81,0.9-1.193,1.367c-1.007,1.276-1.96,2.594-2.919,3.907c-2.581,3.696-5.589,7.069-8.96,10.063
				c0.567-2.914,0.985-5.857,1.184-8.819c0.073-1.88,0.287-3.978-0.129-5.874c-0.185-0.971-1.03-2.528-2.185-1.723
				c-0.014,0.012-0.026,0.027-0.04,0.04c-0.087-0.018-0.174-0.035-0.261-0.053c-0.659-0.135-1.313-0.287-1.962-0.458
				c-2.553-0.698-5.083-1.546-7.53-2.551c-2.077-0.879-4.095-1.882-6.048-3.008c-1.958-1.162-3.84-2.441-5.642-3.835
				c-1.794-1.427-3.489-2.96-5.097-4.592c-1.507-1.583-2.923-3.243-4.237-4.989c-1.277-1.745-2.448-3.556-3.517-5.437
				c-1.046-1.906-1.979-3.864-2.802-5.877c-0.775-1.984-1.432-4.004-1.986-6.061c-0.518-2.096-0.921-4.207-1.21-6.346
				c-0.246-2.162-0.379-4.322-0.389-6.497c0.031-2.093,0.169-4.176,0.426-6.255c0.311-2.209,0.747-4.388,1.306-6.549
				c0.589-2.104,1.287-4.164,2.108-6.19c0.879-2.064,1.873-4.067,2.983-6.016c1.184-1.993,2.482-3.904,3.897-5.739
				c1.386-1.733,2.862-3.377,4.439-4.94c1.644-1.576,3.374-3.047,5.193-4.418c1.725-1.253,3.509-2.407,5.36-3.463
				c1.936-1.06,3.922-2,5.965-2.837c1.944-0.75,3.915-1.395,5.927-1.939c2.037-0.508,4.088-0.903,6.166-1.196
				c2.124-0.254,4.251-0.393,6.394-0.416h0.456c2.119,0.041,4.221,0.193,6.325,0.451c2.103,0.306,4.174,0.722,6.233,1.248
				c1.013,0.283,2.017,0.583,3.013,0.914c1.057,0.35,2.096,0.749,3.133,1.159c1.112,0.468,2.217,0.951,3.292,1.5
				c1.089,0.554,2.16,1.133,3.216,1.743c1.008,0.612,2,1.245,2.972,1.914c0.88,0.606,1.734,1.246,2.579,1.899
				c1.723,1.4,3.368,2.876,4.928,4.458c0.715,0.753,1.421,1.513,2.093,2.305c0.682,0.804,1.337,1.627,1.982,2.462
				c0.654,0.891,1.288,1.795,1.901,2.717c0.624,0.939,1.198,1.916,1.761,2.894c1.063,1.938,2.009,3.924,2.852,5.968
				c0.801,2.058,1.477,4.15,2.043,6.285c0.482,1.983,0.862,3.978,1.141,6.001c0.261,2.193,0.398,4.388,0.407,6.595
				C331.191,108.595,331.035,110.822,330.754,113.048z"/>
		</g>
		<path style="fill:#601434;" d="M282.004,135.879c-3.443-0.162-6.534-1.803-9.377-3.627c-15.259-6.141-30.692-22.592-24.857-40.071
			c1.699-5.34,6.934-8.913,12.261-9.974c7.922-1.416,15.83,2.801,20.216,9.326c3.723-5.986,8.313-12.175,15.388-14.249
			c14.031-3.506,21.366,9.701,18.93,22.123c-2.175,11.623-10.257,20.934-18.94,28.475c-3.955,3.076-8.059,7.999-13.407,7.999
			C282.146,135.882,282.075,135.881,282.004,135.879z M252.297,100.188c0.651,11.236,9.459,19.986,18.675,25.401
			c2.418,1.462,4.935,2.749,7.407,4.118c1.145,0.731,2.333,1.281,3.727,1.078c2.073-0.391,3.498-2.367,5.185-3.524
			c4.156-3.37,8.184-6.928,11.799-10.878c23.529-25.713,0.3-50.139-14.243-23.609c-2.785,5.371-5.363,6.612-9.487,1.497
			c-3.222-4.276-7.935-6.462-12.263-6.462C257.208,87.809,252.032,91.856,252.297,100.188z"/>
		<path style="fill:#FFFFFF;" d="M314.564,99.407c2.436-12.422-4.899-25.629-18.93-22.123c-7.075,2.075-11.665,8.264-15.388,14.249
			c-4.386-6.526-12.294-10.742-20.216-9.326c-5.327,1.062-10.561,4.634-12.261,9.975c-5.835,17.479,9.598,33.929,24.857,40.07
			c2.843,1.824,5.935,3.465,9.377,3.628c0.072,0.002,0.142,0.002,0.213,0.002c5.348,0,9.452-4.923,13.407-7.999
			C304.307,120.341,312.389,111.031,314.564,99.407z M330.819,99.754c0.261,2.193,0.398,4.388,0.407,6.595
			c-0.035,2.246-0.191,4.472-0.473,6.698c-0.301,2.024-0.703,4.018-1.202,6.003c-0.285,1.039-0.58,2.076-0.93,3.096
			c-0.381,1.107-0.79,2.202-1.224,3.291c-0.443,1.044-0.895,2.086-1.408,3.101c-0.537,1.063-1.1,2.108-1.688,3.143
			c-0.588,0.987-1.191,1.966-1.845,2.913c-0.662,0.957-1.346,1.893-2.053,2.815c-0.782,0.973-1.588,1.92-2.419,2.851
			c-0.748,0.836-1.543,1.632-2.345,2.416c-1.633,1.536-3.328,2.983-5.116,4.335c-0.874,0.634-1.76,1.246-2.664,1.837
			c-0.855,0.558-1.736,1.075-2.62,1.586c-0.992,0.543-1.99,1.072-3.011,1.562c-1.02,0.489-2.058,0.941-3.105,1.374
			c-1.068,0.417-2.14,0.814-3.228,1.181c-1.077,0.364-2.171,0.676-3.268,0.974c-1.35,0.34-2.707,0.632-4.074,0.877
			c-0.845-0.518-1.977-0.566-2.898,0.138c-0.492,0.365-0.81,0.9-1.193,1.367c-1.007,1.276-1.96,2.594-2.919,3.907
			c-2.581,3.696-5.589,7.069-8.96,10.063c0.567-2.914,0.985-5.857,1.184-8.819c0.073-1.88,0.287-3.977-0.129-5.874
			c-0.185-0.971-1.03-2.528-2.185-1.723c-0.014,0.012-0.029,0.025-0.043,0.038c-0.086-0.017-0.172-0.034-0.258-0.052
			c-0.659-0.135-1.313-0.287-1.962-0.458c-2.553-0.698-5.083-1.546-7.53-2.551c-2.077-0.879-4.095-1.882-6.048-3.008
			c-1.958-1.162-3.84-2.441-5.642-3.835c-1.794-1.427-3.489-2.96-5.097-4.592c-1.507-1.583-2.923-3.243-4.237-4.989
			c-1.277-1.745-2.449-3.556-3.517-5.437c-1.046-1.906-1.979-3.864-2.802-5.878c-0.775-1.984-1.433-4.004-1.986-6.061
			c-0.518-2.096-0.921-4.207-1.21-6.346c-0.246-2.162-0.379-4.322-0.389-6.497c0.031-2.093,0.169-4.176,0.426-6.255
			c0.311-2.209,0.747-4.388,1.306-6.549c0.589-2.104,1.287-4.164,2.108-6.19c0.879-2.064,1.873-4.067,2.983-6.016
			c1.184-1.993,2.482-3.904,3.896-5.739c1.386-1.733,2.862-3.377,4.439-4.94c1.644-1.576,3.374-3.047,5.193-4.418
			c1.725-1.253,3.509-2.407,5.36-3.463c1.936-1.06,3.921-2,5.965-2.837c1.943-0.75,3.915-1.395,5.927-1.939
			c2.037-0.508,4.088-0.903,6.166-1.196c2.124-0.253,4.251-0.393,6.394-0.416h0.456c2.119,0.041,4.221,0.193,6.325,0.451
			c2.103,0.306,4.174,0.722,6.233,1.248c1.013,0.283,2.017,0.583,3.014,0.914c1.057,0.35,2.096,0.749,3.133,1.159
			c1.112,0.469,2.217,0.951,3.292,1.5c1.089,0.554,2.16,1.133,3.216,1.743c1.008,0.612,2,1.245,2.972,1.913
			c0.88,0.606,1.734,1.247,2.579,1.899c1.723,1.4,3.368,2.877,4.928,4.458c0.715,0.753,1.421,1.513,2.093,2.305
			c0.682,0.804,1.337,1.627,1.982,2.462c0.654,0.891,1.288,1.795,1.901,2.717c0.624,0.939,1.198,1.916,1.761,2.894
			c1.063,1.938,2.009,3.924,2.851,5.968c0.801,2.058,1.477,4.15,2.043,6.285C330.16,95.736,330.541,97.731,330.819,99.754z"/>
		<path style="fill:#E87070;" d="M284.846,92.775c14.543-26.531,37.772-2.105,14.243,23.609c-3.615,3.951-7.642,7.508-11.799,10.878
			c-1.687,1.156-3.111,3.133-5.185,3.524c-1.394,0.203-2.582-0.347-3.727-1.078c-2.471-1.369-4.988-2.656-7.407-4.118
			c-9.216-5.414-18.024-14.165-18.676-25.401c-0.265-8.332,4.911-12.379,10.8-12.379c4.327,0,9.04,2.186,12.262,6.462
			C279.483,99.387,282.061,98.145,284.846,92.775z"/>
		<path style="fill:#E1D4D4;" d="M271.834,151.311c-6.056-1.301-11.87-3.683-17.041-7.104c-1.39-0.919-2.754-1.873-4.093-2.863
			c-0.753-0.558-1.479-1.127-2.168-1.767c-0.934-0.869-1.531-2.116-1.836-3.363c-0.11-0.085-0.221-0.169-0.333-0.253
			c-1.936-1.446-2.263-4.335-0.801-6.225c0.707-0.915,1.764-1.529,2.911-1.685c0.594-0.081,1.204-0.042,1.782,0.117
			c0.534,0.147,0.976,0.396,1.426,0.696c-0.064-0.043-0.127-0.086-0.191-0.13c0.069,0.045,0.138,0.09,0.207,0.134
			c0.302-0.053,0.61-0.084,0.935-0.072c0.999,0.038,1.958,0.139,2.886,0.556c0.462,0.208,0.915,0.434,1.355,0.686
			c0.859,0.491,1.716,0.987,2.572,1.483c1.634,0.947,3.295,1.849,4.975,2.711c1.767,0.862,3.557,1.649,5.402,2.336
			c1.738,0.579,3.492,1.074,5.28,1.483c1.396,0.254,2.794,0.425,4.208,0.551c1.528,0.075,3.049,0.092,4.577,0.023
			c2.072-0.187,4.135-0.481,6.18-0.871c1.066-0.248,2.112-0.535,3.151-0.875c1.891-0.684,3.746-1.424,5.558-2.298
			c2.194-1.136,4.316-2.38,6.377-3.746c1.077-0.741,2.143-1.499,3.183-2.289c1.116-0.849,2.19-1.752,3.32-2.582
			c1.07-0.784,2.173-1.531,3.216-2.352c1.04-0.819,2.062-1.666,3.066-2.528c0.031-0.026,0.062-0.052,0.092-0.079
			c0.572-0.508,1.129-1.025,1.642-1.594c0.142-0.165,0.285-0.329,0.431-0.49c0.091-0.281,0.366-0.506,0.675-0.506
			c0.415,0,0.768,0.404,0.699,0.806c0.027,0.29,0.065,0.566,0.053,0.863c-0.013,0.337-0.072,0.675-0.124,1.007
			c-0.102,0.646-0.209,1.292-0.327,1.935c-0.258,1.385-0.578,2.753-0.966,4.105c-0.836,2.905-2.058,5.652-3.747,8.165
			c-1.041,1.547-2.142,3.011-3.401,4.389c-1.082,1.183-2.303,2.265-3.578,3.237c-2.652,2.025-5.506,3.702-8.534,5.098
			c-1.445,0.667-2.919,1.268-4.422,1.789c-1.501,0.521-3.02,0.913-4.573,1.239c-3.266,0.658-6.549,1.147-9.887,1.2
			c-0.268,0.004-0.538,0.006-0.806,0.006C278.037,152.254,274.889,151.967,271.834,151.311z"/>
		<path style="fill:#E1D4D4;" d="M291.684,151.084c0.058-0.012,0.116-0.024,0.174-0.036c0.103-0.021,0.206-0.042,0.309-0.063
			c-0.006,0.001-0.011,0.002-0.017,0.004c0.111-0.023,0.221-0.045,0.332-0.068c-0.191,0.04-0.382,0.079-0.573,0.118
			c-0.205,0.042-0.41,0.084-0.615,0.125C291.423,151.138,291.554,151.111,291.684,151.084z"/>
		<path style="fill:#E1D4D4;" d="M238.111,123.063c-1.656-1.239-2.196-3.564-1.381-5.442c1.773-4.233,8.023-3.235,8.66,1.228
			C245.93,122.848,241.313,125.525,238.111,123.063z"/>
		<path style="fill:#FFFFFF;" d="M302.124,92.452c-0.985-1.097-1.694-2.62-1.758-4.103c0.135-1.52,0.612-3.189,2.498-2.728
			c-0.032-0.007-0.063-0.013-0.095-0.019c0.042,0.008,0.085,0.017,0.127,0.025c0.001,0,0.002,0,0.003,0.001
			c-0.015-0.003-0.031-0.006-0.046-0.009c1.912,0.191,3.108,2.048,3.291,3.836c0.274,1.415-0.159,3.203-1.724,3.605
			C303.608,93.285,302.737,93.04,302.124,92.452z"/>
		<path style="fill:#FFFFFF;" d="M266.482,94.231c-0.106-0.122-0.182-0.255-0.255-0.396c-0.079-0.16-0.146-0.312-0.195-0.488
			c-0.445-0.442-0.61-1.135-0.354-1.741c0.335-0.792,1.276-1.175,2.068-0.84c0.116,0.049,0.224,0.113,0.324,0.189
			c0.529,0.099,0.963,0.314,1.358,0.686c0.78,0.733,0.739,2.04,0,2.779c-0.367,0.367-0.871,0.576-1.39,0.576
			C267.408,94.995,266.886,94.696,266.482,94.231z"/>
		<path style="fill:#FFFFFF;" d="M266.172,93.726c0.019,0.037,0.037,0.073,0.056,0.109c0.019,0.039,0.039,0.077,0.059,0.117
			C266.248,93.877,266.21,93.802,266.172,93.726z"/>
	</g>
	<g>
		<path style="fill:#601434;" d="M273.419,262.832c-1.714-0.179-3.25-1.257-4.479-2.4c-1.018-0.944-1.899-2.032-2.689-3.171
			c-0.802-1.155-1.512-2.359-2.15-3.612c-1.133-2.225-2.084-4.554-2.83-6.936c-0.768-2.448-1.35-5.026-1.415-7.601
			c-0.038-1.527,0.15-3.149,0.896-4.505c0.419-0.761,1.021-1.445,1.781-1.88c0.705-0.402,1.504-0.61,2.318-0.592
			c1.546,0.036,2.971,0.807,4.146,1.763c0.867,0.706,1.617,1.509,2.318,2.381c1.227,1.528,2.298,3.163,3.217,4.893
			c0.907,1.708,1.73,3.466,2.402,5.281c0.466,1.257,0.879,2.537,1.189,3.839c0.058,0.203,0.114,0.407,0.168,0.61
			c0.344,1.295,0.6,2.63,0.694,3.969c0.116,1.639,0.079,3.333-0.546,4.879c-0.268,0.662-0.668,1.322-1.198,1.811
			c-0.411,0.377-0.838,0.678-1.346,0.915c-0.421,0.197-0.873,0.312-1.334,0.36c-0.18,0.019-0.361,0.028-0.541,0.028
			C273.818,262.865,273.618,262.853,273.419,262.832z"/>
		<path style="fill:#FFFFFF;" d="M263.297,236.552c3.173-1.26,5.93,4.642,2.656,6.06c-0.32,0.134-0.635,0.195-0.939,0.195
			C262.275,242.807,260.42,237.83,263.297,236.552z"/>
		<path style="fill:#601434;" d="M241.885,270.448c-1.764-0.183-3.345-1.293-4.609-2.468c-1.048-0.972-1.954-2.091-2.767-3.264
			c-0.826-1.188-1.556-2.428-2.214-3.717c-1.165-2.289-2.143-4.686-2.911-7.136c-0.79-2.52-1.39-5.172-1.455-7.822
			c-0.039-1.571,0.154-3.24,0.921-4.635c0.431-0.783,1.051-1.488,1.833-1.934c0.726-0.415,1.548-0.629,2.385-0.61
			c1.59,0.037,3.057,0.83,4.265,1.814c0.893,0.726,1.665,1.553,2.385,2.449c1.262,1.573,2.365,3.256,3.311,5.035
			c0.933,1.758,1.78,3.567,2.471,5.434c0.48,1.294,0.904,2.611,1.224,3.951c0.06,0.209,0.118,0.419,0.173,0.628
			c0.354,1.333,0.617,2.706,0.714,4.084c0.12,1.687,0.082,3.43-0.562,5.02c-0.276,0.681-0.688,1.362-1.232,1.863
			c-0.424,0.39-0.863,0.699-1.386,0.942c-0.433,0.203-0.899,0.321-1.372,0.371c-0.184,0.02-0.37,0.029-0.555,0.029
			C242.297,270.481,242.089,270.469,241.885,270.448z"/>
		<path style="fill:#FFFFFF;" d="M231.526,249.879c-0.278-0.672-0.543-1.347-0.717-2.055c-1.034-3.488,3.239-5.529,5.122-2.336
			c0.378,0.677,0.655,1.411,0.971,2.119c0.642,1.455-0.107,3.213-1.553,3.825c-0.355,0.152-0.731,0.223-1.105,0.223
			C233.107,251.656,231.989,250.989,231.526,249.879z"/>
		<path style="fill:#601434;" d="M291.48,445.874c-5.713-0.604-10.055-5.431-11.578-10.755c-0.889-2.877-1.22-5.864-1.283-8.867
			c-0.146-0.014-0.294-0.035-0.443-0.066c-8.923-2.871-11.386-16.256-11.057-27.763c-0.449-0.263-0.781-0.655-1.033-1.127
			c-0.66-1.125-1.414-2.195-2.019-3.353c-3.232-6.275-6.937-12.279-10.693-18.249c-0.882-1.451-1.77-2.895-2.673-4.324
			c-0.912,0.153-1.865,0.094-2.785,0.089h-0.007c-3.345-0.099-6.811-0.184-10.204-0.615c-0.614,1.71-1.805,3.203-3.321,4.428
			c1.092,5.318,1.293,10.878,1.402,16.298c-0.144,7.352-1.547,14.727-3.836,21.703c-4.276,11.657-15.641,20.774-28.426,19.515
			c-14.413-0.525-22.022-14.605-23.361-27.512c-0.967-7.459-0.457-15.034,1.503-22.293c2.07-7.838,4.896-15.643,9.334-22.462
			c1.43-4.224,1.627-8.829,3.355-12.995c0.64-1.453,1.868-4.584,3.447-6.957c-3.858-3.012-7.441-6.385-10.704-10.021
			c0.245,4.518-0.714,9.065-2.967,12.758c-1.998,3.32-4.63,6.367-8.149,8.108c-1.246,0.575-2.826,1.298-4.307,1.349
			c-1.355,7.881-7.17,14.625-16.599,14.269c-2.923-0.053-5.664-0.902-8.052-2.323c-0.717,0.547-1.522,1.008-1.976,1.291
			c-2.388,1.296-5.177,1.653-7.859,1.464c-8.352-0.528-14.98-6.233-17.753-13.644c-0.011-0.001-0.024-0.002-0.035-0.003
			c-7.728-0.88-12.323-10.034-12.563-16.964c-0.372-8.784,6.294-16.332,13.879-19.985c-0.291-5.198,1.634-10.445,6.114-13.508
			c2.053-1.46,4.493-2.479,7.01-2.761c0.612-5.643,2.563-11.131,5.914-15.734c4.329-6.202,10.967-10.545,18.277-12.365
			c1.333-0.368,2.689-0.664,4.06-0.882c-0.647-6.32-0.62-12.705,0.086-19.032c0.761-8.591,2.086-17.141,4.103-25.527
			c1.913-8.008,4.666-15.868,5.58-24.079c0.946-9.62-1.395-19.286-5.641-27.898c-1.224-2.656-2.474-5.268-4.019-7.811
			c-0.696-1.12-1.64-2.032-2.567-2.951c-1.736-3.264,5.34-3.55,7.417-3.591c6.559-0.103,13.072,1.013,19.492,2.249
			c8.596,1.686,17.178,3.481,25.655,5.699c8.461,2.327,16.944,4.664,25.123,7.868c16.381,6.309,31.705,15.323,45.221,26.518
			c6.835,5.618,12.912,12.08,18.122,19.231c0.158,0.213,0.315,0.426,0.471,0.64c1.299-3.679,4.204-6.596,7.611-8.47
			c-0.146-0.27-0.29-0.541-0.436-0.809c-3.332-6.228-5.637-12.904-7.121-19.792c-1.559-7.67-3.075-19.769,1.732-26.43
			c1.338-2.045,3.383-3.717,5.811-4.223c6.868-1.568,11.834,2.107,14.942,8c1.06,2.072,1.674,4.329,2.227,6.581
			c0.076,0.324,0.152,0.647,0.224,0.972c0.319-6.481,1.568-12.975,4.992-17.841c2.728-3.979,7.567-7.585,12.588-5.9
			c12.255,4.244,9.372,20.653,7.863,30.686c-0.72,4.198-1.318,8.426-2.168,12.602c5.184-1.969,11.305-1.54,15.759,1.922
			c5.491,4.249,7.424,11.678,7.743,18.335c0.615,9.55-6.036,22.408-15.176,28.728c0.339,0.56,0.605,1.163,0.784,1.797
			c1.428,4.281-0.698,8.103-3.723,11.053c-0.549,0.503-1.114,0.996-1.696,1.467c2.537,4.476,1.762,11.149-0.279,15.52
			c-3.799,8.592-13.426,13.507-22.564,13.558c-1.908-0.158-5.167-0.173-7.712-0.943c-0.516,6.987-2.049,13.87-4.856,20.395
			c-1.77,3.979-3.863,7.835-6.332,11.423c-5.374,7.088-12.212,13.044-19.674,17.851c-5.003,3.394-10.57,6.183-16.247,8.549
			c0.646,1.762,0.795,3.731,0.832,5.578c0.111,2.202-0.904,7.609-3.014,10.289c0.799,1.283,1.563,2.588,2.3,3.907
			c0.554,0.983,1.097,1.972,1.626,2.968c1.858-1.455,4.02-2.278,6.51-2.019c0.619,0.089,1.26,0.249,1.869,0.49
			c4.483-15.043,11.59-30.182,24.478-39.089c5.598-3.882,14.557-6.057,21.32-5.508c4.416,0.318,8.697,1.909,12.241,4.567
			c7.754,5.961,9.296,16.635,9.012,25.828c-0.279,9.426-2.761,18.628-6.271,27.338c-5.202,13.339-12.392,25.93-22.165,36.458
			c-0.856,1.074-1.904,1.956-2.82,2.972c-2.646,3.548-4.754,7.51-7.287,11.094c-2.176,3.032-4.488,6.019-7.399,8.383
			c-3.702,2.935-8.425,4.764-13.172,4.764C292.817,445.985,292.148,445.949,291.48,445.874z M331.858,330.943
			c-2.459,0.572-4.838,1.481-7.041,2.716c-4.014,2.244-7.36,5.462-10.268,8.991c-6.661,7.733-10.725,17.303-13.624,26.989
			c-3.344,10.759-6.012,21.717-8.12,32.782c-1.468,7.574-2.736,15.216-3.126,22.93c-0.126,4.031-0.099,8.122,0.833,12.067
			c0.215,1.013,0.591,1.976,1.129,2.85c0.435,0.085,0.892,0.126,1.373,0.12c1.496-0.003,2.993-0.192,4.446-0.555
			c-0.905-0.534-1.708-1.264-2.362-2.07c-1.722-2.264-2.258-5.146-2.378-7.928c-0.487-10.869,1.521-21.659,3.632-32.267
			c2.423-11.321,6.465-22.216,10.997-32.846c3.963-9.567,9.075-18.997,17.02-25.843c3.788-3.359,8.817-6.527,14.033-6.166
			c-1.439-0.84-3.012-1.461-4.617-1.866c-0.258-0.057-0.515-0.109-0.773-0.156C332.625,330.769,332.242,330.853,331.858,330.943z
			 M317.477,332.697c-1.702,0.697-3.326,1.57-4.807,2.662c-1.988,1.531-3.979,3.08-5.701,4.913
			c-4.206,4.628-7.608,9.959-10.343,15.572c-2.855,5.782-4.953,11.892-6.853,18.043c-2.598,8.539-4.806,17.228-5.575,26.143
			c0.257,1.731,0.896,3.387,1.09,5.13c0.149,5.912-0.536,11.805-0.815,17.704c-0.055,4.836-0.088,10.092,2.684,14.269
			c0.204,0.283,0.416,0.551,0.638,0.803c-0.975-3.255-1.017-6.755-1.06-10.138c0.431-17.002,4.153-33.744,8.471-50.132
			c3.24-12.34,6.532-25.095,14.329-35.455c2.545-3.606,5.436-7.11,8.904-9.86C318.115,332.463,317.795,332.579,317.477,332.697z
			 M334.165,338.949c-2.584,1.216-4.797,3.061-6.871,4.999c-6.085,5.736-10.546,13.025-13.966,20.601
			c-6.701,14.587-11.846,29.941-14.324,45.831c-0.879,5.342-1.526,10.749-1.36,16.173c0.185,3.347,0.105,7.981,3.664,9.571
			c1.25,0.418,2.547,0.169,3.777-0.216c2.904-2.508,5.346-5.553,7.424-8.768c0.717-1.169,1.405-2.353,2.054-3.561
			c1.186-2.158,2.096-4.466,3.44-6.534c1.807-2.382,3.95-4.498,5.818-6.835c5.637-6.842,10.21-14.484,13.848-22.558
			c4.215-9.263,7.941-18.959,8.834-29.173c0.58-6.722,0.502-14.258-2.792-20.3c-0.42-0.108-0.845-0.196-1.271-0.27
			c-1.017-0.157-1.957-0.247-2.862-0.247C337.749,337.659,336.061,338.027,334.165,338.949z M202.002,344.554
			c-1.658,2.555-3.31,5.129-4.576,7.906c-0.736,1.786-1.369,3.618-1.713,5.523c-0.236,2.893-0.021,5.713-1.499,8.358
			c-6.333,12.509-10.53,26.767-7.858,40.824c1.316,7.563,4.912,15.459,12.302,18.718c3.507,1.409,7.497,1.364,11.197,0.744
			c-0.12-0.01-0.24-0.021-0.361-0.033c-6.98-1.031-13.549-5.355-17.155-11.434c-5.3-10.166-4.206-22.417-1.479-33.193
			c2.083-8.284,4.744-16.404,7.408-24.514c0.818-1.901,2.83-9.964,5.277-12.804c-0.38-0.243-0.757-0.49-1.132-0.742
			C202.267,344.13,202.127,344.346,202.002,344.554z M202.132,355.346c-1.013,2.315-1.913,4.67-2.753,7.055
			c-3.563,10.383-6.482,21.001-6.98,31.987c-0.109,7.268,0.723,15.072,4.954,21.198c4.697,6.358,12.266,9.085,19.705,7.899
			c1.425-0.946,2.748-2.045,3.924-3.26c6.021-6.321,7.612-15.146,9.045-23.445c0.999-6.3,0.561-12.814,0.94-19.077
			c0.01-0.105,0.022-0.223,0.036-0.353c-2.847,1.318-6.068,1.911-8.711,1.592c-15.905-1.08-21.291-19.24-11.934-30.421
			c-1.424-0.707-2.824-1.465-4.198-2.269C205.436,349.189,202.681,353.652,202.132,355.346z M282.44,374.337
			c-10.475,6.23-11.076,29.004-7.851,39.555c0.978,2.643,2.046,5.537,4.114,7.515c0.031-0.668,0.068-1.335,0.107-1.999
			c0.253-4.659,1.358-9.192,2.377-13.727c-0.624-4.275-0.79-8.627-0.523-12.938c0.33-4.424,1.174-8.803,2.135-13.128
			c0.412-1.763,0.853-3.548,1.327-5.347c-0.215-0.02-0.431-0.031-0.647-0.031C283.132,374.237,282.787,374.267,282.44,374.337z
			 M260.382,354.338c-2.564,1.004-5.103,2.095-7.723,2.948c-1.527,0.448-3.085,0.975-4.673,1.193
			c0.438,0.495,0.868,0.994,1.295,1.489c4.635,5.476,8.287,11.675,12.145,17.701c2.326,3.711,4.638,7.454,6.622,11.362
			c0.245-1.38,0.529-2.637,0.837-3.732c0.849-2.878,2.227-6.613,4.208-9.817c-0.338-0.682-0.638-1.391-1.022-2.036
			c-1.835-3.533-3.717-7.042-5.746-10.467c-1.775-3.004-3.741-5.893-5.52-8.894C260.678,354.177,260.537,354.263,260.382,354.338z
			 M211.829,358.621c-1.247,7.029,2.569,13.234,9.737,14.512c3.883,0.781,7.895-0.396,11.096-2.64
			c0.192-0.151,0.381-0.304,0.568-0.463c-2.684-0.662-5.262-1.662-7.626-3.195c-4.63-2.68-8.208-9.177-5.04-14.015
			c-0.348,0.019-0.696,0.037-1.045,0.048c-1.742-0.054-3.462-0.355-5.169-0.7C213.185,354.181,212.224,356.305,211.829,358.621z
			 M225.088,354.419c-1.121,3.358,1.429,6.314,4.199,7.87c5.339,2.993,11.588,3.064,17.603,3.292
			c-1.47-2.127-2.999-4.205-4.612-6.21c-0.746-0.923-1.508-1.832-2.281-2.733c-0.299-0.376-0.624-0.742-0.939-1.114
			c-4.606-0.13-9.212-0.69-13.776-1.713C225.205,354.011,225.136,354.214,225.088,354.419z M122.485,343.069
			c0.968,2.879,0.908,6.075,2.235,8.873c1.841,4.582,5.68,8.417,10.394,9.982c2.444,0.815,5.062,1.148,7.627,0.865
			c0.462-0.07,0.921-0.152,1.378-0.247c-3.346-3.071-5.553-7.419-5.883-12.089c-0.354-1.588,1.559-2.891,2.895-1.944
			c0.684,0.411,0.774,1.201,1.023,1.887c0.439,0.862,1.182,1.535,1.596,2.423c6.643,13.345,23.377,10.221,22.871-5.308
			c-0.004-3.19-0.973-6.22-1.851-9.253c-0.371,0.33-0.734,0.669-1.088,1.019c-1.603,1.361-3.851,4.322-6.098,2.599
			c-3.371-3.449,6.409-10.215,9.357-11.194c2.353-1.245,7.127-1.249,3.984,2.346c-1.137,1.112-2.378,2.111-3.617,3.111
			c0.014,0.018,0.028,0.035,0.042,0.054c3.21,3.75,4.696,8.571,4.629,13.283c0.253-0.158,0.467-0.314,0.607-0.473
			c6.339-4.665,10.494-12.029,8.794-20.021c-1.014-4.83-3.534-9.851-8.375-11.747c-1.519-0.856-4.061-0.598-5.902-1.091
			c-0.543,11.302-14.473,18.346-25.334,17.953c-6.196-0.142-13.137-1.823-17.117-6.919c-1.253-1.508-2.221-3.255-2.886-5.117
			c-0.373,0.352-0.75,0.698-1.159,1.006c-3.007,2.74-6.187,5.738-7.585,9.652c-1.488,5.217,0.264,10.814,3.498,15.015
			c0.551,0.653,1.147,1.282,1.793,1.85c-0.21-1.294-0.307-2.617-0.28-3.953c-0.151-1.055,0.162-2.036,0.389-3.051
			c0.236-1.09,1.076-1.594,1.933-1.594C121.394,340.987,122.457,341.73,122.485,343.069z M264.005,352.137
			c0.897,0.849,1.709,1.724,2.309,2.392c1.135,1.249,2.206,2.549,3.223,3.89c0.531-1.154,0.996-2.287,1.004-3.283
			c0.126-0.528,0.223-1.063,0.304-1.601c-0.149-0.922-0.318-1.842-0.507-2.756c-0.037-0.249-0.087-0.498-0.142-0.746
			C268.152,350.815,266.086,351.516,264.005,352.137z M180.159,293.867c-1.779,0.995-3.943,1.745-6.078,1.871
			c3.395,9.335,7.62,18.375,13.59,26.358c7.342,9.622,16.999,17.488,28.027,22.51c13.495,5.76,28.934,6.529,43.095,2.891
			c17.053-4.595,33.52-13.016,45.379-26.334c2.713-2.949,4.669-6.461,6.542-9.979c2.186-4.168,3.691-8.661,4.767-13.234
			c1.561-7.34,1.705-14.949,0.977-22.4c-2.824-22.624-13.73-43.757-29.272-60.291c-5.669-5.785-12.032-10.85-18.646-15.509
			c-10.927-7.614-22.767-13.871-35.264-18.492c-7.124-2.648-14.452-4.681-21.766-6.727c-15.271-3.923-30.72-7.263-46.349-9.396
			c3.745,3.217,6.266,7.597,8.271,12.052c3.231,7.514,4.826,15.722,4.421,23.901c-0.247,6.122-1.891,12.036-3.424,17.932
			c-3.17,11.18-5.488,22.598-6.445,34.191c-0.659,5.973-0.674,12-0.054,17.961c2.677,0.019,5.349,0.354,7.938,1.047
			c4.281,1.197,8.573,3.201,11.53,6.608c2.661,3.029,3.963,7.846,1.537,11.381c-1.936,2.857-5.42,3.797-8.759,3.651
			C180.171,293.861,180.166,293.864,180.159,293.867z M129.131,308.658c-4.136,4.095-3.216,11.264,0.482,15.353
			c2.665,2.927,6.923,3.782,10.708,4.193c8.227,0.634,20.8-3.56,21.273-13.198c-0.109-4.643-2.406-10.101-6.985-11.793
			c-0.895,2.861-1.409,5.895-2.118,8.764c1.639,0.074,3.108,1.685,2.461,3.548c-0.314,0.856-0.913,1.545-1.504,2.221
			c-1.062,1.185-2.213,2.316-3.608,3.103c-2.097,1.038-4.513,1.549-6.853,1.479c-3.435-0.143-6.411-2.378-8.4-5.054
			c-1.267-1.63-1.804-3.679-1.713-5.727c0.009-0.628,0.129-2.562,0.818-2.921c-0.08-0.935-0.125-1.874-0.133-2.813
			C131.938,306.52,130.4,307.395,129.131,308.658z M155.376,279.543c-4.565,1.896-8.494,5.166-11.242,9.271
			c-2.815,3.991-4.077,8.571-4.567,13.298c0.011,0.061,0.021,0.124,0.028,0.189c0.029,0.344-0.019,0.638-0.126,0.889
			c-0.118,1.498-0.166,3.007-0.166,4.514c-0.006,2.265,0.136,4.53,0.212,6.792c0.008,0.256,0.02,0.512,0.026,0.769
			c0.337,0.223,0.684,0.434,1.037,0.637c2.042,1.301,4.631,0.696,6.692-0.251c0.423-0.26,0.813-0.56,1.185-0.882
			c-0.026-0.489-0.05-0.979-0.062-1.468c-0.155-7.378,0.7-15.495,5.866-21.187c2.966-3.176,6.971-5.458,11.236-6.319
			c2.71-0.512,5.484-0.036,8.126,0.633c2.965,0.658,7.462,2.686,10.282,1.118c0.793-0.637,0.628-1.768,0.411-2.645
			c-0.693-2.271-2.731-3.758-4.688-4.915c-3.672-2.059-7.769-2.955-11.902-2.955C163.507,277.029,159.255,277.961,155.376,279.543z
			 M174.432,311.549c-3.207-6.409-5.789-13.146-7.965-19.983c-2.996,0.618-5.735,2.265-7.908,4.394
			c-1.292,1.378-2.238,2.939-2.97,4.606c0.12-0.016,0.238-0.029,0.351-0.044c5.051-0.055,9.075,5.69,10.394,10.085
			c0.072,0.224,0.137,0.448,0.198,0.669c0.785-0.37,1.778-0.508,2.817-0.508C171.2,310.768,173.197,311.206,174.432,311.549z
			 M339.212,282.788c5.511-2.403,9.508-7.607,10.368-13.564c0.16-1.043,0.233-2.095,0.243-3.148
			c-0.224,0.078-0.464,0.129-0.716,0.144c-5.126,1.237-10.471,0.992-15.612,2.068c0.036,1.266-0.158,2.497-0.538,3.343
			c-1.497,3.755-5.458,6.449-9.544,6.031c-0.313-0.037-0.634-0.082-0.956-0.137c0.174,2.107,0.269,4.217,0.278,6.325
			c1.893,0.18,4.07,0.923,5.694,0.915C332.127,285.095,335.864,284.378,339.212,282.788z M321.876,272.336
			c1.317-0.002,2.625-0.036,3.789-0.719c2.499-1.692,2.033-2.976,1.754-5.314c-2.518-0.579-5.063-1.502-7.247-2.9
			C320.875,266.345,321.45,269.331,321.876,272.336z M319.329,254.656c1.236,2.456,3.649,4.067,6.156,5.032
			c3.634,1.323,7.555,1.827,11.412,1.72c3.224-0.191,6.373-1.051,9.328-2.339c1.854-0.875,3.506-2.139,4.951-3.586
			c1.374-1.578,2.094-2.671,2.052-4.844c-0.002-0.286-0.042-0.563-0.108-0.834c-2.435,0.98-4.976,1.46-7.55,1.288
			c-2.808-0.136-5.69-0.909-7.928-2.667c-0.159-0.094-0.328-0.229-0.486-0.39c-0.366,0.587-0.851,1.119-1.266,1.536
			c-3.125,2.887-8.634,4.574-12.854,4.4c-1.393-0.061-2.795-0.25-4.164-0.582C319.009,253.818,319.161,254.24,319.329,254.656z
			 M313.314,218.679c-1.988,0.959-3.953,2.122-5.355,3.846c-1.06,2.321-1.854,4.751-2.162,7.253
			c3.061,4.83,5.783,9.879,8.102,15.104c0.703,0.424,1.448,0.79,2.155,1.191c1.527,0.742,3.074,1.476,4.741,1.84
			c1.242,0.222,2.493,0.391,3.757,0.367c2.384-0.171,4.706-0.812,6.982-1.514c1.214-0.319,5.426-2.439,6.085-0.975
			c0.031,0.099,0.054,0.198,0.069,0.298c0.562,0.02,1.122,0.183,1.679,0.25c9.713,1.895,16.702-3.155,22.037-10.817
			c3.048-4.522,5.624-9.7,5.678-15.259c0.253-8.756-3.996-19.984-14.724-16.756c-7.933,2.113-11.421,13.744-7.266,20.439
			c3.066,4.56,9.13,0.316,10.014-3.865c0.456-1.197,0.803-2.428,1.19-3.645c0.132-1.06,0.944-1.958,2.062-1.933
			c1.114,0.017,1.955,0.943,1.97,2.033c0.202,6.337-3.499,13.472-10.072,14.913c-4.162,1.05-7.639-0.998-9.895-4.15
			c-0.317,1.406-0.967,2.728-2.027,3.853c-3.563,3.778-9.031,5.451-14.136,5.242c-2.576-0.125-5.163-0.795-7.303-2.274
			c-0.742-0.471-3.099-2.55-1.64-3.265c5.226,1.142,10.486,1.196,15.452-1.105c1.55-0.841,3.88-2.116,4.053-4.055
			c0.253-4.454-3.607-8.187-7.805-8.952c-1.281-0.269-2.584-0.397-3.889-0.397C319.699,216.345,316.326,217.198,313.314,218.679z
			 M337.483,216.632c0.182-4.944,2.053-9.835,5.173-13.657c0.169-0.198,0.344-0.392,0.524-0.581c0.151-1.63,0.355-3.253,0.572-4.875
			c1.052-8.033,2.954-15.966,3.364-24.075c0.048-3.94-0.025-9.022-3.198-11.822c-1.641-1.125-3.197-1.685-4.971-0.432
			c-5.446,3.82-6.46,10.949-7.182,17.095c-0.641,7.701-0.388,15.445-0.291,23.161c0.012,1.769,0.06,3.551-0.191,5.306
			c-0.012,0.583-0.465,1.378-1.129,0.915c-0.902-1.016-1.236-2.432-1.663-3.696c-0.316-1.16-0.594-2.332-0.839-3.511
			c0-0.001,0-0.002-0.001-0.003c-1.695-4.15-3.204-8.378-4.489-12.671c-1.394-4.365-2.316-8.899-4.12-13.124
			c-1.482-2.855-3.805-6.146-7.398-5.963c-1.023,0.086-2.127,0.153-2.925,0.877c-1.69,1.641-2.54,3.932-2.837,6.233
			c-1.104,8.076,0.599,16.283,2.926,24.003c1.357,4.219,3.094,8.306,4.46,12.522c3.147-1.173,6.603-1.855,9.987-1.855
			C328.721,210.477,333.999,212.258,337.483,216.632z"/>
		<path style="fill:#601434;" d="M255.499,300.269c-6.116-0.507-12.036-3.21-16.415-7.515c-2.601-2.7-4.917-6.126-5.467-9.891
			c-0.714,0.17-1.437,0.302-2.161,0.302c-0.215,0-0.43-0.012-0.645-0.037c-0.692-0.187-0.583-1.074-0.353-1.589
			c0.92-2.107,2.965-3.467,4.94-4.492c1.707-0.879,4.384-1.652,5.365,0.596c0.475,1.126,0.025,2.445-1.019,3.071
			c-0.566,0.353-1.166,0.631-1.786,0.867c0.077,0.139,0.155,0.276,0.235,0.407c0.592,1.099,1.166,2.21,1.864,3.247
			c2.55,3.771,6.365,6.509,10.596,8.112c2.824,0.957,5.563,1.258,8.47,1.251c2.673-0.051,5.361-0.318,7.967-0.929
			c3.665-1.09,7.173-3.035,9.78-5.86c3.959-4.447,4.835-10.631,4.586-16.384c-0.015-0.731-0.209-1.432-0.303-2.15
			c-0.841-0.125-1.661-0.328-2.433-0.675c-2.029-2.249,6.42-4.529,7.944-4.35c0.967,0.102,2.042,0.174,2.774,0.888
			c1.309,1.222,0.685,3.635-1.067,4.047c-0.693,0.211-1.401,0.365-2.121,0.387c0.011,0.051,0.023,0.103,0.034,0.154
			c0.461,2.036,0.732,4.134,0.708,6.222c-0.076,5.239-1.594,10.501-4.852,14.658c-3.309,4.25-8.208,7.097-13.312,8.647
			c-1.402,0.407-2.868,0.633-4.316,0.801c-1.916,0.223-3.839,0.379-5.762,0.379C257.665,300.433,256.581,300.384,255.499,300.269z"
			/>
		<path style="fill:#DE3030;" d="M247.05,267.276c0.644-1.59,0.681-3.333,0.562-5.02c-0.097-1.377-0.359-2.751-0.714-4.084
			c-0.055-0.21-0.113-0.42-0.174-0.628c-0.32-1.34-0.744-2.656-1.224-3.951c-0.692-1.867-1.538-3.676-2.471-5.434
			c-0.945-1.78-2.048-3.462-3.311-5.035c-0.72-0.896-1.492-1.723-2.385-2.45c-1.208-0.984-2.675-1.776-4.265-1.814
			c-0.837-0.019-1.659,0.195-2.385,0.61c-0.782,0.447-1.402,1.151-1.833,1.934c-0.768,1.395-0.961,3.064-0.921,4.635
			c0.065,2.65,0.665,5.302,1.455,7.822c0.768,2.451,1.745,4.847,2.911,7.137c0.658,1.289,1.388,2.528,2.214,3.717
			c0.813,1.173,1.719,2.292,2.767,3.264c1.264,1.175,2.845,2.285,4.609,2.468c0.205,0.022,0.412,0.033,0.62,0.033
			c0.185,0,0.371-0.009,0.555-0.029c0.474-0.05,0.939-0.168,1.372-0.371c0.522-0.243,0.962-0.553,1.386-0.942
			C246.362,268.638,246.773,267.958,247.05,267.276z M278.439,259.75c0.625-1.546,0.663-3.24,0.546-4.879
			c-0.094-1.339-0.35-2.674-0.694-3.969c-0.054-0.202-0.11-0.407-0.168-0.61c-0.311-1.303-0.723-2.582-1.189-3.839
			c-0.672-1.815-1.495-3.574-2.402-5.281c-0.919-1.73-1.99-3.365-3.217-4.893c-0.7-0.872-1.45-1.674-2.318-2.381
			c-1.175-0.956-2.6-1.727-4.146-1.763c-0.813-0.018-1.612,0.19-2.318,0.592c-0.76,0.435-1.363,1.119-1.782,1.88
			c-0.747,1.357-0.935,2.978-0.896,4.505c0.064,2.575,0.647,5.152,1.415,7.601c0.746,2.382,1.696,4.711,2.83,6.936
			c0.638,1.253,1.348,2.457,2.15,3.612c0.791,1.14,1.671,2.227,2.689,3.172c1.229,1.143,2.765,2.221,4.479,2.4
			c0.198,0.021,0.399,0.032,0.6,0.032c0.181,0,0.361-0.009,0.541-0.028c0.461-0.049,0.913-0.163,1.334-0.36
			c0.508-0.237,0.935-0.538,1.346-0.915C277.771,261.073,278.171,260.412,278.439,259.75z M288.371,269.186
			c1.751-0.412,2.376-2.826,1.067-4.047c-0.731-0.714-1.806-0.786-2.774-0.888c-1.524-0.179-9.972,2.102-7.944,4.351
			c0.772,0.347,1.591,0.55,2.433,0.675c0.095,0.718,0.289,1.419,0.303,2.15c0.248,5.753-0.627,11.937-4.586,16.384
			c-2.607,2.824-6.115,4.77-9.78,5.86c-2.605,0.611-5.294,0.878-7.966,0.929c-2.908,0.007-5.647-0.294-8.47-1.251
			c-4.231-1.603-8.045-4.341-10.596-8.112c-0.698-1.038-1.271-2.148-1.864-3.247c-0.08-0.131-0.158-0.268-0.235-0.407
			c0.619-0.237,1.219-0.514,1.786-0.867c1.044-0.625,1.494-1.945,1.019-3.071c-0.982-2.248-3.659-1.475-5.365-0.596
			c-1.976,1.024-4.02,2.385-4.94,4.492c-0.23,0.515-0.339,1.402,0.353,1.589c0.215,0.025,0.43,0.037,0.645,0.037
			c0.724,0,1.447-0.132,2.161-0.302c0.551,3.766,2.866,7.192,5.467,9.891c4.378,4.305,10.299,7.008,16.415,7.515
			c1.082,0.114,2.166,0.164,3.25,0.164c1.923,0,3.847-0.156,5.762-0.379c1.448-0.168,2.914-0.394,4.316-0.801
			c5.105-1.55,10.004-4.397,13.312-8.647c3.258-4.157,4.776-9.42,4.852-14.658c0.024-2.088-0.247-4.186-0.708-6.222
			c-0.011-0.051-0.023-0.103-0.034-0.154C286.969,269.55,287.678,269.397,288.371,269.186z M316.459,275.549
			c0.728,7.45,0.585,15.06-0.977,22.401c-1.076,4.573-2.581,9.067-4.767,13.234c-1.873,3.517-3.829,7.028-6.542,9.979
			c-11.859,13.317-28.326,21.74-45.379,26.333c-14.161,3.638-29.6,2.869-43.095-2.89c-11.028-5.022-20.685-12.887-28.027-22.511
			c-5.971-7.982-10.196-17.024-13.59-26.358c2.135-0.125,4.298-0.875,6.078-1.87c0.006-0.004,0.011-0.006,0.018-0.01
			c3.339,0.145,6.823-0.794,8.759-3.65c2.426-3.536,1.124-8.352-1.537-11.381c-2.956-3.407-7.249-5.412-11.53-6.609
			c-2.59-0.692-5.262-1.028-7.938-1.047c-0.62-5.961-0.605-11.988,0.054-17.961c0.957-11.593,3.274-23.01,6.445-34.19
			c1.533-5.895,3.177-11.81,3.424-17.932c0.405-8.178-1.19-16.387-4.421-23.901c-2.005-4.455-4.526-8.835-8.271-12.052
			c15.629,2.133,31.077,5.472,46.349,9.396c7.314,2.046,14.642,4.079,21.766,6.727c12.497,4.62,24.337,10.877,35.264,18.492
			c6.614,4.659,12.978,9.724,18.646,15.509C302.729,231.792,313.634,252.925,316.459,275.549z"/>
		<path style="fill:#E87070;" d="M184.314,284.899c0.217,0.877,0.381,2.009-0.411,2.645c-2.82,1.569-7.317-0.459-10.282-1.118
			c-2.642-0.669-5.415-1.145-8.126-0.632c-4.264,0.86-8.27,3.143-11.236,6.318c-5.166,5.693-6.021,13.81-5.866,21.187
			c0.012,0.49,0.036,0.979,0.062,1.469c-0.372,0.322-0.763,0.621-1.185,0.881c-2.061,0.947-4.65,1.552-6.692,0.251
			c-0.353-0.201-0.7-0.413-1.037-0.636c-0.006-0.258-0.018-0.513-0.026-0.769c-0.076-2.263-0.218-4.527-0.212-6.792
			c0-1.506,0.048-3.017,0.166-4.515c0.107-0.251,0.155-0.544,0.126-0.889c-0.007-0.064-0.017-0.127-0.028-0.189
			c0.489-4.727,1.751-9.305,4.566-13.296c2.748-4.105,6.676-7.376,11.242-9.272c3.879-1.581,8.132-2.514,12.347-2.514
			c4.133,0,8.23,0.898,11.903,2.956C181.583,281.14,183.621,282.628,184.314,284.899z"/>
		<path style="fill:#E87070;" d="M349.824,266.078c-0.01,1.051-0.083,2.105-0.243,3.148c-0.86,5.956-4.857,11.161-10.368,13.563
			c-3.348,1.589-7.086,2.308-10.783,1.98c-1.624,0.006-3.801-0.735-5.694-0.916c-0.009-2.107-0.105-4.217-0.278-6.324
			c0.322,0.054,0.643,0.1,0.956,0.137c4.087,0.418,8.048-2.277,9.544-6.031c0.38-0.846,0.574-2.078,0.538-3.343
			c5.141-1.076,10.486-0.831,15.612-2.069C349.359,266.207,349.599,266.155,349.824,266.078z"/>
		<path style="fill:#E87070;" d="M272.072,373.445c0.384,0.646,0.685,1.355,1.022,2.036c-1.981,3.204-3.359,6.939-4.208,9.817
			c-0.309,1.097-0.592,2.354-0.837,3.733c-1.984-3.908-4.297-7.652-6.622-11.362c-3.858-6.027-7.51-12.227-12.145-17.701
			c-0.427-0.495-0.857-0.993-1.295-1.49c1.587-0.216,3.145-0.744,4.673-1.193c2.621-0.852,5.16-1.942,7.723-2.948
			c0.155-0.075,0.296-0.16,0.424-0.253c1.78,3.002,3.745,5.89,5.52,8.894C268.355,366.405,270.238,369.914,272.072,373.445z"/>
		<path style="fill:#E87070;" d="M242.278,359.372c1.613,2.005,3.142,4.083,4.612,6.21c-6.016-0.228-12.264-0.299-17.603-3.293
			c-2.769-1.556-5.32-4.51-4.199-7.87c0.048-0.206,0.116-0.407,0.193-0.607c4.564,1.022,9.171,1.583,13.777,1.712
			c0.315,0.372,0.64,0.738,0.939,1.114C240.77,357.539,241.533,358.447,242.278,359.372z"/>
		<path style="fill:#E87070;" d="M270.846,353.536c-0.081,0.538-0.179,1.074-0.304,1.602c-0.008,0.995-0.474,2.128-1.004,3.283
			c-1.017-1.342-2.088-2.643-3.223-3.891c-0.6-0.667-1.412-1.544-2.309-2.391c2.082-0.621,4.148-1.323,6.192-2.103
			c0.055,0.247,0.105,0.497,0.142,0.746C270.529,351.695,270.698,352.613,270.846,353.536z"/>
		<path style="fill:#B75981;" d="M231.005,377.349c-0.015,0.131-0.026,0.249-0.036,0.353c-0.379,6.264,0.059,12.777-0.94,19.079
			c-1.433,8.298-3.024,17.123-9.045,23.443c-1.177,1.215-2.499,2.314-3.924,3.26c-7.439,1.186-15.008-1.539-19.705-7.899
			c-4.231-6.125-5.063-13.928-4.954-21.198c0.497-10.984,3.417-21.603,6.98-31.987c0.839-2.385,1.74-4.739,2.753-7.056
			c0.549-1.693,3.304-6.156,4.029-9.094c1.373,0.804,2.774,1.562,4.198,2.269c-9.357,11.182-3.971,29.342,11.934,30.422
			C224.937,379.261,228.157,378.668,231.005,377.349z"/>
		<path style="fill:#B75981;" d="M233.231,370.03c-0.187,0.16-0.376,0.314-0.568,0.463c-3.202,2.244-7.213,3.422-11.096,2.641
			c-7.168-1.278-10.983-7.483-9.737-14.512c0.395-2.316,1.356-4.44,2.521-6.455c1.707,0.345,3.427,0.646,5.169,0.7
			c0.349-0.01,0.697-0.029,1.045-0.048c-3.168,4.839,0.41,11.335,5.04,14.015C227.969,368.368,230.546,369.369,233.231,370.03z"/>
		<path style="fill:#B75981;" d="M283.477,374.237c0.216,0,0.432,0.012,0.647,0.031c-0.474,1.799-0.914,3.584-1.327,5.348
			c-0.961,4.326-1.804,8.703-2.135,13.128c-0.267,4.311-0.101,8.664,0.523,12.937c-1.019,4.535-2.123,9.069-2.377,13.727
			c-0.039,0.665-0.076,1.332-0.107,1.999c-2.067-1.978-3.136-4.872-4.114-7.515c-3.224-10.55-2.624-33.324,7.851-39.555
			C282.787,374.266,283.132,374.237,283.477,374.237z"/>
		<path style="fill:#B75981;" d="M317.477,332.698c0.319-0.118,0.639-0.235,0.962-0.347c-3.469,2.749-6.359,6.254-8.905,9.86
			c-7.797,10.359-11.089,23.115-14.329,35.454c-4.318,16.388-8.04,33.131-8.471,50.132c0.043,3.382,0.084,6.883,1.059,10.139
			c-0.222-0.253-0.434-0.521-0.638-0.804c-2.772-4.176-2.739-9.432-2.684-14.269c0.279-5.898,0.964-11.792,0.815-17.703
			c-0.194-1.743-0.833-3.399-1.09-5.13c0.769-8.915,2.977-17.605,5.575-26.144c1.9-6.15,3.998-12.26,6.853-18.042
			c2.735-5.614,6.137-10.945,10.343-15.571c1.722-1.833,3.713-3.382,5.701-4.914C314.151,334.266,315.775,333.394,317.477,332.698z"
			/>
		<path style="fill:#FFFFFF;" d="M338.401,332.712c-5.216-0.359-10.245,2.807-14.033,6.166c-7.945,6.846-13.057,16.276-17.02,25.843
			c-4.531,10.631-8.573,21.526-10.997,32.847c-2.111,10.608-4.119,21.397-3.632,32.267c0.12,2.782,0.656,5.664,2.378,7.928
			c0.655,0.806,1.457,1.535,2.362,2.069c-1.453,0.363-2.95,0.553-4.446,0.555c-0.481,0.006-0.938-0.033-1.373-0.118
			c-0.538-0.875-0.914-1.839-1.129-2.85c-0.932-3.945-0.959-8.036-0.833-12.067c0.39-7.714,1.658-15.358,3.126-22.93
			c2.108-11.065,4.776-22.025,8.12-32.782c2.898-9.686,6.963-19.257,13.624-26.99c2.909-3.528,6.255-6.746,10.268-8.99
			c2.203-1.236,4.582-2.144,7.041-2.717c0.384-0.089,0.768-0.172,1.153-0.251c0.258,0.048,0.515,0.1,0.773,0.156
			C335.389,331.252,336.962,331.873,338.401,332.712z"/>
		<path style="fill:#FFFFFF;" d="M209.495,426.594c0.12,0.012,0.24,0.023,0.361,0.033c-3.7,0.619-7.69,0.665-11.197-0.744
			c-7.39-3.26-10.986-11.155-12.302-18.719c-2.672-14.057,1.525-28.313,7.858-40.823c1.478-2.645,1.263-5.466,1.499-8.358
			c0.344-1.905,0.977-3.738,1.713-5.524c1.266-2.778,2.918-5.35,4.576-7.905c0.125-0.208,0.265-0.424,0.411-0.648
			c0.375,0.251,0.752,0.499,1.132,0.742c-2.447,2.84-4.459,10.903-5.277,12.804c-2.663,8.111-5.325,16.23-7.408,24.516
			c-2.727,10.774-3.821,23.026,1.479,33.191C195.946,421.238,202.515,425.562,209.495,426.594z"/>
		<path style="fill:#AD8495;" d="M343.713,338.176c3.294,6.042,3.372,13.579,2.792,20.3c-0.893,10.215-4.618,19.912-8.834,29.173
			c-3.638,8.076-8.212,15.717-13.848,22.558c-1.869,2.337-4.012,4.454-5.818,6.835c-1.344,2.069-2.254,4.378-3.44,6.534
			c-0.648,1.209-1.337,2.393-2.054,3.561c-2.079,3.216-4.52,6.262-7.424,8.77c-1.23,0.384-2.527,0.634-3.777,0.216
			c-3.559-1.591-3.479-6.225-3.664-9.572c-0.166-5.425,0.481-10.831,1.36-16.174c2.478-15.889,7.623-31.243,14.324-45.829
			c3.42-7.577,7.88-14.865,13.966-20.601c2.073-1.938,4.287-3.783,6.871-4.999c1.897-0.922,3.584-1.29,5.414-1.29
			c0.905,0,1.845,0.091,2.862,0.247C342.868,337.981,343.293,338.068,343.713,338.176z"/>
		<path style="fill:#FFFFFF;" d="M181.38,328.983c1.7,7.99-2.456,15.355-8.794,20.02c-0.139,0.16-0.353,0.316-0.607,0.474
			c0.067-4.712-1.419-9.534-4.629-13.284c-0.014-0.019-0.028-0.035-0.042-0.054c1.239-0.999,2.48-1.999,3.617-3.11
			c3.143-3.594-1.631-3.592-3.984-2.346c-2.947,0.979-12.727,7.745-9.356,11.194c2.247,1.722,4.495-1.238,6.098-2.599
			c0.353-0.351,0.717-0.69,1.088-1.02c0.878,3.033,1.847,6.062,1.851,9.254c0.506,15.528-16.228,18.653-22.871,5.308
			c-0.414-0.889-1.156-1.562-1.596-2.424c-0.249-0.686-0.339-1.475-1.023-1.887c-1.336-0.947-3.249,0.355-2.895,1.945
			c0.329,4.67,2.537,9.019,5.883,12.089c-0.457,0.096-0.916,0.177-1.378,0.247c-2.565,0.283-5.183-0.05-7.627-0.866
			c-4.714-1.564-8.553-5.4-10.394-9.981c-1.327-2.799-1.266-5.994-2.235-8.873c-0.028-1.338-1.092-2.082-2.132-2.082
			c-0.857,0-1.697,0.503-1.933,1.594c-0.226,1.014-0.539,1.994-0.389,3.05c-0.027,1.336,0.07,2.659,0.28,3.954
			c-0.646-0.569-1.242-1.197-1.793-1.851c-3.234-4.201-4.985-9.798-3.498-15.015c1.398-3.914,4.578-6.912,7.585-9.652
			c0.409-0.307,0.786-0.652,1.159-1.006c0.665,1.864,1.633,3.609,2.886,5.117c3.981,5.096,10.921,6.777,17.117,6.921
			c10.862,0.393,24.791-6.65,25.334-17.952c1.842,0.492,4.384,0.235,5.902,1.091C177.846,319.131,180.366,324.153,181.38,328.983z"
			/>
		<path style="fill:#FFFFFF;" d="M154.952,315.524c0.647-1.861-0.822-3.474-2.461-3.546c0.71-2.869,1.223-5.905,2.118-8.765
			c4.579,1.693,6.876,7.151,6.985,11.794c-0.474,9.638-13.046,13.831-21.273,13.197c-3.785-0.409-8.042-1.265-10.708-4.193
			c-3.698-4.089-4.619-11.258-0.482-15.353c1.269-1.263,2.807-2.138,4.428-2.844c0.008,0.939,0.053,1.878,0.133,2.813
			c-0.689,0.359-0.808,2.292-0.817,2.921c-0.091,2.047,0.446,4.097,1.713,5.726c1.988,2.676,4.964,4.911,8.4,5.055
			c2.34,0.069,4.756-0.443,6.853-1.479c1.395-0.787,2.546-1.918,3.608-3.104C154.039,317.07,154.639,316.38,154.952,315.524z"/>
		<path style="fill:#FFFFFF;" d="M353.228,250.639c0.043,2.173-0.677,3.266-2.052,4.843c-1.445,1.448-3.097,2.711-4.951,3.586
			c-2.955,1.288-6.104,2.148-9.328,2.339c-3.857,0.108-7.779-0.397-11.412-1.72c-2.507-0.964-4.92-2.576-6.156-5.032
			c-0.167-0.415-0.32-0.837-0.457-1.263c1.368,0.33,2.77,0.519,4.164,0.582c4.219,0.173,9.729-1.514,12.854-4.4
			c0.415-0.418,0.901-0.949,1.266-1.537c0.158,0.162,0.327,0.297,0.486,0.391c2.238,1.758,5.12,2.531,7.928,2.665
			c2.574,0.173,5.115-0.307,7.55-1.288C353.186,250.076,353.226,250.352,353.228,250.639z"/>
		<path style="fill:#FFFFFF;" d="M352.358,203.508c10.728-3.229,14.977,8,14.724,16.756c-0.054,5.559-2.63,10.737-5.678,15.259
			c-5.335,7.662-12.324,12.711-22.037,10.816c-0.557-0.066-1.117-0.231-1.679-0.249c-0.015-0.1-0.037-0.199-0.069-0.299
			c-0.66-1.463-4.871,0.656-6.085,0.977c-2.276,0.7-4.598,1.342-6.982,1.512c-1.264,0.025-2.515-0.143-3.757-0.366
			c-1.667-0.364-3.214-1.099-4.741-1.841c-0.707-0.401-1.452-0.767-2.155-1.19c-2.319-5.225-5.04-10.274-8.102-15.104
			c0.307-2.501,1.102-4.932,2.162-7.253c1.402-1.723,3.367-2.887,5.355-3.846c3.012-1.481,6.385-2.334,9.753-2.334
			c1.305,0,2.608,0.128,3.889,0.397c4.198,0.766,8.058,4.498,7.805,8.952c-0.173,1.939-2.504,3.214-4.053,4.056
			c-4.966,2.301-10.226,2.247-15.452,1.105c-1.458,0.715,0.899,2.793,1.64,3.265c2.14,1.479,4.727,2.148,7.303,2.273
			c5.105,0.21,10.573-1.463,14.136-5.241c1.06-1.125,1.71-2.446,2.027-3.853c2.255,3.152,5.732,5.2,9.895,4.15
			c6.573-1.441,10.274-8.576,10.072-14.913c-0.015-1.09-0.856-2.016-1.97-2.033c-1.118-0.025-1.93,0.874-2.062,1.933
			c-0.387,1.217-0.734,2.449-1.19,3.645c-0.884,4.181-6.947,8.426-10.014,3.865C340.938,217.252,344.425,205.621,352.358,203.508z"
			/>
		<path style="fill:#FFFFFF;" d="M343.918,161.622c3.173,2.801,3.245,7.882,3.197,11.823c-0.409,8.109-2.311,16.042-3.364,24.075
			c-0.217,1.622-0.422,3.245-0.572,4.875c-0.18,0.189-0.354,0.382-0.524,0.581c-3.121,3.822-4.991,8.713-5.173,13.657
			c-3.484-4.373-8.761-6.155-14.227-6.154c-3.384,0-6.84,0.683-9.987,1.855c-1.367-4.215-3.104-8.303-4.461-12.522
			c-2.327-7.72-4.031-15.928-2.926-24.004c0.297-2.301,1.147-4.591,2.837-6.233c0.799-0.724,1.902-0.79,2.925-0.877
			c3.593-0.184,5.916,3.108,7.398,5.963c1.804,4.225,2.726,8.759,4.12,13.124c1.285,4.293,2.793,8.521,4.489,12.671
			c0.001,0.001,0.001,0.002,0.001,0.003c0.245,1.179,0.523,2.351,0.839,3.511c0.427,1.264,0.761,2.68,1.663,3.696
			c0.664,0.462,1.117-0.332,1.129-0.915c0.251-1.755,0.203-3.537,0.191-5.306c-0.097-7.716-0.35-15.46,0.291-23.161
			c0.722-6.146,1.736-13.276,7.182-17.095C340.721,159.937,342.277,160.497,343.918,161.622z"/>
		<path style="fill:#E1D4D4;" d="M323.256,210.478c-3.384,0-6.841,0.683-9.987,1.855c-0.932-2.873-2.035-5.688-3.074-8.524
			c5.438-2.102,11.046-3.746,16.635-5.406c0.269,0.688,0.544,1.373,0.822,2.057c0.245,1.179,0.524,2.351,0.839,3.511
			c0.427,1.264,0.761,2.68,1.663,3.696c0.664,0.462,1.117-0.332,1.129-0.915c0.393-3.204,0.121-6.446,0.127-9.666
			c0.134-0.038,0.268-0.076,0.402-0.114c4.1-1.166,8.26-2.205,12.456-3.015c-0.185,1.186-0.36,2.373-0.516,3.563
			c-0.217,1.622-0.422,3.245-0.572,4.875c-0.18,0.189-0.354,0.382-0.523,0.581c-3.121,3.822-4.991,8.713-5.173,13.657
			C333.999,212.259,328.722,210.477,323.256,210.478z"/>
		<path style="fill:#E1D4D4;" d="M339.194,244.208c-0.89-0.044-1.775-0.099-2.661-0.196c-0.73-0.081-1.5-0.201-2.206-0.396
			c-0.754-0.207-1.488-0.431-2.22-0.71c-0.379-0.143-0.732-0.314-1.096-0.499c-0.253-0.128-0.528-0.239-0.763-0.397
			c-0.353-0.235-0.734-0.457-1.069-0.716c-0.303-0.235-0.585-0.518-0.872-0.775c-0.295-0.263-0.607-0.708-0.807-1.05
			c-0.158-0.27-0.293-0.596-0.378-0.919c-0.159-0.432-0.188-0.911-0.063-1.371c0.095-0.344,0.277-0.661,0.519-0.922
			c4.027-0.488,7.974-2.154,10.757-5.106c1.059-1.125,1.71-2.446,2.027-3.853c2.255,3.152,5.732,5.2,9.895,4.15
			c5.296-1.161,8.727-6.019,9.755-11.177c0.179,0.204,0.343,0.423,0.495,0.643c0.37,0.533,0.834,1.202,1.054,1.822
			c0.155,0.432,0.33,0.858,0.432,1.306c0.178,0.778,0.279,1.397,0.287,2.199c0.016,1.68-0.306,3.452-1.051,4.97
			c-0.592,1.204-1.305,2.305-2.132,3.36c-1.221,1.556-2.657,2.871-4.168,4.134c-0.734,0.615-1.555,1.185-2.361,1.695
			c-0.848,0.536-1.703,1.031-2.607,1.469c-0.635,0.307-1.268,0.594-1.919,0.867c-0.322,0.135-0.663,0.235-0.992,0.351
			c-1.194,0.422-2.44,0.788-3.704,0.92c-1.11,0.115-2.229,0.219-3.347,0.219C339.731,244.227,339.462,244.221,339.194,244.208z"/>
		<path style="fill:#E1D4D4;" d="M334.712,226.018c-0.183,0.837-0.768,1.543-1.488,2.139
			C333.634,227.375,334.118,226.684,334.712,226.018z"/>
		<path style="fill:#E1D4D4;" d="M345.092,223.947c-0.804-1.296-1.322-2.778-1.577-4.339c3.67-2.217,8.242-3.45,12.42-2.011
			c-0.257,0.834-0.518,1.668-0.83,2.485C354.225,224.245,348.179,228.517,345.092,223.947z"/>
		<path style="fill:#E1D4D4;" d="M334.993,257.6c-0.919-0.116-1.728-0.32-2.561-0.744c-1.484-0.754-2.456-2.394-2.213-4.054
			c2.165-0.759,4.186-1.859,5.67-3.229c0.415-0.418,0.901-0.95,1.266-1.537c4.371,3.657,10.811,3.848,15.964,1.768
			c0.066,0.272,0.106,0.548,0.108,0.835c0.011,0.552-0.028,1.035-0.114,1.473c-3.516,1.776-7.149,3.304-10.908,4.486
			C339.896,257.349,337.432,257.848,334.993,257.6z"/>
		<path style="fill:#E1D4D4;" d="M152.491,311.978c0.71-2.869,1.223-5.905,2.118-8.765c2.668,0.987,4.562,3.252,5.699,5.889
			c-1.296,2.191-2.337,4.793-5.271,4.93C154.753,312.873,153.666,312.03,152.491,311.978z"/>
		<path style="fill:#E1D4D4;" d="M167.35,336.192c-0.013-0.019-0.028-0.035-0.041-0.054c1.239-0.999,2.48-1.999,3.617-3.11
			c0.643-0.735,0.955-1.32,1.023-1.774c4.615,0.518,6.307,6.542,7.336,10.354c-1.628,2.858-3.959,5.379-6.7,7.395
			c-0.139,0.16-0.353,0.316-0.607,0.474C172.047,344.764,170.56,339.942,167.35,336.192z"/>
		<path style="fill:#E1D4D4;" d="M135.114,361.922c-0.113-0.037-0.226-0.076-0.338-0.116c-0.623-3.143-0.809-6.472-0.128-9.617
			c0.003,0.003,0.005,0.006,0.007,0.008c0.29-1.026,0.962-1.946,1.909-2.501c0.579-0.339,1.235-0.529,1.9-0.563
			c-0.234,0.376-0.337,0.834-0.229,1.319c0.329,4.67,2.537,9.019,5.883,12.089C141.139,363.208,137.997,362.875,135.114,361.922z"/>
		<path style="fill:#E1D4D4;" d="M116.519,347.733c-1.542-2.003-2.746-4.323-3.424-6.767c1.738-2.878,5.326-3.424,6.629,0.117
			c-0.609,0.193-1.126,0.68-1.303,1.498c-0.227,1.014-0.539,1.995-0.389,3.05c-0.027,1.336,0.07,2.659,0.279,3.954
			C117.666,349.015,117.07,348.388,116.519,347.733z"/>
		<path style="fill:#E1D4D4;" d="M166.147,320.752c-0.016-0.012-0.031-0.025-0.047-0.038c0.575-1.43,0.925-2.957,1.003-4.569
			c1.842,0.492,4.384,0.235,5.902,1.091c0.516,0.202,1.006,0.44,1.471,0.709C172.976,320.062,168.553,322.528,166.147,320.752z"/>
		<path style="fill:#FFFFFF;" d="M289.771,373.886c4.625-15.142,12.841-35.384,28.668-41.535
			c-5.347,4.361-9.487,10.19-12.945,16.101c-1.246,1.569-2.447,3.172-3.609,4.805c-1.494,2.802-2.644,5.77-4.058,8.612
			c-1.265,2.632-2.564,5.252-4.07,7.756c-2.223,3.506-4.292,7.12-5.913,10.949C288.447,378.334,289.096,376.105,289.771,373.886z"/>
		<path style="fill:#FFFFFF;" d="M222.05,416.948c-1.295-0.378-2.5-1.035-3.412-2.065c-0.693-0.389-1.282-0.961-1.687-1.652
			c-0.615-1.049-0.751-2.285-0.452-3.456c0.117-0.371,0.157-0.745,0.109-1.132c-0.159-3.534,2.229-7.859,4.97-10.017
			c2.283-1.82,5.792-2.238,8.207-0.448c-1.158,6.606-2.566,13.437-6.339,18.988C222.974,417.146,222.508,417.073,222.05,416.948z"/>
		<path style="fill:#FFFFFF;" d="M210.172,402.676c-1.647-0.418-2.41-2.46-1.544-3.9c1.26-2.145,4.534-1.535,4.849,0.965
			C213.767,401.531,211.928,403.217,210.172,402.676z"/>
		<path style="fill:#B71E1E;" d="M246.86,345.384c-9.074-0.631-18.17-2.179-26.525-5.901c-19.403-8.339-32.433-25.752-38.392-45.654
			c8.433-0.487,10.681-9.102,5.457-15.003c-2.73-3.147-6.6-5.097-10.548-6.32c-1.662-9.876-2.109-19.957-1.287-29.935
			c0.319-3.315,0.676-6.639,1.334-9.907c0.372-3.725,0.835-7.444,1.591-11.112c0.959-4.555,2.521-8.988,4.825-13.041
			c0.327-0.599,0.648-1.202,0.966-1.807c0.47-0.892,0.945-1.982,1.874-2.473c1.592-0.908,3.776-0.092,4.229,1.724
			c0.001,0,0.003-0.001,0.004-0.001c0.211,0.825,0.007,1.664-0.099,2.491c-0.25,1.716-0.372,3.447-0.57,5.169
			c-0.579,5.139-0.945,10.299-1.007,15.471c-0.074,10.016,0.64,20.068,2.475,29.922c1.998,8.909,4.613,17.86,9.577,25.608
			c-0.03-0.044-0.06-0.089-0.09-0.133c5.536,8.044,12.799,15.069,21.494,19.607c4.626,2.193,9.501,3.827,14.478,5.015
			c4.545,0.832,9.188,1.189,13.807,1.009c4.574-0.358,8.992-1.723,13.036-3.873c10.735-5.66,18.872-15.525,32.325-13.708
			c7.339,1.043,15.385,4.843,17.594,12.486c-6.923,19.877-25.929,32.331-44.881,39.401
			C261.366,345.503,254.089,346.076,246.86,345.384z"/>
		<path style="fill:#B71E1E;" d="M305.718,285.45c-2.509-0.286-4.284-2.985-3.562-5.403c1.443-4.786,8.319-3.854,8.445,1.142
			C310.66,283.72,308.21,285.847,305.718,285.45z"/>
		<path style="fill:#B71E1E;" d="M186.32,194.46c-1.248-1.552-0.933-3.847,0.46-5.191c0.471-0.763,1.272-1.304,2.179-1.428
			c1.252-0.172,2.517,0.478,3.103,1.598c1.226,1.378,1.372,3.551,0.238,5.021C190.879,196.394,187.739,196.395,186.32,194.46z"/>
		<path style="fill:#FFFFFF;" d="M260.374,211.287c-0.269-0.139-0.526-0.331-0.773-0.5c-0.338-0.232-0.659-0.49-0.991-0.731
			c-0.19-0.119-0.383-0.23-0.582-0.333c-0.202-0.101-0.403-0.202-0.605-0.304c0.115,0.057,0.229,0.115,0.343,0.172
			c-0.586-0.294-1.139-0.599-1.697-0.938c-0.311-0.188-0.627-0.368-0.948-0.539c-1.283-0.612-2.572-1.191-3.806-1.904
			c-0.57-0.329-1.119-0.693-1.665-1.06c-0.704-0.474-1.399-0.951-2.063-1.482c-1.129-0.904-2.151-1.943-3.193-2.944
			c-1.051-1.012-1.995-2.105-2.836-3.297c-0.136-0.193-0.266-0.39-0.398-0.584c-0.005-0.007-0.01-0.014-0.015-0.022
			c-0.328-0.485-0.657-0.973-0.954-1.477c-0.361-0.616-0.884-1.554-0.244-2.179c0.448-0.436,1.145-0.616,1.756-0.659
			c0.657-0.046,1.309-0.063,1.967-0.038c1.555,0.059,3.098,0.278,4.599,0.692c3.022,0.834,5.91,2.187,8.31,4.227
			c0.688,0.585,1.386,1.176,2.017,1.824c0.538,0.553,1.044,1.136,1.549,1.718c0.452,0.499,0.925,0.978,1.405,1.45
			c0.561,0.549,1.023,1.181,1.523,1.784c0.344,0.367,0.714,0.706,1.077,1.056c0.784,0.752,1.42,1.658,1.567,2.761
			c0.271,2.017-1.327,3.819-3.349,3.839c-0.012,0-0.024,0-0.036,0C261.628,211.819,260.999,211.611,260.374,211.287z"/>
		<path style="fill:#FFFFFF;" d="M257.304,209.359c0.04,0.02,0.08,0.04,0.12,0.06C257.384,209.4,257.344,209.379,257.304,209.359z"
			/>
		<path style="fill:#FFFFFF;" d="M227.167,191.395c-1.634-0.613-2.87-1.937-3.551-3.511c-0.473-0.462-0.716-1.136-0.625-1.805
			c0.111-0.838,0.751-1.561,1.574-1.761c0.539-0.355,1.11-0.655,1.75-0.8c3.596-0.962,7.721,1.744,6.195,5.708
			C231.686,191.279,229.187,192.252,227.167,191.395z"/>
		<path style="fill:#977482;" d="M301.308,436.124c-6.603-2.48-2.681-23.168-1.765-28.959c9.802-7.945,20.008-15.411,30.564-22.323
			c1.523-0.987,3.048-1.971,4.577-2.947c2.162-1.32,4.306-2.961,6.852-3.394c-4.379,11.342-9.913,22.32-17.714,31.707
			c-1.869,2.337-4.012,4.454-5.818,6.835c-2,3.27-3.388,6.881-5.494,10.095c-2.079,3.216-4.52,6.262-7.424,8.77
			C303.856,436.293,302.558,436.542,301.308,436.124z"/>
	</g>
</g>
</svg>
