<svg width="101" height="33" viewBox="0 0 101 33" fill="none" xmlns="http://www.w3.org/2000/svg">
<path d="M33.528 13.312C33.864 12.688 34.344 12.2 34.968 11.848C35.608 11.48 36.368 11.296 37.248 11.296C38.304 11.296 39.256 11.576 40.104 12.136C40.952 12.68 41.616 13.48 42.096 14.536C42.592 15.576 42.84 16.808 42.84 18.232C42.84 19.656 42.592 20.896 42.096 21.952C41.616 22.992 40.952 23.792 40.104 24.352C39.256 24.896 38.304 25.168 37.248 25.168C36.368 25.168 35.608 24.992 34.968 24.64C34.344 24.272 33.864 23.776 33.528 23.152V25H28.2V7.24H33.528V13.312ZM37.44 18.232C37.44 17.512 37.256 16.952 36.888 16.552C36.52 16.152 36.048 15.952 35.472 15.952C34.896 15.952 34.424 16.152 34.056 16.552C33.688 16.952 33.504 17.512 33.504 18.232C33.504 18.952 33.688 19.512 34.056 19.912C34.424 20.312 34.896 20.512 35.472 20.512C36.048 20.512 36.52 20.312 36.888 19.912C37.256 19.512 37.44 18.952 37.44 18.232ZM43.7925 18.232C43.7925 16.808 44.0325 15.576 44.5125 14.536C45.0085 13.48 45.6805 12.68 46.5285 12.136C47.3765 11.576 48.3285 11.296 49.3845 11.296C50.2645 11.296 51.0245 11.48 51.6645 11.848C52.3045 12.2 52.7925 12.688 53.1285 13.312V11.464H58.4325V25H53.1285V23.152C52.7925 23.776 52.3045 24.272 51.6645 24.64C51.0245 24.992 50.2645 25.168 49.3845 25.168C48.3285 25.168 47.3765 24.896 46.5285 24.352C45.6805 23.792 45.0085 22.992 44.5125 21.952C44.0325 20.896 43.7925 19.656 43.7925 18.232ZM53.1285 18.232C53.1285 17.512 52.9445 16.952 52.5765 16.552C52.2085 16.152 51.7365 15.952 51.1605 15.952C50.5845 15.952 50.1125 16.152 49.7445 16.552C49.3765 16.952 49.1925 17.512 49.1925 18.232C49.1925 18.952 49.3765 19.512 49.7445 19.912C50.1125 20.312 50.5845 20.512 51.1605 20.512C51.7365 20.512 52.2085 20.312 52.5765 19.912C52.9445 19.512 53.1285 18.952 53.1285 18.232ZM69.249 20.464V25H67.233C63.521 25 61.665 23.152 61.665 19.456V15.904H59.985V11.464H61.665V8.2H66.993V11.464H69.201V15.904H66.993V19.552C66.993 19.872 67.065 20.104 67.209 20.248C67.369 20.392 67.625 20.464 67.977 20.464H69.249Z" fill="#0F67B1"/>
<path d="M76.528 8.008V25H71.2V8.008H76.528ZM88.4144 11.368C89.9664 11.368 91.1744 11.888 92.0384 12.928C92.9184 13.968 93.3584 15.376 93.3584 17.152V25H88.0544V17.824C88.0544 17.184 87.8784 16.68 87.5264 16.312C87.1904 15.928 86.7344 15.736 86.1584 15.736C85.5664 15.736 85.1024 15.928 84.7664 16.312C84.4304 16.68 84.2624 17.184 84.2624 17.824V25H78.9344V11.464H84.2624V13.528C84.6784 12.888 85.2304 12.368 85.9184 11.968C86.6224 11.568 87.4544 11.368 88.4144 11.368Z" fill="#F23737"/>
<circle cx="13" cy="13" r="12.5" fill="#F23737" stroke="#F23737"/>
<rect x="5.11438" y="10.7535" width="15.4286" height="4.18011" rx="2.09006" fill="white"/>
<rect x="15.057" y="5.18011" width="15.6754" height="4.11429" rx="2.05714" transform="rotate(90 15.057 5.18011)" fill="white"/>
</svg>
